Dosis-v2031b-Light.ufo
<glyph name="exclam" format="2">
  <advance width="203"/>
  <unicode hex="0021"/>
  <outline>
    <contour>
      <point x="101" y="153" type="curve" smooth="yes"/>
      <point x="107" y="153"/>
      <point x="117" y="159"/>
      <point x="117" y="169" type="curve" smooth="yes"/>
      <point x="117" y="349"/>
      <point x="128" y="543"/>
      <point x="128" y="723" type="curve" smooth="yes"/>
      <point x="128" y="743"/>
      <point x="116" y="754"/>
      <point x="101" y="754" type="curve" smooth="yes"/>
      <point x="86" y="754"/>
      <point x="75" y="743"/>
      <point x="75" y="723" type="curve" smooth="yes"/>
      <point x="75" y="543"/>
      <point x="86" y="349"/>
      <point x="86" y="169" type="curve" smooth="yes"/>
      <point x="86" y="159"/>
      <point x="94" y="153"/>
    </contour>
    <contour>
      <point x="102" y="-6" type="curve" smooth="yes"/>
      <point x="121" y="-6"/>
      <point x="137" y="11"/>
      <point x="137" y="30" type="curve" smooth="yes"/>
      <point x="137" y="50"/>
      <point x="121" y="66"/>
      <point x="102" y="66" type="curve" smooth="yes"/>
      <point x="81" y="66"/>
      <point x="66" y="50"/>
      <point x="66" y="30" type="curve" smooth="yes"/>
      <point x="66" y="11"/>
      <point x="81" y="-6"/>
    </contour>
  </outline>
</glyph>
<glyph name="quotedbl" format="2">
  <advance width="261"/>
  <unicode hex="0022"/>
  <outline>
    <contour>
      <point x="190" y="551" type="curve" smooth="yes"/>
      <point x="200" y="551"/>
      <point x="205" y="560"/>
      <point x="205" y="569" type="curve"/>
      <point x="215" y="751" type="line"/>
      <point x="215" y="761"/>
      <point x="200" y="768"/>
      <point x="190" y="768" type="curve" smooth="yes"/>
      <point x="180" y="768"/>
      <point x="166" y="761"/>
      <point x="166" y="751" type="curve"/>
      <point x="176" y="569" type="line"/>
      <point x="176" y="560"/>
      <point x="180" y="551"/>
    </contour>
    <contour>
      <point x="70" y="551" type="curve" smooth="yes"/>
      <point x="80" y="551"/>
      <point x="85" y="560"/>
      <point x="85" y="569" type="curve"/>
      <point x="95" y="751" type="line"/>
      <point x="95" y="761"/>
      <point x="80" y="768"/>
      <point x="70" y="768" type="curve" smooth="yes"/>
      <point x="60" y="768"/>
      <point x="46" y="761"/>
      <point x="46" y="751" type="curve"/>
      <point x="56" y="569" type="line"/>
      <point x="56" y="560"/>
      <point x="60" y="551"/>
    </contour>
  </outline>
</glyph>
<glyph name="dollar" format="2">
  <advance width="492"/>
  <unicode hex="0024"/>
  <outline>
    <contour>
      <point x="260" y="-52" type="curve" smooth="yes"/>
      <point x="269" y="-52"/>
      <point x="278" y="-44"/>
      <point x="278" y="-35" type="curve" smooth="yes"/>
      <point x="278" y="6" type="line"/>
      <point x="373" y="17"/>
      <point x="439" y="75"/>
      <point x="439" y="195" type="curve" smooth="yes"/>
      <point x="439" y="333"/>
      <point x="359" y="373"/>
      <point x="278" y="402" type="curve"/>
      <point x="278" y="684" type="line"/>
      <point x="356" y="680"/>
      <point x="390" y="647"/>
      <point x="403" y="647" type="curve" smooth="yes"/>
      <point x="412" y="647"/>
      <point x="421" y="661"/>
      <point x="421" y="669" type="curve" smooth="yes"/>
      <point x="421" y="690"/>
      <point x="354" y="718"/>
      <point x="278" y="721" type="curve"/>
      <point x="278" y="751" type="line" smooth="yes"/>
      <point x="278" y="760"/>
      <point x="269" y="768"/>
      <point x="260" y="768" type="curve" smooth="yes"/>
      <point x="250" y="768"/>
      <point x="242" y="760"/>
      <point x="242" y="751" type="curve" smooth="yes"/>
      <point x="242" y="720" type="line"/>
      <point x="162" y="716"/>
      <point x="66" y="683"/>
      <point x="66" y="558" type="curve" smooth="yes"/>
      <point x="66" y="430"/>
      <point x="155" y="404"/>
      <point x="242" y="375" type="curve"/>
      <point x="242" y="40" type="line"/>
      <point x="101" y="40"/>
      <point x="84" y="126"/>
      <point x="65" y="126" type="curve" smooth="yes"/>
      <point x="58" y="126"/>
      <point x="48" y="115"/>
      <point x="48" y="105" type="curve" smooth="yes"/>
      <point x="48" y="78"/>
      <point x="114" y="4"/>
      <point x="242" y="4" type="curve"/>
      <point x="242" y="-35" type="line" smooth="yes"/>
      <point x="242" y="-44"/>
      <point x="250" y="-52"/>
    </contour>
    <contour>
      <point x="278" y="43" type="curve"/>
      <point x="278" y="362" type="line"/>
      <point x="345" y="335"/>
      <point x="403" y="297"/>
      <point x="403" y="192" type="curve" smooth="yes"/>
      <point x="403" y="106"/>
      <point x="360" y="55"/>
    </contour>
    <contour>
      <point x="242" y="414" type="line"/>
      <point x="168" y="439"/>
      <point x="102" y="466"/>
      <point x="102" y="561" type="curve" smooth="yes"/>
      <point x="102" y="652"/>
      <point x="172" y="680"/>
      <point x="242" y="684" type="curve"/>
    </contour>
  </outline>
</glyph>
<glyph name="ampersand" format="2">
  <advance width="600"/>
  <unicode hex="0026"/>
  <outline>
    <contour>
      <point x="44" y="199" type="curve" smooth="yes"/>
      <point x="44" y="89"/>
      <point x="123" y="-6"/>
      <point x="265" y="-6" type="curve" smooth="yes"/>
      <point x="359" y="-6"/>
      <point x="423" y="35"/>
      <point x="464" y="97" type="curve"/>
      <point x="551" y="4" type="line" smooth="yes"/>
      <point x="555" y="0"/>
      <point x="559" y="-2"/>
      <point x="563" y="-2" type="curve" smooth="yes"/>
      <point x="571" y="-2"/>
      <point x="579" y="5"/>
      <point x="579" y="13" type="curve" smooth="yes"/>
      <point x="579" y="17"/>
      <point x="577" y="21"/>
      <point x="574" y="25" type="curve"/>
      <point x="481" y="125" type="line"/>
      <point x="513" y="188"/>
      <point x="526" y="265"/>
      <point x="526" y="342" type="curve" smooth="yes"/>
      <point x="526" y="369"/>
      <point x="524" y="376"/>
      <point x="509" y="376" type="curve" smooth="yes"/>
      <point x="494" y="376"/>
      <point x="492" y="369"/>
      <point x="492" y="347" type="curve" smooth="yes"/>
      <point x="492" y="273"/>
      <point x="480" y="206"/>
      <point x="455" y="153" type="curve"/>
      <point x="218" y="407" type="line" smooth="yes"/>
      <point x="164" y="464"/>
      <point x="135" y="503"/>
      <point x="135" y="569" type="curve" smooth="yes"/>
      <point x="135" y="659"/>
      <point x="188" y="700"/>
      <point x="267" y="700" type="curve" smooth="yes"/>
      <point x="368" y="700"/>
      <point x="374" y="632"/>
      <point x="397" y="632" type="curve" smooth="yes"/>
      <point x="405" y="632"/>
      <point x="414" y="641"/>
      <point x="414" y="650" type="curve" smooth="yes"/>
      <point x="414" y="670"/>
      <point x="369" y="736"/>
      <point x="271" y="736" type="curve" smooth="yes"/>
      <point x="180" y="736"/>
      <point x="99" y="679"/>
      <point x="99" y="572" type="curve" smooth="yes"/>
      <point x="99" y="479"/>
      <point x="161" y="418"/>
      <point x="186" y="393" type="curve"/>
      <point x="117" y="364"/>
      <point x="44" y="304"/>
    </contour>
    <contour>
      <point x="80" y="203" type="curve" smooth="yes"/>
      <point x="80" y="301"/>
      <point x="157" y="347"/>
      <point x="209" y="369" type="curve"/>
      <point x="440" y="123" type="line"/>
      <point x="403" y="65"/>
      <point x="347" y="30"/>
      <point x="269" y="30" type="curve" smooth="yes"/>
      <point x="147" y="30"/>
      <point x="80" y="112"/>
    </contour>
  </outline>
</glyph>
<glyph name="quotesingle" format="2">
  <advance width="141"/>
  <unicode hex="0027"/>
  <outline>
    <contour>
      <point x="70" y="551" type="curve" smooth="yes"/>
      <point x="80" y="551"/>
      <point x="85" y="560"/>
      <point x="85" y="569" type="curve"/>
      <point x="95" y="751" type="line"/>
      <point x="95" y="761"/>
      <point x="80" y="768"/>
      <point x="70" y="768" type="curve" smooth="yes"/>
      <point x="60" y="768"/>
      <point x="46" y="761"/>
      <point x="46" y="751" type="curve"/>
      <point x="56" y="569" type="line"/>
      <point x="56" y="560"/>
      <point x="60" y="551"/>
    </contour>
  </outline>
</glyph>
<glyph name="parenleft" format="2">
  <advance width="285"/>
  <unicode hex="0028"/>
  <outline>
    <contour>
      <point x="246" y="-80" type="curve" smooth="yes"/>
      <point x="254" y="-80"/>
      <point x="263" y="-73"/>
      <point x="263" y="-62" type="curve" smooth="yes"/>
      <point x="263" y="-55"/>
      <point x="259" y="-45"/>
      <point x="246" y="-45" type="curve" smooth="yes"/>
      <point x="185" y="-45"/>
      <point x="108" y="-15"/>
      <point x="108" y="123" type="curve" smooth="yes"/>
      <point x="108" y="551" type="line" smooth="yes"/>
      <point x="108" y="639"/>
      <point x="158" y="733"/>
      <point x="246" y="733" type="curve" smooth="yes"/>
      <point x="255" y="733"/>
      <point x="263" y="741"/>
      <point x="263" y="751" type="curve" smooth="yes"/>
      <point x="263" y="760"/>
      <point x="255" y="768"/>
      <point x="246" y="768" type="curve" smooth="yes"/>
      <point x="143" y="768"/>
      <point x="72" y="664"/>
      <point x="72" y="551" type="curve" smooth="yes"/>
      <point x="72" y="123" type="line" smooth="yes"/>
      <point x="72" y="-4"/>
      <point x="141" y="-80"/>
    </contour>
  </outline>
</glyph>
<glyph name="parenright" format="2">
  <advance width="285"/>
  <unicode hex="0029"/>
  <outline>
    <contour>
      <point x="39" y="-80" type="curve" smooth="yes"/>
      <point x="144" y="-80"/>
      <point x="213" y="-4"/>
      <point x="213" y="123" type="curve" smooth="yes"/>
      <point x="213" y="551" type="line" smooth="yes"/>
      <point x="213" y="664"/>
      <point x="142" y="768"/>
      <point x="39" y="768" type="curve" smooth="yes"/>
      <point x="30" y="768"/>
      <point x="22" y="760"/>
      <point x="22" y="751" type="curve" smooth="yes"/>
      <point x="22" y="741"/>
      <point x="30" y="733"/>
      <point x="39" y="733" type="curve" smooth="yes"/>
      <point x="127" y="733"/>
      <point x="177" y="639"/>
      <point x="177" y="551" type="curve" smooth="yes"/>
      <point x="177" y="123" type="line" smooth="yes"/>
      <point x="177" y="-15"/>
      <point x="100" y="-45"/>
      <point x="39" y="-45" type="curve" smooth="yes"/>
      <point x="26" y="-45"/>
      <point x="22" y="-55"/>
      <point x="22" y="-62" type="curve" smooth="yes"/>
      <point x="22" y="-73"/>
      <point x="31" y="-80"/>
    </contour>
  </outline>
</glyph>
<glyph name="asterisk" format="2">
  <advance width="422"/>
  <unicode hex="002A"/>
  <outline>
    <contour>
      <point x="120" y="412" type="curve" smooth="yes"/>
      <point x="124" y="412"/>
      <point x="128" y="414"/>
      <point x="131" y="418" type="curve"/>
      <point x="211" y="534" type="line"/>
      <point x="290" y="419" type="line"/>
      <point x="294" y="414"/>
      <point x="299" y="412"/>
      <point x="303" y="412" type="curve" smooth="yes"/>
      <point x="313" y="412"/>
      <point x="323" y="420"/>
      <point x="323" y="431" type="curve" smooth="yes"/>
      <point x="323" y="434"/>
      <point x="322" y="437"/>
      <point x="320" y="440" type="curve"/>
      <point x="235" y="552" type="line"/>
      <point x="368" y="591" type="line"/>
      <point x="376" y="593"/>
      <point x="380" y="600"/>
      <point x="380" y="607" type="curve" smooth="yes"/>
      <point x="380" y="616"/>
      <point x="372" y="627"/>
      <point x="363" y="627" type="curve" smooth="yes"/>
      <point x="362" y="627"/>
      <point x="359" y="627"/>
      <point x="357" y="626" type="curve"/>
      <point x="224" y="578" type="line"/>
      <point x="229" y="719" type="line"/>
      <point x="229" y="730"/>
      <point x="220" y="736"/>
      <point x="211" y="736" type="curve" smooth="yes"/>
      <point x="202" y="736"/>
      <point x="193" y="730"/>
      <point x="193" y="719" type="curve"/>
      <point x="198" y="579" type="line"/>
      <point x="65" y="626" type="line"/>
      <point x="63" y="627"/>
      <point x="61" y="627"/>
      <point x="60" y="627" type="curve" smooth="yes"/>
      <point x="49" y="627"/>
      <point x="42" y="617"/>
      <point x="42" y="607" type="curve" smooth="yes"/>
      <point x="42" y="600"/>
      <point x="45" y="593"/>
      <point x="53" y="591" type="curve"/>
      <point x="187" y="551" type="line"/>
      <point x="103" y="441" type="line" smooth="yes"/>
      <point x="100" y="437"/>
      <point x="99" y="434"/>
      <point x="99" y="430" type="curve" smooth="yes"/>
      <point x="99" y="419"/>
      <point x="112" y="412"/>
    </contour>
  </outline>
</glyph>
<glyph name="plus" format="2">
  <advance width="433"/>
  <unicode hex="002B"/>
  <outline>
    <contour>
      <point x="217" y="63" type="curve" smooth="yes"/>
      <point x="227" y="63"/>
      <point x="234" y="70"/>
      <point x="234" y="80" type="curve" smooth="yes"/>
      <point x="234" y="223" type="line"/>
      <point x="376" y="223" type="line" smooth="yes"/>
      <point x="385" y="223"/>
      <point x="394" y="230"/>
      <point x="394" y="240" type="curve" smooth="yes"/>
      <point x="394" y="250"/>
      <point x="385" y="258"/>
      <point x="376" y="258" type="curve" smooth="yes"/>
      <point x="234" y="258" type="line"/>
      <point x="234" y="400" type="line" smooth="yes"/>
      <point x="234" y="409"/>
      <point x="227" y="418"/>
      <point x="217" y="418" type="curve" smooth="yes"/>
      <point x="207" y="418"/>
      <point x="199" y="409"/>
      <point x="199" y="400" type="curve" smooth="yes"/>
      <point x="199" y="258" type="line"/>
      <point x="56" y="258" type="line" smooth="yes"/>
      <point x="46" y="258"/>
      <point x="39" y="250"/>
      <point x="39" y="240" type="curve" smooth="yes"/>
      <point x="39" y="230"/>
      <point x="46" y="223"/>
      <point x="56" y="223" type="curve" smooth="yes"/>
      <point x="199" y="223" type="line"/>
      <point x="199" y="80" type="line" smooth="yes"/>
      <point x="199" y="70"/>
      <point x="207" y="63"/>
    </contour>
  </outline>
</glyph>
<glyph name="comma" format="2">
  <advance width="170"/>
  <unicode hex="002C"/>
  <outline>
    <contour>
      <point x="56" y="-101" type="curve" smooth="yes"/>
      <point x="94" y="-57"/>
      <point x="115" y="-13"/>
      <point x="116" y="11" type="curve" smooth="yes"/>
      <point x="118" y="39"/>
      <point x="112" y="67"/>
      <point x="85" y="67" type="curve" smooth="yes"/>
      <point x="64" y="67"/>
      <point x="51" y="51"/>
      <point x="51" y="30" type="curve" smooth="yes"/>
      <point x="51" y="9"/>
      <point x="68" y="4"/>
      <point x="68" y="-14" type="curve" smooth="yes"/>
      <point x="68" y="-44"/>
      <point x="34" y="-77"/>
      <point x="34" y="-93" type="curve" smooth="yes"/>
      <point x="34" y="-101"/>
      <point x="39" y="-107"/>
      <point x="45" y="-107" type="curve" smooth="yes"/>
      <point x="49" y="-107"/>
      <point x="52" y="-105"/>
    </contour>
  </outline>
</glyph>
<glyph name="hyphen" format="2">
  <advance width="430"/>
  <unicode hex="002D"/>
  <outline>
    <contour>
      <point x="77" y="223" type="curve" smooth="yes"/>
      <point x="352" y="223" type="line" smooth="yes"/>
      <point x="361" y="223"/>
      <point x="370" y="230"/>
      <point x="370" y="240" type="curve" smooth="yes"/>
      <point x="370" y="250"/>
      <point x="361" y="258"/>
      <point x="352" y="258" type="curve" smooth="yes"/>
      <point x="77" y="258" type="line" smooth="yes"/>
      <point x="67" y="258"/>
      <point x="60" y="250"/>
      <point x="60" y="240" type="curve" smooth="yes"/>
      <point x="60" y="230"/>
      <point x="67" y="223"/>
    </contour>
  </outline>
</glyph>
<glyph name="period" format="2">
  <advance width="169"/>
  <unicode hex="002E"/>
  <outline>
    <contour>
      <point x="85" y="-6" type="curve" smooth="yes"/>
      <point x="104" y="-6"/>
      <point x="120" y="11"/>
      <point x="120" y="30" type="curve" smooth="yes"/>
      <point x="120" y="50"/>
      <point x="104" y="66"/>
      <point x="85" y="66" type="curve" smooth="yes"/>
      <point x="64" y="66"/>
      <point x="49" y="50"/>
      <point x="49" y="30" type="curve" smooth="yes"/>
      <point x="49" y="11"/>
      <point x="64" y="-6"/>
    </contour>
  </outline>
</glyph>
<glyph name="slash" format="2">
  <advance width="472"/>
  <unicode hex="002F"/>
  <outline>
    <contour>
      <point x="40" y="-20" type="curve" smooth="yes"/>
      <point x="47" y="-20"/>
      <point x="53" y="-17"/>
      <point x="57" y="-9" type="curve" smooth="yes"/>
      <point x="445" y="738" type="line" smooth="yes"/>
      <point x="447" y="742"/>
      <point x="448" y="745"/>
      <point x="448" y="749" type="curve" smooth="yes"/>
      <point x="448" y="760"/>
      <point x="438" y="768"/>
      <point x="430" y="768" type="curve" smooth="yes"/>
      <point x="425" y="768"/>
      <point x="420" y="766"/>
      <point x="417" y="760" type="curve" smooth="yes"/>
      <point x="26" y="4" type="line"/>
      <point x="24" y="1"/>
      <point x="24" y="-2"/>
      <point x="24" y="-5" type="curve" smooth="yes"/>
      <point x="24" y="-14"/>
      <point x="32" y="-20"/>
    </contour>
  </outline>
</glyph>
<glyph name="zero" format="2">
  <advance width="545"/>
  <unicode hex="0030"/>
  <outline>
    <contour>
      <point x="272" y="-6" type="curve" smooth="yes"/>
      <point x="382" y="-6"/>
      <point x="468" y="50"/>
      <point x="468" y="200" type="curve" smooth="yes"/>
      <point x="468" y="530" type="line" smooth="yes"/>
      <point x="468" y="680"/>
      <point x="382" y="736"/>
      <point x="272" y="736" type="curve" smooth="yes"/>
      <point x="162" y="736"/>
      <point x="77" y="680"/>
      <point x="77" y="530" type="curve" smooth="yes"/>
      <point x="77" y="200" type="line" smooth="yes"/>
      <point x="77" y="50"/>
      <point x="162" y="-6"/>
    </contour>
    <contour>
      <point x="272" y="30" type="curve" smooth="yes"/>
      <point x="172" y="30"/>
      <point x="113" y="84"/>
      <point x="113" y="200" type="curve" smooth="yes"/>
      <point x="113" y="530" type="line" smooth="yes"/>
      <point x="113" y="646"/>
      <point x="172" y="700"/>
      <point x="272" y="700" type="curve" smooth="yes"/>
      <point x="372" y="700"/>
      <point x="432" y="646"/>
      <point x="432" y="530" type="curve" smooth="yes"/>
      <point x="432" y="200" type="line" smooth="yes"/>
      <point x="432" y="84"/>
      <point x="372" y="30"/>
    </contour>
    <contour>
      <point x="273" y="332" type="curve" smooth="yes"/>
      <point x="290" y="332"/>
      <point x="304" y="347"/>
      <point x="304" y="364" type="curve" smooth="yes"/>
      <point x="304" y="381"/>
      <point x="290" y="395"/>
      <point x="273" y="395" type="curve" smooth="yes"/>
      <point x="255" y="395"/>
      <point x="241" y="381"/>
      <point x="241" y="364" type="curve" smooth="yes"/>
      <point x="241" y="347"/>
      <point x="255" y="332"/>
    </contour>
  </outline>
</glyph>
<glyph name="one" format="2">
  <advance width="262"/>
  <unicode hex="0031"/>
  <outline>
    <contour>
      <point x="150" y="0" type="curve" smooth="yes"/>
      <point x="159" y="0"/>
      <point x="168" y="6"/>
      <point x="168" y="18" type="curve" smooth="yes"/>
      <point x="168" y="720" type="line" smooth="yes"/>
      <point x="168" y="732"/>
      <point x="161" y="737"/>
      <point x="152" y="737" type="curve" smooth="yes"/>
      <point x="139" y="737"/>
      <point x="134" y="729"/>
      <point x="129" y="720" type="curve" smooth="yes"/>
      <point x="38" y="563" type="line" smooth="yes"/>
      <point x="36" y="559"/>
      <point x="28" y="546"/>
      <point x="28" y="540" type="curve" smooth="yes"/>
      <point x="28" y="531"/>
      <point x="35" y="523"/>
      <point x="44" y="523" type="curve" smooth="yes"/>
      <point x="50" y="523"/>
      <point x="56" y="526"/>
      <point x="62" y="536" type="curve" smooth="yes"/>
      <point x="132" y="653" type="line"/>
      <point x="132" y="18" type="line" smooth="yes"/>
      <point x="132" y="6"/>
      <point x="141" y="0"/>
    </contour>
  </outline>
</glyph>
<glyph name="two" format="2">
  <advance width="480"/>
  <unicode hex="0032"/>
  <outline>
    <contour>
      <point x="66" y="0" type="curve" smooth="yes"/>
      <point x="422" y="0" type="line" smooth="yes"/>
      <point x="431" y="0"/>
      <point x="439" y="9"/>
      <point x="439" y="18" type="curve" smooth="yes"/>
      <point x="439" y="28"/>
      <point x="431" y="36"/>
      <point x="422" y="36" type="curve" smooth="yes"/>
      <point x="84" y="36" type="line"/>
      <point x="84" y="87" type="line" smooth="yes"/>
      <point x="84" y="234"/>
      <point x="429" y="335"/>
      <point x="429" y="549" type="curve" smooth="yes"/>
      <point x="429" y="648"/>
      <point x="356" y="736"/>
      <point x="241" y="736" type="curve" smooth="yes"/>
      <point x="138" y="736"/>
      <point x="66" y="666"/>
      <point x="66" y="579" type="curve" smooth="yes"/>
      <point x="66" y="559"/>
      <point x="70" y="551"/>
      <point x="83" y="551" type="curve" smooth="yes"/>
      <point x="96" y="551"/>
      <point x="102" y="560"/>
      <point x="102" y="568" type="curve" smooth="yes"/>
      <point x="102" y="655"/>
      <point x="160" y="700"/>
      <point x="239" y="700" type="curve" smooth="yes"/>
      <point x="343" y="700"/>
      <point x="393" y="621"/>
      <point x="393" y="548" type="curve" smooth="yes"/>
      <point x="393" y="357"/>
      <point x="48" y="256"/>
      <point x="48" y="87" type="curve" smooth="yes"/>
      <point x="48" y="18" type="line" smooth="yes"/>
      <point x="48" y="7"/>
      <point x="58" y="0"/>
    </contour>
  </outline>
</glyph>
<glyph name="three" format="2">
  <advance width="492"/>
  <unicode hex="0033"/>
  <outline>
    <contour>
      <point x="239" y="-6" type="curve" smooth="yes"/>
      <point x="346" y="-6"/>
      <point x="433" y="50"/>
      <point x="433" y="200" type="curve" smooth="yes"/>
      <point x="433" y="219" type="line" smooth="yes"/>
      <point x="433" y="312"/>
      <point x="390" y="365"/>
      <point x="331" y="390" type="curve"/>
      <point x="376" y="412"/>
      <point x="415" y="462"/>
      <point x="415" y="557" type="curve" smooth="yes"/>
      <point x="415" y="688"/>
      <point x="347" y="736"/>
      <point x="245" y="736" type="curve" smooth="yes"/>
      <point x="90" y="736"/>
      <point x="60" y="628"/>
      <point x="60" y="581" type="curve" smooth="yes"/>
      <point x="60" y="554"/>
      <point x="67" y="546"/>
      <point x="78" y="546" type="curve" smooth="yes"/>
      <point x="89" y="546"/>
      <point x="96" y="557"/>
      <point x="96" y="575" type="curve" smooth="yes"/>
      <point x="96" y="619"/>
      <point x="119" y="700"/>
      <point x="243" y="700" type="curve" smooth="yes"/>
      <point x="341" y="700"/>
      <point x="379" y="647"/>
      <point x="379" y="548" type="curve" smooth="yes"/>
      <point x="379" y="445"/>
      <point x="332" y="408"/>
      <point x="268" y="408" type="curve" smooth="yes"/>
      <point x="226" y="408"/>
      <point x="220" y="402"/>
      <point x="220" y="389" type="curve" smooth="yes"/>
      <point x="220" y="376"/>
      <point x="226" y="372"/>
      <point x="269" y="372" type="curve" smooth="yes"/>
      <point x="336" y="372"/>
      <point x="397" y="321"/>
      <point x="397" y="219" type="curve" smooth="yes"/>
      <point x="397" y="200" type="line" smooth="yes"/>
      <point x="397" y="84"/>
      <point x="337" y="30"/>
      <point x="235" y="30" type="curve" smooth="yes"/>
      <point x="104" y="30"/>
      <point x="77" y="117"/>
      <point x="77" y="158" type="curve" smooth="yes"/>
      <point x="77" y="168"/>
      <point x="72" y="179"/>
      <point x="58" y="179" type="curve" smooth="yes"/>
      <point x="48" y="179"/>
      <point x="42" y="173"/>
      <point x="42" y="151" type="curve" smooth="yes"/>
      <point x="42" y="80"/>
      <point x="107" y="-6"/>
    </contour>
  </outline>
</glyph>
<glyph name="four" format="2">
  <advance width="430"/>
  <unicode hex="0034"/>
  <outline>
    <contour>
      <point x="313" y="0" type="curve" smooth="yes"/>
      <point x="322" y="0"/>
      <point x="331" y="6"/>
      <point x="331" y="18" type="curve" smooth="yes"/>
      <point x="331" y="178" type="line"/>
      <point x="390" y="178" type="line" smooth="yes"/>
      <point x="402" y="178"/>
      <point x="408" y="187"/>
      <point x="408" y="196" type="curve" smooth="yes"/>
      <point x="408" y="205"/>
      <point x="402" y="214"/>
      <point x="390" y="214" type="curve" smooth="yes"/>
      <point x="331" y="214" type="line"/>
      <point x="331" y="448" type="line" smooth="yes"/>
      <point x="331" y="460"/>
      <point x="322" y="465"/>
      <point x="313" y="465" type="curve" smooth="yes"/>
      <point x="304" y="465"/>
      <point x="295" y="460"/>
      <point x="295" y="448" type="curve" smooth="yes"/>
      <point x="295" y="214" type="line"/>
      <point x="63" y="214" type="line"/>
      <point x="313" y="709" type="line" smooth="yes"/>
      <point x="315" y="713"/>
      <point x="316" y="716"/>
      <point x="316" y="720" type="curve" smooth="yes"/>
      <point x="316" y="729"/>
      <point x="308" y="736"/>
      <point x="299" y="736" type="curve" smooth="yes"/>
      <point x="292" y="736"/>
      <point x="284" y="732"/>
      <point x="279" y="722" type="curve" smooth="yes"/>
      <point x="20" y="208" type="line"/>
      <point x="18" y="205"/>
      <point x="17" y="201"/>
      <point x="17" y="196" type="curve" smooth="yes"/>
      <point x="17" y="187"/>
      <point x="22" y="178"/>
      <point x="34" y="178" type="curve" smooth="yes"/>
      <point x="295" y="178" type="line"/>
      <point x="295" y="18" type="line" smooth="yes"/>
      <point x="295" y="6"/>
      <point x="304" y="0"/>
    </contour>
  </outline>
</glyph>
<glyph name="five" format="2">
  <advance width="477"/>
  <unicode hex="0035"/>
  <outline>
    <contour>
      <point x="236" y="-6" type="curve" smooth="yes"/>
      <point x="346" y="-6"/>
      <point x="432" y="50"/>
      <point x="432" y="200" type="curve" smooth="yes"/>
      <point x="432" y="219" type="line" smooth="yes"/>
      <point x="432" y="365"/>
      <point x="347" y="419"/>
      <point x="237" y="419" type="curve" smooth="yes"/>
      <point x="113" y="419" type="line"/>
      <point x="132" y="694" type="line"/>
      <point x="381" y="694" type="line" smooth="yes"/>
      <point x="391" y="694"/>
      <point x="396" y="703"/>
      <point x="396" y="712" type="curve" smooth="yes"/>
      <point x="396" y="721"/>
      <point x="391" y="730"/>
      <point x="381" y="730" type="curve" smooth="yes"/>
      <point x="114" y="730" type="line" smooth="yes"/>
      <point x="103" y="730"/>
      <point x="97" y="723"/>
      <point x="96" y="712" type="curve" smooth="yes"/>
      <point x="79" y="421" type="line" smooth="yes"/>
      <point x="78" y="410"/>
      <point x="77" y="401"/>
      <point x="77" y="395" type="curve" smooth="yes"/>
      <point x="77" y="388"/>
      <point x="81" y="383"/>
      <point x="102" y="383" type="curve" smooth="yes"/>
      <point x="237" y="383" type="line" smooth="yes"/>
      <point x="336" y="383"/>
      <point x="396" y="330"/>
      <point x="396" y="219" type="curve" smooth="yes"/>
      <point x="396" y="200" type="line" smooth="yes"/>
      <point x="396" y="84"/>
      <point x="336" y="30"/>
      <point x="236" y="30" type="curve" smooth="yes"/>
      <point x="148" y="30"/>
      <point x="77" y="78"/>
      <point x="77" y="161" type="curve" smooth="yes"/>
      <point x="77" y="173"/>
      <point x="67" y="179"/>
      <point x="58" y="179" type="curve" smooth="yes"/>
      <point x="49" y="179"/>
      <point x="41" y="173"/>
      <point x="41" y="159" type="curve" smooth="yes"/>
      <point x="41" y="68"/>
      <point x="113" y="-6"/>
    </contour>
  </outline>
</glyph>
<glyph name="six" format="2">
  <advance width="526"/>
  <unicode hex="0036"/>
  <outline>
    <contour>
      <point x="273" y="-6" type="curve" smooth="yes"/>
      <point x="383" y="-6"/>
      <point x="468" y="50"/>
      <point x="468" y="200" type="curve" smooth="yes"/>
      <point x="468" y="229" type="line" smooth="yes"/>
      <point x="468" y="379"/>
      <point x="383" y="425"/>
      <point x="273" y="425" type="curve" smooth="yes"/>
      <point x="206" y="425"/>
      <point x="148" y="401"/>
      <point x="113" y="351" type="curve"/>
      <point x="113" y="530" type="line" smooth="yes"/>
      <point x="113" y="646"/>
      <point x="172" y="700"/>
      <point x="272" y="700" type="curve" smooth="yes"/>
      <point x="360" y="700"/>
      <point x="432" y="648"/>
      <point x="432" y="569" type="curve" smooth="yes"/>
      <point x="432" y="557"/>
      <point x="442" y="551"/>
      <point x="451" y="551" type="curve" smooth="yes"/>
      <point x="460" y="551"/>
      <point x="468" y="557"/>
      <point x="468" y="571" type="curve" smooth="yes"/>
      <point x="468" y="659"/>
      <point x="395" y="736"/>
      <point x="272" y="736" type="curve" smooth="yes"/>
      <point x="162" y="736"/>
      <point x="77" y="680"/>
      <point x="77" y="530" type="curve" smooth="yes"/>
      <point x="77" y="200" type="line" smooth="yes"/>
      <point x="77" y="50"/>
      <point x="163" y="-6"/>
    </contour>
    <contour>
      <point x="273" y="30" type="curve" smooth="yes"/>
      <point x="173" y="30"/>
      <point x="113" y="84"/>
      <point x="113" y="200" type="curve" smooth="yes"/>
      <point x="113" y="238" type="line" smooth="yes"/>
      <point x="113" y="348"/>
      <point x="176" y="389"/>
      <point x="273" y="389" type="curve" smooth="yes"/>
      <point x="373" y="389"/>
      <point x="432" y="345"/>
      <point x="432" y="229" type="curve" smooth="yes"/>
      <point x="432" y="200" type="line" smooth="yes"/>
      <point x="432" y="84"/>
      <point x="373" y="30"/>
    </contour>
  </outline>
</glyph>
<glyph name="seven" format="2">
  <advance width="458"/>
  <unicode hex="0037"/>
  <outline>
    <contour>
      <point x="98" y="0" type="curve" smooth="yes"/>
      <point x="104" y="0"/>
      <point x="110" y="4"/>
      <point x="113" y="10" type="curve" smooth="yes"/>
      <point x="431" y="632" type="line"/>
      <point x="433" y="635"/>
      <point x="433" y="637"/>
      <point x="433" y="640" type="curve" smooth="yes"/>
      <point x="433" y="712" type="line" smooth="yes"/>
      <point x="433" y="721"/>
      <point x="423" y="730"/>
      <point x="415" y="730" type="curve" smooth="yes"/>
      <point x="60" y="730" type="line" smooth="yes"/>
      <point x="51" y="730"/>
      <point x="42" y="721"/>
      <point x="42" y="712" type="curve" smooth="yes"/>
      <point x="42" y="563" type="line" smooth="yes"/>
      <point x="42" y="553"/>
      <point x="50" y="545"/>
      <point x="60" y="545" type="curve" smooth="yes"/>
      <point x="69" y="545"/>
      <point x="78" y="553"/>
      <point x="78" y="563" type="curve" smooth="yes"/>
      <point x="78" y="694" type="line"/>
      <point x="397" y="694" type="line"/>
      <point x="397" y="645" type="line"/>
      <point x="81" y="26" type="line" smooth="yes"/>
      <point x="79" y="22"/>
      <point x="78" y="18"/>
      <point x="78" y="15" type="curve" smooth="yes"/>
      <point x="78" y="5"/>
      <point x="87" y="0"/>
    </contour>
  </outline>
</glyph>
<glyph name="eight" format="2">
  <advance width="509"/>
  <unicode hex="0038"/>
  <outline>
    <contour>
      <point x="255" y="-6" type="curve" smooth="yes"/>
      <point x="365" y="-6"/>
      <point x="450" y="51"/>
      <point x="450" y="200" type="curve" smooth="yes"/>
      <point x="450" y="212" type="line" smooth="yes"/>
      <point x="450" y="313"/>
      <point x="409" y="368"/>
      <point x="347" y="394" type="curve"/>
      <point x="398" y="417"/>
      <point x="432" y="469"/>
      <point x="432" y="560" type="curve" smooth="yes"/>
      <point x="432" y="690"/>
      <point x="355" y="736"/>
      <point x="255" y="736" type="curve" smooth="yes"/>
      <point x="155" y="736"/>
      <point x="78" y="690"/>
      <point x="78" y="560" type="curve" smooth="yes"/>
      <point x="78" y="469"/>
      <point x="112" y="417"/>
      <point x="163" y="394" type="curve"/>
      <point x="101" y="368"/>
      <point x="59" y="313"/>
      <point x="59" y="212" type="curve" smooth="yes"/>
      <point x="59" y="200" type="line" smooth="yes"/>
      <point x="59" y="51"/>
      <point x="145" y="-6"/>
    </contour>
    <contour>
      <point x="256" y="30" type="curve" smooth="yes"/>
      <point x="156" y="30"/>
      <point x="95" y="84"/>
      <point x="95" y="200" type="curve" smooth="yes"/>
      <point x="95" y="212" type="line" smooth="yes"/>
      <point x="95" y="324"/>
      <point x="156" y="375"/>
      <point x="255" y="375" type="curve" smooth="yes"/>
      <point x="354" y="375"/>
      <point x="414" y="324"/>
      <point x="414" y="212" type="curve" smooth="yes"/>
      <point x="414" y="200" type="line" smooth="yes"/>
      <point x="414" y="85"/>
      <point x="355" y="30"/>
    </contour>
    <contour>
      <point x="255" y="412" type="curve" smooth="yes"/>
      <point x="167" y="412"/>
      <point x="114" y="455"/>
      <point x="114" y="560" type="curve" smooth="yes"/>
      <point x="114" y="654"/>
      <point x="167" y="700"/>
      <point x="255" y="700" type="curve" smooth="yes"/>
      <point x="343" y="700"/>
      <point x="396" y="654"/>
      <point x="396" y="560" type="curve" smooth="yes"/>
      <point x="396" y="455"/>
      <point x="343" y="412"/>
    </contour>
  </outline>
</glyph>
<glyph name="nine" format="2">
  <advance width="526"/>
  <unicode hex="0039"/>
  <outline>
    <contour>
      <point x="254" y="-6" type="curve" smooth="yes"/>
      <point x="364" y="-6"/>
      <point x="449" y="50"/>
      <point x="449" y="200" type="curve" smooth="yes"/>
      <point x="449" y="530" type="line" smooth="yes"/>
      <point x="449" y="680"/>
      <point x="363" y="736"/>
      <point x="253" y="736" type="curve" smooth="yes"/>
      <point x="143" y="736"/>
      <point x="58" y="680"/>
      <point x="58" y="530" type="curve" smooth="yes"/>
      <point x="58" y="501" type="line" smooth="yes"/>
      <point x="58" y="351"/>
      <point x="143" y="305"/>
      <point x="253" y="305" type="curve" smooth="yes"/>
      <point x="320" y="305"/>
      <point x="378" y="329"/>
      <point x="413" y="379" type="curve"/>
      <point x="413" y="200" type="line" smooth="yes"/>
      <point x="413" y="84"/>
      <point x="354" y="30"/>
      <point x="254" y="30" type="curve" smooth="yes"/>
      <point x="166" y="30"/>
      <point x="94" y="82"/>
      <point x="94" y="161" type="curve" smooth="yes"/>
      <point x="94" y="173"/>
      <point x="84" y="179"/>
      <point x="75" y="179" type="curve" smooth="yes"/>
      <point x="66" y="179"/>
      <point x="58" y="173"/>
      <point x="58" y="159" type="curve" smooth="yes"/>
      <point x="58" y="71"/>
      <point x="131" y="-6"/>
    </contour>
    <contour>
      <point x="253" y="341" type="curve" smooth="yes"/>
      <point x="153" y="341"/>
      <point x="94" y="385"/>
      <point x="94" y="501" type="curve" smooth="yes"/>
      <point x="94" y="530" type="line" smooth="yes"/>
      <point x="94" y="646"/>
      <point x="153" y="700"/>
      <point x="253" y="700" type="curve" smooth="yes"/>
      <point x="353" y="700"/>
      <point x="413" y="646"/>
      <point x="413" y="530" type="curve" smooth="yes"/>
      <point x="413" y="492" type="line" smooth="yes"/>
      <point x="413" y="382"/>
      <point x="350" y="341"/>
    </contour>
  </outline>
</glyph>
<glyph name="colon" format="2">
  <advance width="203"/>
  <unicode hex="003A"/>
  <outline>
    <contour>
      <point x="102" y="434" type="curve" smooth="yes"/>
      <point x="121" y="434"/>
      <point x="137" y="451"/>
      <point x="137" y="470" type="curve" smooth="yes"/>
      <point x="137" y="490"/>
      <point x="121" y="506"/>
      <point x="102" y="506" type="curve" smooth="yes"/>
      <point x="81" y="506"/>
      <point x="66" y="490"/>
      <point x="66" y="470" type="curve" smooth="yes"/>
      <point x="66" y="451"/>
      <point x="81" y="434"/>
    </contour>
    <contour>
      <point x="102" y="-6" type="curve" smooth="yes"/>
      <point x="121" y="-6"/>
      <point x="137" y="11"/>
      <point x="137" y="30" type="curve" smooth="yes"/>
      <point x="137" y="50"/>
      <point x="121" y="66"/>
      <point x="102" y="66" type="curve" smooth="yes"/>
      <point x="81" y="66"/>
      <point x="66" y="50"/>
      <point x="66" y="30" type="curve" smooth="yes"/>
      <point x="66" y="11"/>
      <point x="81" y="-6"/>
    </contour>
  </outline>
</glyph>
<glyph name="semicolon" format="2">
  <advance width="205"/>
  <unicode hex="003B"/>
  <outline>
    <contour>
      <point x="103" y="434" type="curve" smooth="yes"/>
      <point x="122" y="434"/>
      <point x="138" y="451"/>
      <point x="138" y="470" type="curve" smooth="yes"/>
      <point x="138" y="490"/>
      <point x="122" y="506"/>
      <point x="103" y="506" type="curve" smooth="yes"/>
      <point x="82" y="506"/>
      <point x="67" y="490"/>
      <point x="67" y="470" type="curve" smooth="yes"/>
      <point x="67" y="451"/>
      <point x="82" y="434"/>
    </contour>
    <contour>
      <point x="75" y="-101" type="curve" smooth="yes"/>
      <point x="116" y="-60"/>
      <point x="134" y="-13"/>
      <point x="135" y="11" type="curve" smooth="yes"/>
      <point x="136" y="39"/>
      <point x="131" y="67"/>
      <point x="104" y="67" type="curve" smooth="yes"/>
      <point x="83" y="67"/>
      <point x="70" y="51"/>
      <point x="70" y="30" type="curve" smooth="yes"/>
      <point x="70" y="9"/>
      <point x="87" y="4"/>
      <point x="87" y="-14" type="curve" smooth="yes"/>
      <point x="87" y="-44"/>
      <point x="53" y="-77"/>
      <point x="53" y="-93" type="curve" smooth="yes"/>
      <point x="53" y="-101"/>
      <point x="58" y="-107"/>
      <point x="64" y="-107" type="curve" smooth="yes"/>
      <point x="68" y="-107"/>
      <point x="71" y="-105"/>
    </contour>
  </outline>
</glyph>
<glyph name="less" format="2">
  <advance width="401"/>
  <unicode hex="003C"/>
  <outline>
    <contour>
      <point x="326" y="74" type="curve" smooth="yes"/>
      <point x="335" y="74"/>
      <point x="345" y="81"/>
      <point x="345" y="91" type="curve" smooth="yes"/>
      <point x="345" y="97"/>
      <point x="341" y="103"/>
      <point x="336" y="106" type="curve"/>
      <point x="78" y="277" type="line"/>
      <point x="336" y="449" type="line"/>
      <point x="341" y="452"/>
      <point x="345" y="458"/>
      <point x="345" y="464" type="curve" smooth="yes"/>
      <point x="345" y="474"/>
      <point x="335" y="481"/>
      <point x="326" y="481" type="curve" smooth="yes"/>
      <point x="323" y="481"/>
      <point x="320" y="480"/>
      <point x="317" y="478" type="curve" smooth="yes"/>
      <point x="42" y="296" type="line"/>
      <point x="38" y="293"/>
      <point x="32" y="285"/>
      <point x="32" y="277" type="curve" smooth="yes"/>
      <point x="32" y="269"/>
      <point x="37" y="262"/>
      <point x="42" y="259" type="curve"/>
      <point x="317" y="77" type="line" smooth="yes"/>
      <point x="320" y="75"/>
      <point x="323" y="74"/>
    </contour>
  </outline>
</glyph>
<glyph name="equal" format="2">
  <advance width="493"/>
  <unicode hex="003D"/>
  <outline>
    <contour>
      <point x="96" y="405" type="curve" smooth="yes"/>
      <point x="396" y="405" type="line" smooth="yes"/>
      <point x="405" y="405"/>
      <point x="414" y="412"/>
      <point x="414" y="422" type="curve" smooth="yes"/>
      <point x="414" y="432"/>
      <point x="405" y="440"/>
      <point x="396" y="440" type="curve" smooth="yes"/>
      <point x="96" y="440" type="line" smooth="yes"/>
      <point x="86" y="440"/>
      <point x="79" y="432"/>
      <point x="79" y="422" type="curve" smooth="yes"/>
      <point x="79" y="412"/>
      <point x="86" y="405"/>
    </contour>
    <contour>
      <point x="96" y="192" type="curve" smooth="yes"/>
      <point x="396" y="192" type="line" smooth="yes"/>
      <point x="405" y="192"/>
      <point x="414" y="199"/>
      <point x="414" y="209" type="curve" smooth="yes"/>
      <point x="414" y="219"/>
      <point x="405" y="227"/>
      <point x="396" y="227" type="curve" smooth="yes"/>
      <point x="96" y="227" type="line" smooth="yes"/>
      <point x="86" y="227"/>
      <point x="79" y="219"/>
      <point x="79" y="209" type="curve" smooth="yes"/>
      <point x="79" y="199"/>
      <point x="86" y="192"/>
    </contour>
  </outline>
</glyph>
<glyph name="greater" format="2">
  <advance width="401"/>
  <unicode hex="003E"/>
  <outline>
    <contour>
      <point x="75" y="74" type="curve" smooth="yes"/>
      <point x="78" y="74"/>
      <point x="81" y="75"/>
      <point x="84" y="77" type="curve" smooth="yes"/>
      <point x="359" y="259" type="line"/>
      <point x="364" y="262"/>
      <point x="369" y="269"/>
      <point x="369" y="277" type="curve" smooth="yes"/>
      <point x="369" y="285"/>
      <point x="363" y="293"/>
      <point x="359" y="296" type="curve"/>
      <point x="84" y="478" type="line" smooth="yes"/>
      <point x="81" y="480"/>
      <point x="78" y="481"/>
      <point x="75" y="481" type="curve" smooth="yes"/>
      <point x="66" y="481"/>
      <point x="56" y="474"/>
      <point x="56" y="464" type="curve" smooth="yes"/>
      <point x="56" y="458"/>
      <point x="60" y="452"/>
      <point x="65" y="449" type="curve"/>
      <point x="323" y="277" type="line"/>
      <point x="65" y="106" type="line"/>
      <point x="60" y="103"/>
      <point x="56" y="97"/>
      <point x="56" y="91" type="curve" smooth="yes"/>
      <point x="56" y="81"/>
      <point x="66" y="74"/>
    </contour>
  </outline>
</glyph>
<glyph name="question" format="2">
  <advance width="388"/>
  <unicode hex="003F"/>
  <outline>
    <contour>
      <point x="162" y="153" type="curve" smooth="yes"/>
      <point x="170" y="153"/>
      <point x="179" y="158"/>
      <point x="179" y="170" type="curve" smooth="yes"/>
      <point x="179" y="253"/>
      <point x="180" y="298"/>
      <point x="206" y="331" type="curve" smooth="yes"/>
      <point x="247" y="383"/>
      <point x="347" y="437"/>
      <point x="347" y="572" type="curve" smooth="yes"/>
      <point x="347" y="673"/>
      <point x="290" y="754"/>
      <point x="166" y="754" type="curve" smooth="yes"/>
      <point x="94" y="754"/>
      <point x="27" y="721"/>
      <point x="27" y="696" type="curve" smooth="yes"/>
      <point x="27" y="686"/>
      <point x="35" y="679"/>
      <point x="41" y="679" type="curve" smooth="yes"/>
      <point x="57" y="679"/>
      <point x="78" y="719"/>
      <point x="162" y="719" type="curve" smooth="yes"/>
      <point x="262" y="719"/>
      <point x="312" y="662"/>
      <point x="312" y="571" type="curve" smooth="yes"/>
      <point x="312" y="451"/>
      <point x="225" y="401"/>
      <point x="180" y="351" type="curve" smooth="yes"/>
      <point x="156" y="324"/>
      <point x="145" y="290"/>
      <point x="145" y="170" type="curve" smooth="yes"/>
      <point x="145" y="158"/>
      <point x="154" y="153"/>
    </contour>
    <contour>
      <point x="162" y="-6" type="curve" smooth="yes"/>
      <point x="182" y="-6"/>
      <point x="197" y="11"/>
      <point x="197" y="30" type="curve" smooth="yes"/>
      <point x="197" y="50"/>
      <point x="181" y="66"/>
      <point x="162" y="66" type="curve" smooth="yes"/>
      <point x="142" y="66"/>
      <point x="126" y="50"/>
      <point x="126" y="30" type="curve" smooth="yes"/>
      <point x="126" y="11"/>
      <point x="141" y="-6"/>
    </contour>
  </outline>
</glyph>
<glyph name="A" format="2">
  <advance width="535"/>
  <unicode hex="0041"/>
  <anchor x="268" y="0" name="bottom"/>
  <anchor x="508" y="0" name="ogonek"/>
  <anchor x="268" y="730" name="top"/>
  <outline>
    <contour>
      <point x="45" y="0" type="curve" smooth="yes"/>
      <point x="53" y="0"/>
      <point x="60" y="4"/>
      <point x="63" y="13" type="curve" smooth="yes"/>
      <point x="268" y="660" type="line"/>
      <point x="472" y="13" type="line"/>
      <point x="475" y="4"/>
      <point x="481" y="0"/>
      <point x="488" y="0" type="curve" smooth="yes"/>
      <point x="498" y="0"/>
      <point x="508" y="8"/>
      <point x="508" y="17" type="curve" smooth="yes"/>
      <point x="508" y="19"/>
      <point x="507" y="20"/>
      <point x="507" y="22" type="curve"/>
      <point x="287" y="722" type="line" smooth="yes"/>
      <point x="284" y="731"/>
      <point x="276" y="736"/>
      <point x="268" y="736" type="curve" smooth="yes"/>
      <point x="260" y="736"/>
      <point x="253" y="732"/>
      <point x="250" y="722" type="curve" smooth="yes"/>
      <point x="28" y="22" type="line"/>
      <point x="27" y="20"/>
      <point x="27" y="18"/>
      <point x="27" y="16" type="curve" smooth="yes"/>
      <point x="27" y="6"/>
      <point x="36" y="0"/>
    </contour>
    <contour>
      <point x="105" y="210" type="line"/>
      <point x="429" y="210" type="line"/>
      <point x="418" y="246" type="line"/>
      <point x="116" y="246" type="line"/>
    </contour>
  </outline>
</glyph>
<glyph name="B" format="2">
  <advance width="518"/>
  <unicode hex="0042"/>
  <anchor x="261" y="0" name="bottom"/>
  <anchor x="261" y="730" name="top"/>
  <outline>
    <contour>
      <point x="108" y="0" type="curve" smooth="yes"/>
      <point x="276" y="0" type="line" smooth="yes"/>
      <point x="380" y="0"/>
      <point x="461" y="50"/>
      <point x="461" y="193" type="curve" smooth="yes"/>
      <point x="461" y="210" type="line" smooth="yes"/>
      <point x="461" y="313"/>
      <point x="422" y="360"/>
      <point x="364" y="386" type="curve"/>
      <point x="412" y="408"/>
      <point x="444" y="468"/>
      <point x="444" y="555" type="curve" smooth="yes"/>
      <point x="444" y="702"/>
      <point x="360" y="730"/>
      <point x="250" y="730" type="curve" smooth="yes"/>
      <point x="108" y="730" type="line" smooth="yes"/>
      <point x="99" y="730"/>
      <point x="90" y="724"/>
      <point x="90" y="712" type="curve" smooth="yes"/>
      <point x="90" y="17" type="line" smooth="yes"/>
      <point x="90" y="8"/>
      <point x="97" y="0"/>
    </contour>
    <contour>
      <point x="126" y="36" type="line"/>
      <point x="126" y="368" type="line"/>
      <point x="275" y="368" type="line" smooth="yes"/>
      <point x="369" y="368"/>
      <point x="425" y="326"/>
      <point x="425" y="210" type="curve" smooth="yes"/>
      <point x="425" y="193" type="line" smooth="yes"/>
      <point x="425" y="84"/>
      <point x="369" y="36"/>
      <point x="275" y="36" type="curve" smooth="yes"/>
    </contour>
    <contour>
      <point x="126" y="404" type="line"/>
      <point x="126" y="694" type="line"/>
      <point x="252" y="694" type="line" smooth="yes"/>
      <point x="343" y="694"/>
      <point x="408" y="673"/>
      <point x="408" y="555" type="curve" smooth="yes"/>
      <point x="408" y="438"/>
      <point x="359" y="404"/>
      <point x="257" y="404" type="curve" smooth="yes"/>
    </contour>
  </outline>
</glyph>
<glyph name="C" format="2">
  <advance width="514"/>
  <unicode hex="0043"/>
  <anchor x="284" y="0" name="bottom"/>
  <anchor x="283" y="730" name="top"/>
  <outline>
    <contour>
      <point x="279" y="-6" type="curve" smooth="yes"/>
      <point x="405" y="-6"/>
      <point x="465" y="66"/>
      <point x="465" y="155" type="curve" smooth="yes"/>
      <point x="465" y="181"/>
      <point x="460" y="187"/>
      <point x="447" y="187" type="curve" smooth="yes"/>
      <point x="431" y="187"/>
      <point x="429" y="177"/>
      <point x="429" y="169" type="curve" smooth="yes"/>
      <point x="429" y="109"/>
      <point x="415" y="30"/>
      <point x="281" y="30" type="curve" smooth="yes"/>
      <point x="173" y="30"/>
      <point x="118" y="82"/>
      <point x="118" y="200" type="curve" smooth="yes"/>
      <point x="118" y="530" type="line" smooth="yes"/>
      <point x="118" y="650"/>
      <point x="173" y="700"/>
      <point x="282" y="700" type="curve" smooth="yes"/>
      <point x="415" y="700"/>
      <point x="429" y="626"/>
      <point x="429" y="566" type="curve" smooth="yes"/>
      <point x="429" y="558"/>
      <point x="431" y="544"/>
      <point x="448" y="544" type="curve" smooth="yes"/>
      <point x="461" y="544"/>
      <point x="465" y="551"/>
      <point x="465" y="576" type="curve" smooth="yes"/>
      <point x="465" y="659"/>
      <point x="419" y="736"/>
      <point x="284" y="736" type="curve" smooth="yes"/>
      <point x="168" y="736"/>
      <point x="82" y="680"/>
      <point x="82" y="530" type="curve" smooth="yes"/>
      <point x="82" y="200" type="line" smooth="yes"/>
      <point x="82" y="50"/>
      <point x="168" y="-6"/>
    </contour>
  </outline>
</glyph>
<glyph name="D" format="2">
  <advance width="573"/>
  <unicode hex="0044"/>
  <anchor x="287" y="0" name="bottom"/>
  <anchor x="287" y="365" name="center"/>
  <anchor x="287" y="730" name="top"/>
  <outline>
    <contour>
      <point x="108" y="0" type="curve" smooth="yes"/>
      <point x="255" y="0" type="line" smooth="yes"/>
      <point x="387" y="0"/>
      <point x="491" y="67"/>
      <point x="491" y="246" type="curve" smooth="yes"/>
      <point x="491" y="484" type="line" smooth="yes"/>
      <point x="491" y="663"/>
      <point x="387" y="730"/>
      <point x="255" y="730" type="curve" smooth="yes"/>
      <point x="108" y="730" type="line" smooth="yes"/>
      <point x="97" y="730"/>
      <point x="90" y="722"/>
      <point x="90" y="713" type="curve" smooth="yes"/>
      <point x="90" y="17" type="line" smooth="yes"/>
      <point x="90" y="8"/>
      <point x="97" y="0"/>
    </contour>
    <contour>
      <point x="126" y="36" type="line"/>
      <point x="126" y="694" type="line"/>
      <point x="255" y="694" type="line" smooth="yes"/>
      <point x="380" y="694"/>
      <point x="455" y="627"/>
      <point x="455" y="484" type="curve" smooth="yes"/>
      <point x="455" y="246" type="line" smooth="yes"/>
      <point x="455" y="103"/>
      <point x="380" y="36"/>
      <point x="255" y="36" type="curve" smooth="yes"/>
    </contour>
  </outline>
</glyph>
<glyph name="E" format="2">
  <advance width="464"/>
  <unicode hex="0045"/>
  <anchor x="266" y="0" name="bottom"/>
  <anchor x="438" y="-1" name="ogonek"/>
  <anchor x="266" y="730" name="top"/>
  <anchor x="27" y="730" name="topleft"/>
  <outline>
    <contour>
      <point x="108" y="0" type="curve" smooth="yes"/>
      <point x="422" y="0" type="line" smooth="yes"/>
      <point x="433" y="0"/>
      <point x="438" y="9"/>
      <point x="438" y="17" type="curve" smooth="yes"/>
      <point x="438" y="27"/>
      <point x="432" y="36"/>
      <point x="422" y="36" type="curve" smooth="yes"/>
      <point x="126" y="36" type="line"/>
      <point x="126" y="348" type="line"/>
      <point x="310" y="348" type="line" smooth="yes"/>
      <point x="322" y="348"/>
      <point x="326" y="357"/>
      <point x="326" y="365" type="curve" smooth="yes"/>
      <point x="326" y="375"/>
      <point x="321" y="384"/>
      <point x="310" y="384" type="curve" smooth="yes"/>
      <point x="126" y="384" type="line"/>
      <point x="126" y="694" type="line"/>
      <point x="422" y="694" type="line" smooth="yes"/>
      <point x="432" y="694"/>
      <point x="438" y="703"/>
      <point x="438" y="713" type="curve" smooth="yes"/>
      <point x="438" y="721"/>
      <point x="433" y="730"/>
      <point x="422" y="730" type="curve" smooth="yes"/>
      <point x="108" y="730" type="line" smooth="yes"/>
      <point x="99" y="730"/>
      <point x="90" y="724"/>
      <point x="90" y="712" type="curve" smooth="yes"/>
      <point x="90" y="18" type="line" smooth="yes"/>
      <point x="90" y="6"/>
      <point x="99" y="0"/>
    </contour>
  </outline>
</glyph>
<glyph name="F" format="2">
  <advance width="441"/>
  <unicode hex="0046"/>
  <anchor x="224" y="0" name="bottom"/>
  <anchor x="224" y="730" name="top"/>
  <outline>
    <contour>
      <point x="108" y="0" type="curve" smooth="yes"/>
      <point x="117" y="0"/>
      <point x="126" y="5"/>
      <point x="126" y="17" type="curve" smooth="yes"/>
      <point x="126" y="348" type="line"/>
      <point x="289" y="348" type="line" smooth="yes"/>
      <point x="301" y="348"/>
      <point x="305" y="357"/>
      <point x="305" y="365" type="curve" smooth="yes"/>
      <point x="305" y="375"/>
      <point x="300" y="384"/>
      <point x="289" y="384" type="curve" smooth="yes"/>
      <point x="126" y="384" type="line"/>
      <point x="126" y="694" type="line"/>
      <point x="409" y="694" type="line" smooth="yes"/>
      <point x="419" y="694"/>
      <point x="425" y="703"/>
      <point x="425" y="713" type="curve" smooth="yes"/>
      <point x="425" y="721"/>
      <point x="420" y="730"/>
      <point x="409" y="730" type="curve" smooth="yes"/>
      <point x="108" y="730" type="line" smooth="yes"/>
      <point x="99" y="730"/>
      <point x="90" y="724"/>
      <point x="90" y="712" type="curve" smooth="yes"/>
      <point x="90" y="17" type="line" smooth="yes"/>
      <point x="90" y="5"/>
      <point x="99" y="0"/>
    </contour>
  </outline>
</glyph>
<glyph name="G" format="2">
  <advance width="554"/>
  <unicode hex="0047"/>
  <anchor x="278" y="0" name="bottom"/>
  <anchor x="278" y="730" name="top"/>
  <outline>
    <contour>
      <point x="283" y="-6" type="curve" smooth="yes"/>
      <point x="396" y="-6"/>
      <point x="485" y="50"/>
      <point x="485" y="200" type="curve" smooth="yes"/>
      <point x="485" y="365" type="line" smooth="yes"/>
      <point x="485" y="375"/>
      <point x="479" y="384"/>
      <point x="468" y="384" type="curve" smooth="yes"/>
      <point x="284" y="384" type="line" smooth="yes"/>
      <point x="273" y="384"/>
      <point x="266" y="375"/>
      <point x="266" y="366" type="curve" smooth="yes"/>
      <point x="266" y="357"/>
      <point x="273" y="348"/>
      <point x="284" y="348" type="curve" smooth="yes"/>
      <point x="449" y="348" type="line"/>
      <point x="449" y="200" type="line" smooth="yes"/>
      <point x="449" y="84"/>
      <point x="387" y="30"/>
      <point x="283" y="30" type="curve" smooth="yes"/>
      <point x="179" y="30"/>
      <point x="118" y="84"/>
      <point x="118" y="200" type="curve" smooth="yes"/>
      <point x="118" y="530" type="line" smooth="yes"/>
      <point x="118" y="646"/>
      <point x="184" y="700"/>
      <point x="297" y="700" type="curve" smooth="yes"/>
      <point x="380" y="700"/>
      <point x="442" y="659"/>
      <point x="449" y="569" type="curve" smooth="yes"/>
      <point x="450" y="556"/>
      <point x="458" y="551"/>
      <point x="467" y="551" type="curve" smooth="yes"/>
      <point x="476" y="551"/>
      <point x="485" y="557"/>
      <point x="485" y="571" type="curve" smooth="yes"/>
      <point x="485" y="663"/>
      <point x="415" y="736"/>
      <point x="297" y="736" type="curve" smooth="yes"/>
      <point x="176" y="736"/>
      <point x="82" y="680"/>
      <point x="82" y="530" type="curve" smooth="yes"/>
      <point x="82" y="200" type="line" smooth="yes"/>
      <point x="82" y="50"/>
      <point x="170" y="-6"/>
    </contour>
  </outline>
</glyph>
<glyph name="H" format="2">
  <advance width="581"/>
  <unicode hex="0048"/>
  <anchor x="291" y="0" name="bottom"/>
  <anchor x="291" y="365" name="center"/>
  <anchor x="291" y="730" name="top"/>
  <anchor x="27" y="730" name="topleft"/>
  <outline>
    <contour>
      <point x="108" y="0" type="curve" smooth="yes"/>
      <point x="117" y="0"/>
      <point x="126" y="6"/>
      <point x="126" y="18" type="curve" smooth="yes"/>
      <point x="126" y="361" type="line"/>
      <point x="455" y="361" type="line"/>
      <point x="455" y="18" type="line" smooth="yes"/>
      <point x="455" y="6"/>
      <point x="464" y="0"/>
      <point x="473" y="0" type="curve" smooth="yes"/>
      <point x="482" y="0"/>
      <point x="491" y="6"/>
      <point x="491" y="18" type="curve" smooth="yes"/>
      <point x="491" y="713" type="line" smooth="yes"/>
      <point x="491" y="725"/>
      <point x="482" y="730"/>
      <point x="473" y="730" type="curve" smooth="yes"/>
      <point x="464" y="730"/>
      <point x="455" y="725"/>
      <point x="455" y="713" type="curve" smooth="yes"/>
      <point x="455" y="397" type="line"/>
      <point x="126" y="397" type="line"/>
      <point x="126" y="713" type="line" smooth="yes"/>
      <point x="126" y="725"/>
      <point x="117" y="730"/>
      <point x="108" y="730" type="curve" smooth="yes"/>
      <point x="99" y="730"/>
      <point x="90" y="725"/>
      <point x="90" y="713" type="curve" smooth="yes"/>
      <point x="90" y="18" type="line" smooth="yes"/>
      <point x="90" y="6"/>
      <point x="99" y="0"/>
    </contour>
  </outline>
</glyph>
<glyph name="I" format="2">
  <advance width="216"/>
  <unicode hex="0049"/>
  <anchor x="108" y="0" name="bottom"/>
  <anchor x="126" y="0" name="ogonek"/>
  <anchor x="108" y="730" name="top"/>
  <anchor x="27" y="730" name="topleft"/>
  <outline>
    <contour>
      <point x="108" y="0" type="curve" smooth="yes"/>
      <point x="117" y="0"/>
      <point x="126" y="6"/>
      <point x="126" y="18" type="curve" smooth="yes"/>
      <point x="126" y="713" type="line" smooth="yes"/>
      <point x="126" y="725"/>
      <point x="117" y="730"/>
      <point x="108" y="730" type="curve" smooth="yes"/>
      <point x="99" y="730"/>
      <point x="90" y="725"/>
      <point x="90" y="713" type="curve" smooth="yes"/>
      <point x="90" y="18" type="line" smooth="yes"/>
      <point x="90" y="6"/>
      <point x="99" y="0"/>
    </contour>
  </outline>
</glyph>
<glyph name="J" format="2">
  <advance width="464"/>
  <unicode hex="004A"/>
  <anchor x="230" y="0" name="bottom"/>
  <anchor x="280" y="730" name="top"/>
  <outline>
    <contour>
      <point x="204" y="-6" type="curve" smooth="yes"/>
      <point x="303" y="-6"/>
      <point x="379" y="50"/>
      <point x="379" y="200" type="curve" smooth="yes"/>
      <point x="379" y="712" type="line" smooth="yes"/>
      <point x="379" y="724"/>
      <point x="370" y="730"/>
      <point x="361" y="730" type="curve" smooth="yes"/>
      <point x="204" y="730" type="line" smooth="yes"/>
      <point x="193" y="730"/>
      <point x="188" y="721"/>
      <point x="188" y="713" type="curve" smooth="yes"/>
      <point x="188" y="703"/>
      <point x="194" y="694"/>
      <point x="204" y="694" type="curve" smooth="yes"/>
      <point x="343" y="694" type="line"/>
      <point x="343" y="200" type="line" smooth="yes"/>
      <point x="343" y="84"/>
      <point x="291" y="30"/>
      <point x="204" y="30" type="curve" smooth="yes"/>
      <point x="126" y="30"/>
      <point x="64" y="72"/>
      <point x="64" y="161" type="curve" smooth="yes"/>
      <point x="63" y="173"/>
      <point x="54" y="179"/>
      <point x="45" y="179" type="curve" smooth="yes"/>
      <point x="36" y="179"/>
      <point x="28" y="173"/>
      <point x="28" y="159" type="curve" smooth="yes"/>
      <point x="28" y="67"/>
      <point x="94" y="-6"/>
    </contour>
  </outline>
</glyph>
<glyph name="K" format="2">
  <advance width="516"/>
  <unicode hex="004B"/>
  <guideline x="133" y="486" angle="0"/>
  <guideline x="133" y="243" angle="0"/>
  <anchor x="261" y="0" name="bottom"/>
  <anchor x="261" y="730" name="top"/>
  <outline>
    <contour>
      <point x="119" y="248" type="line"/>
      <point x="477" y="701" type="line"/>
      <point x="480" y="704"/>
      <point x="481" y="708"/>
      <point x="481" y="711" type="curve" smooth="yes"/>
      <point x="481" y="721"/>
      <point x="472" y="730"/>
      <point x="463" y="730" type="curve" smooth="yes"/>
      <point x="458" y="730"/>
      <point x="452" y="728"/>
      <point x="449" y="724" type="curve" smooth="yes"/>
      <point x="119" y="305" type="line"/>
    </contour>
    <contour>
      <point x="108" y="0" type="curve" smooth="yes"/>
      <point x="117" y="0"/>
      <point x="126" y="6"/>
      <point x="126" y="18" type="curve" smooth="yes"/>
      <point x="126" y="713" type="line" smooth="yes"/>
      <point x="126" y="725"/>
      <point x="117" y="730"/>
      <point x="108" y="730" type="curve" smooth="yes"/>
      <point x="99" y="730"/>
      <point x="90" y="725"/>
      <point x="90" y="713" type="curve" smooth="yes"/>
      <point x="90" y="18" type="line" smooth="yes"/>
      <point x="90" y="6"/>
      <point x="99" y="0"/>
    </contour>
    <contour>
      <point x="488" y="0" type="curve" smooth="yes"/>
      <point x="498" y="0"/>
      <point x="507" y="8"/>
      <point x="507" y="18" type="curve" smooth="yes"/>
      <point x="507" y="21"/>
      <point x="506" y="24"/>
      <point x="504" y="27" type="curve" smooth="yes"/>
      <point x="230" y="406" type="line"/>
      <point x="206" y="377" type="line"/>
      <point x="473" y="9" type="line" smooth="yes"/>
      <point x="477" y="3"/>
      <point x="483" y="0"/>
    </contour>
  </outline>
</glyph>
<glyph name="L" format="2">
  <advance width="424"/>
  <unicode hex="004C"/>
  <anchor x="215" y="0" name="bottom"/>
  <anchor x="215" y="365" name="center"/>
  <anchor x="215" y="730" name="top"/>
  <anchor x="403" y="730" name="topright"/>
  <outline>
    <contour>
      <point x="108" y="0" type="curve" smooth="yes"/>
      <point x="394" y="0" type="line" smooth="yes"/>
      <point x="404" y="0"/>
      <point x="409" y="9"/>
      <point x="409" y="18" type="curve" smooth="yes"/>
      <point x="409" y="27"/>
      <point x="404" y="36"/>
      <point x="394" y="36" type="curve" smooth="yes"/>
      <point x="126" y="36" type="line"/>
      <point x="126" y="713" type="line" smooth="yes"/>
      <point x="126" y="725"/>
      <point x="117" y="730"/>
      <point x="108" y="730" type="curve" smooth="yes"/>
      <point x="99" y="730"/>
      <point x="90" y="725"/>
      <point x="90" y="713" type="curve" smooth="yes"/>
      <point x="90" y="18" type="line" smooth="yes"/>
      <point x="90" y="6"/>
      <point x="99" y="0"/>
    </contour>
  </outline>
</glyph>
<glyph name="M" format="2">
  <advance width="675"/>
  <unicode hex="004D"/>
  <anchor x="338" y="0" name="bottom"/>
  <anchor x="338" y="730" name="top"/>
  <outline>
    <contour>
      <point x="108" y="0" type="curve" smooth="yes"/>
      <point x="117" y="0"/>
      <point x="126" y="6"/>
      <point x="126" y="18" type="curve" smooth="yes"/>
      <point x="126" y="645" type="line"/>
      <point x="318" y="279" type="line" smooth="yes"/>
      <point x="324" y="268"/>
      <point x="330" y="264"/>
      <point x="337" y="264" type="curve" smooth="yes"/>
      <point x="345" y="264"/>
      <point x="350" y="269"/>
      <point x="355" y="279" type="curve" smooth="yes"/>
      <point x="549" y="645" type="line"/>
      <point x="549" y="18" type="line" smooth="yes"/>
      <point x="549" y="6"/>
      <point x="558" y="0"/>
      <point x="567" y="0" type="curve" smooth="yes"/>
      <point x="576" y="0"/>
      <point x="585" y="6"/>
      <point x="585" y="18" type="curve" smooth="yes"/>
      <point x="585" y="708" type="line" smooth="yes"/>
      <point x="585" y="722"/>
      <point x="577" y="730"/>
      <point x="567" y="730" type="curve" smooth="yes"/>
      <point x="555" y="730"/>
      <point x="547" y="716"/>
      <point x="536" y="695" type="curve" smooth="yes"/>
      <point x="337" y="313" type="line"/>
      <point x="139" y="695" type="line" smooth="yes"/>
      <point x="132" y="708"/>
      <point x="123" y="730"/>
      <point x="107" y="730" type="curve" smooth="yes"/>
      <point x="98" y="730"/>
      <point x="90" y="724"/>
      <point x="90" y="710" type="curve" smooth="yes"/>
      <point x="90" y="18" type="line" smooth="yes"/>
      <point x="90" y="6"/>
      <point x="99" y="0"/>
    </contour>
  </outline>
</glyph>
<glyph name="O" format="2">
  <advance width="567"/>
  <unicode hex="004F"/>
  <anchor x="283" y="0" name="bottom"/>
  <anchor x="283" y="365" name="center"/>
  <anchor x="323" y="0" name="ogonek"/>
  <anchor x="283" y="730" name="top"/>
  <anchor x="26" y="730" name="topleft"/>
  <anchor x="541" y="730" name="topright"/>
  <outline>
    <contour>
      <point x="283" y="-6" type="curve" smooth="yes"/>
      <point x="396" y="-6"/>
      <point x="485" y="50"/>
      <point x="485" y="200" type="curve" smooth="yes"/>
      <point x="485" y="530" type="line" smooth="yes"/>
      <point x="485" y="680"/>
      <point x="396" y="736"/>
      <point x="283" y="736" type="curve" smooth="yes"/>
      <point x="170" y="736"/>
      <point x="82" y="680"/>
      <point x="82" y="530" type="curve" smooth="yes"/>
      <point x="82" y="200" type="line" smooth="yes"/>
      <point x="82" y="50"/>
      <point x="170" y="-6"/>
    </contour>
    <contour>
      <point x="283" y="30" type="curve" smooth="yes"/>
      <point x="179" y="30"/>
      <point x="118" y="84"/>
      <point x="118" y="200" type="curve" smooth="yes"/>
      <point x="118" y="530" type="line" smooth="yes"/>
      <point x="118" y="646"/>
      <point x="179" y="700"/>
      <point x="283" y="700" type="curve" smooth="yes"/>
      <point x="387" y="700"/>
      <point x="449" y="646"/>
      <point x="449" y="530" type="curve" smooth="yes"/>
      <point x="449" y="200" type="line" smooth="yes"/>
      <point x="449" y="84"/>
      <point x="387" y="30"/>
    </contour>
  </outline>
</glyph>
<glyph name="P" format="2">
  <advance width="493"/>
  <unicode hex="0050"/>
  <anchor x="249" y="0" name="bottom"/>
  <anchor x="249" y="730" name="top"/>
  <outline>
    <contour>
      <point x="108" y="0" type="curve" smooth="yes"/>
      <point x="117" y="0"/>
      <point x="126" y="6"/>
      <point x="126" y="18" type="curve" smooth="yes"/>
      <point x="126" y="305" type="line"/>
      <point x="269" y="305" type="line" smooth="yes"/>
      <point x="372" y="305"/>
      <point x="451" y="362"/>
      <point x="451" y="512" type="curve" smooth="yes"/>
      <point x="451" y="524" type="line" smooth="yes"/>
      <point x="451" y="674"/>
      <point x="372" y="730"/>
      <point x="270" y="730" type="curve" smooth="yes"/>
      <point x="107" y="730" type="line"/>
      <point x="97" y="729"/>
      <point x="90" y="722"/>
      <point x="90" y="713" type="curve" smooth="yes"/>
      <point x="90" y="18" type="line" smooth="yes"/>
      <point x="90" y="6"/>
      <point x="99" y="0"/>
    </contour>
    <contour>
      <point x="126" y="341" type="line"/>
      <point x="126" y="694" type="line"/>
      <point x="269" y="694" type="line" smooth="yes"/>
      <point x="361" y="694"/>
      <point x="415" y="640"/>
      <point x="415" y="524" type="curve" smooth="yes"/>
      <point x="415" y="512" type="line" smooth="yes"/>
      <point x="415" y="396"/>
      <point x="361" y="341"/>
      <point x="269" y="341" type="curve" smooth="yes"/>
    </contour>
  </outline>
</glyph>
<glyph name="Q" format="2">
  <advance width="561"/>
  <unicode hex="0051"/>
  <anchor x="278" y="0" name="bottom"/>
  <anchor x="278" y="730" name="top"/>
  <outline>
    <contour>
      <point x="278" y="-109" type="curve" smooth="yes"/>
      <point x="287" y="-109"/>
      <point x="296" y="-103"/>
      <point x="296" y="-91" type="curve" smooth="yes"/>
      <point x="296" y="114" type="line" smooth="yes"/>
      <point x="296" y="126"/>
      <point x="287" y="131"/>
      <point x="278" y="131" type="curve" smooth="yes"/>
      <point x="269" y="131"/>
      <point x="260" y="126"/>
      <point x="260" y="114" type="curve" smooth="yes"/>
      <point x="260" y="-91" type="line" smooth="yes"/>
      <point x="260" y="-103"/>
      <point x="269" y="-109"/>
    </contour>
    <component base="O"/>
  </outline>
</glyph>
<glyph name="R" format="2">
  <advance width="509"/>
  <unicode hex="0052"/>
  <anchor x="257" y="0" name="bottom"/>
  <anchor x="257" y="730" name="top"/>
  <outline>
    <contour>
      <point x="108" y="0" type="curve" smooth="yes"/>
      <point x="117" y="0"/>
      <point x="126" y="6"/>
      <point x="126" y="18" type="curve" smooth="yes"/>
      <point x="126" y="347" type="line"/>
      <point x="268" y="347" type="line" smooth="yes"/>
      <point x="369" y="347"/>
      <point x="471" y="398"/>
      <point x="471" y="543" type="curve" smooth="yes"/>
      <point x="471" y="682"/>
      <point x="378" y="730"/>
      <point x="270" y="730" type="curve" smooth="yes"/>
      <point x="108" y="730" type="line" smooth="yes"/>
      <point x="97" y="729"/>
      <point x="90" y="722"/>
      <point x="90" y="713" type="curve" smooth="yes"/>
      <point x="90" y="18" type="line" smooth="yes"/>
      <point x="90" y="6"/>
      <point x="99" y="0"/>
    </contour>
    <contour>
      <point x="457" y="0" type="curve" smooth="yes"/>
      <point x="463" y="0"/>
      <point x="471" y="5"/>
      <point x="471" y="16" type="curve" smooth="yes"/>
      <point x="471" y="21"/>
      <point x="469" y="27"/>
      <point x="465" y="34" type="curve" smooth="yes"/>
      <point x="285" y="359" type="line"/>
      <point x="249" y="357" type="line"/>
      <point x="423" y="35" type="line" smooth="yes"/>
      <point x="431" y="21"/>
      <point x="445" y="0"/>
    </contour>
    <contour>
      <point x="126" y="381" type="line"/>
      <point x="126" y="694" type="line"/>
      <point x="270" y="694" type="line" smooth="yes"/>
      <point x="367" y="694"/>
      <point x="435" y="650"/>
      <point x="435" y="539" type="curve" smooth="yes"/>
      <point x="435" y="428"/>
      <point x="367" y="381"/>
      <point x="270" y="381" type="curve" smooth="yes"/>
    </contour>
  </outline>
</glyph>
<glyph name="S" format="2">
  <advance width="459"/>
  <unicode hex="0053"/>
  <anchor x="229" y="0" name="bottom"/>
  <anchor x="239" y="730" name="top"/>
  <outline>
    <contour>
      <point x="218" y="-6" type="curve" smooth="yes"/>
      <point x="327" y="-6"/>
      <point x="407" y="55"/>
      <point x="407" y="193" type="curve" smooth="yes"/>
      <point x="407" y="463"/>
      <point x="104" y="343"/>
      <point x="104" y="564" type="curve" smooth="yes"/>
      <point x="104" y="673"/>
      <point x="178" y="701"/>
      <point x="249" y="701" type="curve" smooth="yes"/>
      <point x="341" y="701"/>
      <point x="364" y="651"/>
      <point x="379" y="651" type="curve" smooth="yes"/>
      <point x="388" y="651"/>
      <point x="395" y="664"/>
      <point x="395" y="672" type="curve" smooth="yes"/>
      <point x="395" y="694"/>
      <point x="336" y="736"/>
      <point x="250" y="736" type="curve" smooth="yes"/>
      <point x="180" y="736"/>
      <point x="69" y="707"/>
      <point x="69" y="559" type="curve" smooth="yes"/>
      <point x="69" y="314"/>
      <point x="372" y="435"/>
      <point x="372" y="190" type="curve" smooth="yes"/>
      <point x="372" y="88"/>
      <point x="317" y="29"/>
      <point x="224" y="29" type="curve" smooth="yes"/>
      <point x="93" y="29"/>
      <point x="79" y="107"/>
      <point x="63" y="107" type="curve" smooth="yes"/>
      <point x="53" y="107"/>
      <point x="45" y="96"/>
      <point x="45" y="86" type="curve" smooth="yes"/>
      <point x="45" y="58"/>
      <point x="104" y="-6"/>
    </contour>
  </outline>
</glyph>
<glyph name="T" format="2">
  <advance width="457"/>
  <unicode hex="0054"/>
  <anchor x="229" y="0" name="bottom"/>
  <anchor x="229" y="365" name="center"/>
  <anchor x="229" y="730" name="top"/>
  <outline>
    <contour>
      <point x="229" y="0" type="curve" smooth="yes"/>
      <point x="238" y="0"/>
      <point x="247" y="6"/>
      <point x="247" y="18" type="curve" smooth="yes"/>
      <point x="247" y="694" type="line"/>
      <point x="424" y="694" type="line" smooth="yes"/>
      <point x="437" y="694"/>
      <point x="442" y="704"/>
      <point x="442" y="713" type="curve" smooth="yes"/>
      <point x="442" y="722"/>
      <point x="436" y="730"/>
      <point x="424" y="730" type="curve" smooth="yes"/>
      <point x="33" y="730" type="line" smooth="yes"/>
      <point x="22" y="730"/>
      <point x="15" y="721"/>
      <point x="15" y="712" type="curve" smooth="yes"/>
      <point x="15" y="703"/>
      <point x="22" y="694"/>
      <point x="33" y="694" type="curve" smooth="yes"/>
      <point x="211" y="694" type="line"/>
      <point x="211" y="18" type="line" smooth="yes"/>
      <point x="211" y="6"/>
      <point x="220" y="0"/>
    </contour>
  </outline>
</glyph>
<glyph name="U" format="2">
  <advance width="573"/>
  <unicode hex="0055"/>
  <anchor x="285" y="0" name="bottom"/>
  <anchor x="311" y="0" name="ogonek"/>
  <anchor x="285" y="730" name="top"/>
  <anchor x="547" y="730" name="topright"/>
  <outline>
    <contour>
      <point x="286" y="-6" type="curve" smooth="yes"/>
      <point x="399" y="-6"/>
      <point x="488" y="50"/>
      <point x="488" y="200" type="curve" smooth="yes"/>
      <point x="488" y="713" type="line" smooth="yes"/>
      <point x="488" y="725"/>
      <point x="479" y="730"/>
      <point x="470" y="730" type="curve" smooth="yes"/>
      <point x="461" y="730"/>
      <point x="452" y="725"/>
      <point x="452" y="713" type="curve" smooth="yes"/>
      <point x="452" y="200" type="line" smooth="yes"/>
      <point x="452" y="84"/>
      <point x="390" y="30"/>
      <point x="286" y="30" type="curve" smooth="yes"/>
      <point x="182" y="30"/>
      <point x="121" y="84"/>
      <point x="121" y="200" type="curve" smooth="yes"/>
      <point x="121" y="713" type="line" smooth="yes"/>
      <point x="121" y="725"/>
      <point x="112" y="730"/>
      <point x="103" y="730" type="curve" smooth="yes"/>
      <point x="94" y="730"/>
      <point x="85" y="725"/>
      <point x="85" y="713" type="curve" smooth="yes"/>
      <point x="85" y="200" type="line" smooth="yes"/>
      <point x="85" y="50"/>
      <point x="173" y="-6"/>
    </contour>
  </outline>
</glyph>
<glyph name="V" format="2">
  <advance width="523"/>
  <unicode hex="0056"/>
  <anchor x="262" y="0" name="bottom"/>
  <anchor x="262" y="730" name="top"/>
  <outline>
    <contour>
      <point x="262" y="-6" type="curve" smooth="yes"/>
      <point x="270" y="-6"/>
      <point x="278" y="-1"/>
      <point x="281" y="8" type="curve" smooth="yes"/>
      <point x="496" y="714" type="line"/>
      <point x="496" y="716"/>
      <point x="497" y="717"/>
      <point x="497" y="719" type="curve" smooth="yes"/>
      <point x="497" y="728"/>
      <point x="487" y="736"/>
      <point x="477" y="736" type="curve" smooth="yes"/>
      <point x="470" y="736"/>
      <point x="464" y="732"/>
      <point x="461" y="723" type="curve" smooth="yes"/>
      <point x="262" y="70" type="line"/>
      <point x="62" y="723" type="line" smooth="yes"/>
      <point x="59" y="732"/>
      <point x="52" y="736"/>
      <point x="44" y="736" type="curve" smooth="yes"/>
      <point x="35" y="736"/>
      <point x="26" y="730"/>
      <point x="26" y="720" type="curve" smooth="yes"/>
      <point x="26" y="718"/>
      <point x="26" y="716"/>
      <point x="27" y="714" type="curve"/>
      <point x="244" y="8" type="line" smooth="yes"/>
      <point x="247" y="-2"/>
      <point x="254" y="-6"/>
    </contour>
  </outline>
</glyph>
<glyph name="W" format="2">
  <advance width="803"/>
  <unicode hex="0057"/>
  <anchor x="402" y="0" name="bottom"/>
  <anchor x="402" y="730" name="top"/>
  <outline>
    <contour>
      <point x="235" y="-6" type="curve" smooth="yes"/>
      <point x="244" y="-6"/>
      <point x="251" y="-1"/>
      <point x="254" y="8" type="curve"/>
      <point x="402" y="631" type="line"/>
      <point x="549" y="8" type="line"/>
      <point x="551" y="-2"/>
      <point x="559" y="-6"/>
      <point x="567" y="-6" type="curve" smooth="yes"/>
      <point x="576" y="-6"/>
      <point x="581" y="-1"/>
      <point x="584" y="8" type="curve"/>
      <point x="774" y="715" type="line"/>
      <point x="775" y="718"/>
      <point x="775" y="719"/>
      <point x="775" y="721" type="curve" smooth="yes"/>
      <point x="775" y="732"/>
      <point x="767" y="737"/>
      <point x="758" y="737" type="curve" smooth="yes"/>
      <point x="750" y="737"/>
      <point x="741" y="732"/>
      <point x="739" y="724" type="curve" smooth="yes"/>
      <point x="567" y="74" type="line"/>
      <point x="424" y="691" type="line" smooth="yes"/>
      <point x="421" y="705"/>
      <point x="413" y="708"/>
      <point x="403" y="708" type="curve" smooth="yes"/>
      <point x="393" y="708"/>
      <point x="384" y="705"/>
      <point x="381" y="691" type="curve" smooth="yes"/>
      <point x="235" y="74" type="line"/>
      <point x="64" y="724" type="line" smooth="yes"/>
      <point x="62" y="732"/>
      <point x="53" y="737"/>
      <point x="45" y="737" type="curve" smooth="yes"/>
      <point x="36" y="737"/>
      <point x="28" y="732"/>
      <point x="28" y="721" type="curve" smooth="yes"/>
      <point x="28" y="719"/>
      <point x="28" y="718"/>
      <point x="29" y="715" type="curve"/>
      <point x="219" y="8" type="line"/>
      <point x="221" y="-2"/>
      <point x="227" y="-6"/>
    </contour>
  </outline>
</glyph>
<glyph name="X" format="2">
  <advance width="491"/>
  <unicode hex="0058"/>
  <anchor x="246" y="0" name="bottom"/>
  <anchor x="246" y="730" name="top"/>
  <outline>
    <contour>
      <point x="47" y="0" type="curve" smooth="yes"/>
      <point x="63" y="0"/>
      <point x="71" y="22"/>
      <point x="79" y="36" type="curve" smooth="yes"/>
      <point x="245" y="327" type="line"/>
      <point x="411" y="36" type="line" smooth="yes"/>
      <point x="419" y="22"/>
      <point x="428" y="0"/>
      <point x="444" y="0" type="curve" smooth="yes"/>
      <point x="454" y="0"/>
      <point x="461" y="8"/>
      <point x="461" y="17" type="curve" smooth="yes"/>
      <point x="461" y="21"/>
      <point x="460" y="25"/>
      <point x="450" y="43" type="curve" smooth="yes"/>
      <point x="264" y="366" type="line"/>
      <point x="449" y="688" type="line" smooth="yes"/>
      <point x="459" y="705"/>
      <point x="461" y="711"/>
      <point x="461" y="716" type="curve" smooth="yes"/>
      <point x="461" y="725"/>
      <point x="455" y="730"/>
      <point x="446" y="730" type="curve" smooth="yes"/>
      <point x="427" y="730"/>
      <point x="421" y="711"/>
      <point x="411" y="694" type="curve" smooth="yes"/>
      <point x="245" y="405" type="line"/>
      <point x="80" y="694" type="line" smooth="yes"/>
      <point x="70" y="711"/>
      <point x="64" y="730"/>
      <point x="45" y="730" type="curve" smooth="yes"/>
      <point x="36" y="730"/>
      <point x="30" y="725"/>
      <point x="30" y="716" type="curve" smooth="yes"/>
      <point x="30" y="711"/>
      <point x="32" y="705"/>
      <point x="40" y="691" type="curve" smooth="yes"/>
      <point x="225" y="366" type="line"/>
      <point x="39" y="40" type="line" smooth="yes"/>
      <point x="31" y="25"/>
      <point x="30" y="21"/>
      <point x="30" y="17" type="curve" smooth="yes"/>
      <point x="30" y="8"/>
      <point x="37" y="0"/>
    </contour>
  </outline>
</glyph>
<glyph name="Y" format="2">
  <advance width="513"/>
  <unicode hex="0059"/>
  <anchor x="257" y="0" name="bottom"/>
  <anchor x="257" y="730" name="top"/>
  <anchor x="22" y="730" name="topleft"/>
  <outline>
    <contour>
      <point x="256" y="0" type="curve" smooth="yes"/>
      <point x="265" y="0"/>
      <point x="274" y="6"/>
      <point x="274" y="18" type="curve" smooth="yes"/>
      <point x="274" y="273" type="line" smooth="yes"/>
      <point x="274" y="275"/>
      <point x="274" y="277"/>
      <point x="275" y="279" type="curve" smooth="yes"/>
      <point x="483" y="694" type="line" smooth="yes"/>
      <point x="487" y="702"/>
      <point x="488" y="709"/>
      <point x="488" y="714" type="curve" smooth="yes"/>
      <point x="488" y="724"/>
      <point x="483" y="730"/>
      <point x="476" y="730" type="curve" smooth="yes"/>
      <point x="470" y="730"/>
      <point x="462" y="725"/>
      <point x="456" y="713" type="curve" smooth="yes"/>
      <point x="256" y="313" type="line"/>
      <point x="57" y="713" type="line" smooth="yes"/>
      <point x="51" y="725"/>
      <point x="43" y="730"/>
      <point x="37" y="730" type="curve" smooth="yes"/>
      <point x="30" y="730"/>
      <point x="24" y="724"/>
      <point x="24" y="714" type="curve" smooth="yes"/>
      <point x="24" y="709"/>
      <point x="26" y="702"/>
      <point x="30" y="694" type="curve" smooth="yes"/>
      <point x="237" y="279" type="line" smooth="yes"/>
      <point x="238" y="277"/>
      <point x="238" y="275"/>
      <point x="238" y="273" type="curve" smooth="yes"/>
      <point x="238" y="18" type="line" smooth="yes"/>
      <point x="238" y="6"/>
      <point x="247" y="0"/>
    </contour>
  </outline>
</glyph>
<glyph name="Z" format="2">
  <advance width="468"/>
  <unicode hex="005A"/>
  <anchor x="234" y="0" name="bottom"/>
  <anchor x="234" y="730" name="top"/>
  <outline>
    <contour>
      <point x="47" y="0" type="curve" smooth="yes"/>
      <point x="422" y="0" type="line" smooth="yes"/>
      <point x="434" y="0"/>
      <point x="440" y="9"/>
      <point x="440" y="18" type="curve" smooth="yes"/>
      <point x="440" y="27"/>
      <point x="434" y="36"/>
      <point x="422" y="36" type="curve" smooth="yes"/>
      <point x="76" y="36" type="line"/>
      <point x="425" y="699" type="line"/>
      <point x="428" y="704"/>
      <point x="430" y="710"/>
      <point x="430" y="715" type="curve" smooth="yes"/>
      <point x="430" y="724"/>
      <point x="424" y="730"/>
      <point x="412" y="730" type="curve" smooth="yes"/>
      <point x="57" y="730" type="line" smooth="yes"/>
      <point x="45" y="730"/>
      <point x="39" y="721"/>
      <point x="39" y="712" type="curve" smooth="yes"/>
      <point x="39" y="703"/>
      <point x="45" y="694"/>
      <point x="57" y="694" type="curve" smooth="yes"/>
      <point x="382" y="694" type="line"/>
      <point x="32" y="29" type="line" smooth="yes"/>
      <point x="30" y="25"/>
      <point x="29" y="21"/>
      <point x="29" y="17" type="curve" smooth="yes"/>
      <point x="29" y="7"/>
      <point x="37" y="0"/>
    </contour>
  </outline>
</glyph>
<glyph name="bracketleft" format="2">
  <advance width="293"/>
  <unicode hex="005B"/>
  <outline>
    <contour>
      <point x="98" y="-80" type="curve" smooth="yes"/>
      <point x="254" y="-80" type="line" smooth="yes"/>
      <point x="263" y="-80"/>
      <point x="271" y="-72"/>
      <point x="271" y="-63" type="curve" smooth="yes"/>
      <point x="271" y="-53"/>
      <point x="263" y="-45"/>
      <point x="254" y="-45" type="curve" smooth="yes"/>
      <point x="116" y="-45" type="line"/>
      <point x="116" y="733" type="line"/>
      <point x="254" y="733" type="line" smooth="yes"/>
      <point x="263" y="733"/>
      <point x="271" y="741"/>
      <point x="271" y="751" type="curve" smooth="yes"/>
      <point x="271" y="760"/>
      <point x="263" y="768"/>
      <point x="254" y="768" type="curve" smooth="yes"/>
      <point x="98" y="768" type="line" smooth="yes"/>
      <point x="88" y="768"/>
      <point x="80" y="760"/>
      <point x="80" y="751" type="curve" smooth="yes"/>
      <point x="80" y="-63" type="line" smooth="yes"/>
      <point x="80" y="-73"/>
      <point x="89" y="-80"/>
    </contour>
  </outline>
</glyph>
<glyph name="backslash" format="2">
  <advance width="344"/>
  <unicode hex="005C"/>
  <outline>
    <contour>
      <point x="298" y="0" type="curve" smooth="yes"/>
      <point x="307" y="0"/>
      <point x="315" y="6"/>
      <point x="315" y="15" type="curve" smooth="yes"/>
      <point x="315" y="17"/>
      <point x="315" y="19"/>
      <point x="314" y="21" type="curve"/>
      <point x="62" y="745" type="line" smooth="yes"/>
      <point x="60" y="751"/>
      <point x="54" y="754"/>
      <point x="48" y="754" type="curve" smooth="yes"/>
      <point x="39" y="754"/>
      <point x="30" y="747"/>
      <point x="30" y="735" type="curve" smooth="yes"/>
      <point x="30" y="733"/>
      <point x="30" y="730"/>
      <point x="31" y="727" type="curve" smooth="yes"/>
      <point x="281" y="12" type="line" smooth="yes"/>
      <point x="284" y="3"/>
      <point x="291" y="0"/>
    </contour>
  </outline>
</glyph>
<glyph name="bracketright" format="2">
  <advance width="293"/>
  <unicode hex="005D"/>
  <outline>
    <contour>
      <point x="39" y="-80" type="curve" smooth="yes"/>
      <point x="195" y="-80" type="line" smooth="yes"/>
      <point x="204" y="-80"/>
      <point x="213" y="-73"/>
      <point x="213" y="-63" type="curve" smooth="yes"/>
      <point x="213" y="751" type="line" smooth="yes"/>
      <point x="213" y="760"/>
      <point x="205" y="768"/>
      <point x="195" y="768" type="curve" smooth="yes"/>
      <point x="39" y="768" type="line" smooth="yes"/>
      <point x="30" y="768"/>
      <point x="22" y="760"/>
      <point x="22" y="751" type="curve" smooth="yes"/>
      <point x="22" y="741"/>
      <point x="30" y="733"/>
      <point x="39" y="733" type="curve" smooth="yes"/>
      <point x="177" y="733" type="line"/>
      <point x="177" y="-45" type="line"/>
      <point x="39" y="-45" type="line" smooth="yes"/>
      <point x="30" y="-45"/>
      <point x="22" y="-53"/>
      <point x="22" y="-63" type="curve" smooth="yes"/>
      <point x="22" y="-72"/>
      <point x="30" y="-80"/>
    </contour>
  </outline>
</glyph>
<glyph name="asciicircum" format="2">
  <advance width="260"/>
  <unicode hex="005E"/>
  <outline>
    <contour>
      <point x="18" y="600" type="curve" smooth="yes"/>
      <point x="20" y="600"/>
      <point x="23" y="602"/>
      <point x="26" y="603" type="curve"/>
      <point x="130" y="659" type="line"/>
      <point x="234" y="604" type="line"/>
      <point x="237" y="603"/>
      <point x="240" y="601"/>
      <point x="243" y="601" type="curve" smooth="yes"/>
      <point x="252" y="601"/>
      <point x="260" y="608"/>
      <point x="260" y="617" type="curve" smooth="yes"/>
      <point x="260" y="624"/>
      <point x="257" y="631"/>
      <point x="251" y="634" type="curve" smooth="yes"/>
      <point x="147" y="689" type="line"/>
      <point x="142" y="692"/>
      <point x="136" y="694"/>
      <point x="130" y="694" type="curve" smooth="yes"/>
      <point x="124" y="694"/>
      <point x="118" y="692"/>
      <point x="113" y="689" type="curve"/>
      <point x="9" y="633" type="line" smooth="yes"/>
      <point x="3" y="630"/>
      <point x="0" y="624"/>
      <point x="0" y="619" type="curve" smooth="yes"/>
      <point x="0" y="608"/>
      <point x="9" y="600"/>
    </contour>
  </outline>
</glyph>
<glyph name="underscore" format="2">
  <advance width="345"/>
  <unicode hex="005F"/>
  <outline>
    <contour>
      <point x="3" y="-35" type="curve" smooth="yes"/>
      <point x="341" y="-35" type="line" smooth="yes"/>
      <point x="350" y="-35"/>
      <point x="359" y="-28"/>
      <point x="359" y="-18" type="curve" smooth="yes"/>
      <point x="359" y="-8"/>
      <point x="350" y="0"/>
      <point x="341" y="0" type="curve" smooth="yes"/>
      <point x="3" y="0" type="line" smooth="yes"/>
      <point x="-7" y="0"/>
      <point x="-14" y="-8"/>
      <point x="-14" y="-18" type="curve" smooth="yes"/>
      <point x="-14" y="-28"/>
      <point x="-7" y="-35"/>
    </contour>
  </outline>
</glyph>
<glyph name="c" format="2">
  <advance width="408"/>
  <unicode hex="0063"/>
  <anchor x="238" y="0" name="bottom"/>
  <anchor x="238" y="500" name="top"/>
  <outline>
    <contour>
      <point x="239" y="-6" type="curve" smooth="yes"/>
      <point x="324" y="-6"/>
      <point x="376" y="32"/>
      <point x="376" y="53" type="curve" smooth="yes"/>
      <point x="376" y="62"/>
      <point x="368" y="70"/>
      <point x="359" y="70" type="curve" smooth="yes"/>
      <point x="341" y="70"/>
      <point x="324" y="29"/>
      <point x="240" y="29" type="curve" smooth="yes"/>
      <point x="146" y="29"/>
      <point x="91" y="85"/>
      <point x="91" y="176" type="curve" smooth="yes"/>
      <point x="91" y="324" type="line" smooth="yes"/>
      <point x="91" y="415"/>
      <point x="147" y="471"/>
      <point x="239" y="471" type="curve" smooth="yes"/>
      <point x="318" y="471"/>
      <point x="335" y="430"/>
      <point x="352" y="430" type="curve" smooth="yes"/>
      <point x="361" y="430"/>
      <point x="370" y="438"/>
      <point x="370" y="447" type="curve" smooth="yes"/>
      <point x="370" y="468"/>
      <point x="319" y="506"/>
      <point x="239" y="506" type="curve" smooth="yes"/>
      <point x="118" y="506"/>
      <point x="56" y="426"/>
      <point x="56" y="324" type="curve" smooth="yes"/>
      <point x="56" y="176" type="line" smooth="yes"/>
      <point x="56" y="72"/>
      <point x="119" y="-6"/>
    </contour>
  </outline>
</glyph>
<glyph name="e" format="2">
  <advance width="452"/>
  <unicode hex="0065"/>
  <anchor x="246" y="0" name="bottom"/>
  <anchor x="404" y="10" name="ogonek"/>
  <anchor x="234" y="500" name="top"/>
  <outline>
    <contour>
      <point x="246" y="-6" type="curve" smooth="yes"/>
      <point x="337" y="-6"/>
      <point x="393" y="39"/>
      <point x="393" y="58" type="curve" smooth="yes"/>
      <point x="393" y="65"/>
      <point x="386" y="73"/>
      <point x="377" y="73" type="curve" smooth="yes"/>
      <point x="357" y="73"/>
      <point x="338" y="29"/>
      <point x="247" y="29" type="curve" smooth="yes"/>
      <point x="152" y="29"/>
      <point x="90" y="86"/>
      <point x="90" y="186" type="curve" smooth="yes"/>
      <point x="90" y="238" type="line"/>
      <point x="327" y="238" type="line" smooth="yes"/>
      <point x="371" y="238"/>
      <point x="410" y="240"/>
      <point x="410" y="317" type="curve" smooth="yes"/>
      <point x="410" y="426"/>
      <point x="335" y="506"/>
      <point x="234" y="506" type="curve" smooth="yes"/>
      <point x="131" y="506"/>
      <point x="55" y="424"/>
      <point x="55" y="319" type="curve" smooth="yes"/>
      <point x="55" y="186" type="line" smooth="yes"/>
      <point x="55" y="68"/>
      <point x="129" y="-6"/>
    </contour>
    <contour>
      <point x="90" y="273" type="line"/>
      <point x="90" y="319" type="line" smooth="yes"/>
      <point x="90" y="402"/>
      <point x="148" y="471"/>
      <point x="234" y="471" type="curve" smooth="yes"/>
      <point x="327" y="471"/>
      <point x="375" y="389"/>
      <point x="375" y="313" type="curve" smooth="yes"/>
      <point x="375" y="279"/>
      <point x="365" y="273"/>
      <point x="315" y="273" type="curve" smooth="yes"/>
    </contour>
  </outline>
</glyph>
<glyph name="f" format="2">
  <advance width="319"/>
  <unicode hex="0066"/>
  <anchor x="159" y="0" name="bottom"/>
  <anchor x="159" y="500" name="top"/>
  <outline>
    <contour>
      <point x="133" y="0" type="curve" smooth="yes"/>
      <point x="143" y="0"/>
      <point x="152" y="7"/>
      <point x="152" y="17" type="curve" smooth="yes"/>
      <point x="152" y="570" type="line" smooth="yes"/>
      <point x="152" y="644"/>
      <point x="206" y="713"/>
      <point x="276" y="713" type="curve" smooth="yes"/>
      <point x="286" y="713" type="line" smooth="yes"/>
      <point x="296" y="713"/>
      <point x="304" y="720"/>
      <point x="304" y="730" type="curve" smooth="yes"/>
      <point x="304" y="740"/>
      <point x="296" y="748"/>
      <point x="286" y="748" type="curve" smooth="yes"/>
      <point x="276" y="748" type="line" smooth="yes"/>
      <point x="190" y="748"/>
      <point x="117" y="666"/>
      <point x="117" y="570" type="curve" smooth="yes"/>
      <point x="117" y="17" type="line" smooth="yes"/>
      <point x="117" y="7"/>
      <point x="124" y="0"/>
    </contour>
    <contour>
      <point x="22" y="467" type="curve" smooth="yes"/>
      <point x="286" y="467" type="line" smooth="yes"/>
      <point x="296" y="467"/>
      <point x="304" y="475"/>
      <point x="304" y="484" type="curve" smooth="yes"/>
      <point x="304" y="492"/>
      <point x="296" y="500"/>
      <point x="286" y="500" type="curve" smooth="yes"/>
      <point x="22" y="500" type="line" smooth="yes"/>
      <point x="12" y="500"/>
      <point x="4" y="492"/>
      <point x="4" y="484" type="curve" smooth="yes"/>
      <point x="4" y="475"/>
      <point x="12" y="467"/>
    </contour>
  </outline>
</glyph>
<glyph name="h" format="2">
  <advance width="493"/>
  <unicode hex="0068"/>
  <anchor x="247" y="0" name="bottom"/>
  <anchor x="247" y="250" name="center"/>
  <anchor x="247" y="500" name="top"/>
  <outline>
    <contour>
      <point x="92" y="0" type="curve" smooth="yes"/>
      <point x="102" y="0"/>
      <point x="110" y="9"/>
      <point x="110" y="18" type="curve" smooth="yes"/>
      <point x="110" y="340" type="line" smooth="yes"/>
      <point x="110" y="417"/>
      <point x="186" y="471"/>
      <point x="259" y="471" type="curve" smooth="yes"/>
      <point x="336" y="471"/>
      <point x="389" y="412"/>
      <point x="389" y="332" type="curve" smooth="yes"/>
      <point x="389" y="18" type="line" smooth="yes"/>
      <point x="389" y="6"/>
      <point x="398" y="0"/>
      <point x="406" y="0" type="curve" smooth="yes"/>
      <point x="415" y="0"/>
      <point x="424" y="6"/>
      <point x="424" y="18" type="curve" smooth="yes"/>
      <point x="424" y="334" type="line" smooth="yes"/>
      <point x="424" y="427"/>
      <point x="362" y="506"/>
      <point x="265" y="506" type="curve" smooth="yes"/>
      <point x="204" y="506"/>
      <point x="139" y="475"/>
      <point x="110" y="424" type="curve"/>
      <point x="110" y="731" type="line" smooth="yes"/>
      <point x="110" y="741"/>
      <point x="102" y="748"/>
      <point x="92" y="748" type="curve" smooth="yes"/>
      <point x="82" y="748"/>
      <point x="75" y="741"/>
      <point x="75" y="731" type="curve" smooth="yes"/>
      <point x="75" y="18" type="line" smooth="yes"/>
      <point x="75" y="9"/>
      <point x="82" y="0"/>
    </contour>
  </outline>
</glyph>
<glyph name="i" format="2">
  <advance width="179"/>
  <unicode hex="0069"/>
  <anchor x="89" y="0" name="bottom"/>
  <outline>
    <contour>
      <point x="89" y="0" type="curve" smooth="yes"/>
      <point x="99" y="0"/>
      <point x="107" y="9"/>
      <point x="107" y="18" type="curve" smooth="yes"/>
      <point x="107" y="483" type="line" smooth="yes"/>
      <point x="107" y="493"/>
      <point x="99" y="500"/>
      <point x="89" y="500" type="curve" smooth="yes"/>
      <point x="80" y="500"/>
      <point x="72" y="493"/>
      <point x="72" y="483" type="curve" smooth="yes"/>
      <point x="72" y="18" type="line" smooth="yes"/>
      <point x="72" y="9"/>
      <point x="80" y="0"/>
    </contour>
    <contour>
      <point x="89" y="649" type="curve" smooth="yes"/>
      <point x="107" y="649"/>
      <point x="119" y="661"/>
      <point x="119" y="674" type="curve" smooth="yes"/>
      <point x="119" y="686" type="line" smooth="yes"/>
      <point x="119" y="699"/>
      <point x="107" y="711"/>
      <point x="89" y="711" type="curve" smooth="yes"/>
      <point x="71" y="711"/>
      <point x="60" y="699"/>
      <point x="60" y="686" type="curve" smooth="yes"/>
      <point x="60" y="674" type="line" smooth="yes"/>
      <point x="60" y="661"/>
      <point x="71" y="649"/>
    </contour>
  </outline>
</glyph>
<glyph name="j" format="2">
  <advance width="175"/>
  <unicode hex="006A"/>
  <guideline x="83" y="420" angle="90"/>
  <outline>
    <contour>
      <point x="-21" y="-218" type="curve" smooth="yes"/>
      <point x="71" y="-218"/>
      <point x="101" y="-140"/>
      <point x="101" y="-29" type="curve" smooth="yes"/>
      <point x="101" y="483" type="line" smooth="yes"/>
      <point x="101" y="493"/>
      <point x="93" y="500"/>
      <point x="83" y="500" type="curve" smooth="yes"/>
      <point x="73" y="500"/>
      <point x="66" y="493"/>
      <point x="66" y="483" type="curve" smooth="yes"/>
      <point x="66" y="-29" type="line" smooth="yes"/>
      <point x="66" y="-118"/>
      <point x="56" y="-183"/>
      <point x="-21" y="-183" type="curve" smooth="yes"/>
      <point x="-31" y="-183"/>
      <point x="-39" y="-190"/>
      <point x="-39" y="-200" type="curve" smooth="yes"/>
      <point x="-39" y="-209"/>
      <point x="-31" y="-218"/>
    </contour>
    <contour>
      <point x="83" y="649" type="curve" smooth="yes"/>
      <point x="101" y="649"/>
      <point x="113" y="661"/>
      <point x="113" y="674" type="curve" smooth="yes"/>
      <point x="113" y="686" type="line" smooth="yes"/>
      <point x="113" y="699"/>
      <point x="101" y="711"/>
      <point x="83" y="711" type="curve" smooth="yes"/>
      <point x="65" y="711"/>
      <point x="54" y="699"/>
      <point x="54" y="686" type="curve" smooth="yes"/>
      <point x="54" y="674" type="line" smooth="yes"/>
      <point x="54" y="661"/>
      <point x="65" y="649"/>
    </contour>
  </outline>
</glyph>
<glyph name="l" format="2">
  <advance width="201"/>
  <unicode hex="006C"/>
  <anchor x="101" y="0" name="bottom"/>
  <anchor x="101" y="250" name="center"/>
  <anchor x="101" y="730" name="top"/>
  <anchor x="175" y="500" name="topright"/>
  <outline>
    <contour>
      <point x="100" y="0" type="curve" smooth="yes"/>
      <point x="110" y="0"/>
      <point x="118" y="9"/>
      <point x="118" y="18" type="curve" smooth="yes"/>
      <point x="118" y="731" type="line" smooth="yes"/>
      <point x="118" y="741"/>
      <point x="110" y="748"/>
      <point x="100" y="748" type="curve" smooth="yes"/>
      <point x="90" y="748"/>
      <point x="83" y="741"/>
      <point x="83" y="731" type="curve" smooth="yes"/>
      <point x="83" y="18" type="line" smooth="yes"/>
      <point x="83" y="9"/>
      <point x="90" y="0"/>
    </contour>
  </outline>
</glyph>
<glyph name="m" format="2">
  <advance width="763"/>
  <unicode hex="006D"/>
  <anchor x="382" y="0" name="bottom"/>
  <anchor x="382" y="500" name="top"/>
  <outline>
    <contour>
      <point x="90" y="0" type="curve" smooth="yes"/>
      <point x="100" y="0"/>
      <point x="108" y="9"/>
      <point x="108" y="18" type="curve" smooth="yes"/>
      <point x="108" y="340" type="line" smooth="yes"/>
      <point x="108" y="417"/>
      <point x="180" y="471"/>
      <point x="250" y="471" type="curve" smooth="yes"/>
      <point x="323" y="471"/>
      <point x="373" y="412"/>
      <point x="373" y="332" type="curve" smooth="yes"/>
      <point x="373" y="18" type="line" smooth="yes"/>
      <point x="373" y="6"/>
      <point x="382" y="0"/>
      <point x="390" y="0" type="curve" smooth="yes"/>
      <point x="399" y="0"/>
      <point x="408" y="6"/>
      <point x="408" y="18" type="curve" smooth="yes"/>
      <point x="408" y="334" type="line" smooth="yes"/>
      <point x="408" y="414"/>
      <point x="469" y="471"/>
      <point x="543" y="471" type="curve" smooth="yes"/>
      <point x="612" y="471"/>
      <point x="659" y="412"/>
      <point x="659" y="332" type="curve" smooth="yes"/>
      <point x="659" y="18" type="line" smooth="yes"/>
      <point x="659" y="6"/>
      <point x="668" y="0"/>
      <point x="676" y="0" type="curve" smooth="yes"/>
      <point x="685" y="0"/>
      <point x="694" y="6"/>
      <point x="694" y="18" type="curve" smooth="yes"/>
      <point x="694" y="334" type="line" smooth="yes"/>
      <point x="694" y="427"/>
      <point x="638" y="506"/>
      <point x="549" y="506" type="curve" smooth="yes"/>
      <point x="496" y="506"/>
      <point x="430" y="479"/>
      <point x="394" y="410" type="curve"/>
      <point x="372" y="466"/>
      <point x="323" y="506"/>
      <point x="256" y="506" type="curve" smooth="yes"/>
      <point x="198" y="506"/>
      <point x="136" y="475"/>
      <point x="108" y="424" type="curve"/>
      <point x="108" y="483" type="line" smooth="yes"/>
      <point x="108" y="493"/>
      <point x="100" y="500"/>
      <point x="90" y="500" type="curve" smooth="yes"/>
      <point x="80" y="500"/>
      <point x="73" y="493"/>
      <point x="73" y="483" type="curve" smooth="yes"/>
      <point x="73" y="18" type="line" smooth="yes"/>
      <point x="73" y="9"/>
      <point x="80" y="0"/>
    </contour>
  </outline>
</glyph>
<glyph name="n" format="2">
  <advance width="491"/>
  <unicode hex="006E"/>
  <anchor x="254" y="0" name="bottom"/>
  <anchor x="254" y="500" name="top"/>
  <outline>
    <contour>
      <point x="90" y="0" type="curve" smooth="yes"/>
      <point x="100" y="0"/>
      <point x="108" y="9"/>
      <point x="108" y="18" type="curve" smooth="yes"/>
      <point x="108" y="340" type="line" smooth="yes"/>
      <point x="108" y="417"/>
      <point x="184" y="471"/>
      <point x="257" y="471" type="curve" smooth="yes"/>
      <point x="334" y="471"/>
      <point x="387" y="412"/>
      <point x="387" y="332" type="curve" smooth="yes"/>
      <point x="387" y="18" type="line" smooth="yes"/>
      <point x="387" y="6"/>
      <point x="396" y="0"/>
      <point x="404" y="0" type="curve" smooth="yes"/>
      <point x="413" y="0"/>
      <point x="422" y="6"/>
      <point x="422" y="18" type="curve" smooth="yes"/>
      <point x="422" y="334" type="line" smooth="yes"/>
      <point x="422" y="427"/>
      <point x="360" y="506"/>
      <point x="263" y="506" type="curve" smooth="yes"/>
      <point x="202" y="506"/>
      <point x="137" y="475"/>
      <point x="108" y="424" type="curve"/>
      <point x="108" y="483" type="line" smooth="yes"/>
      <point x="108" y="493"/>
      <point x="100" y="500"/>
      <point x="90" y="500" type="curve" smooth="yes"/>
      <point x="80" y="500"/>
      <point x="73" y="493"/>
      <point x="73" y="483" type="curve" smooth="yes"/>
      <point x="73" y="18" type="line" smooth="yes"/>
      <point x="73" y="9"/>
      <point x="80" y="0"/>
    </contour>
  </outline>
</glyph>
<glyph name="o" format="2">
  <advance width="463"/>
  <unicode hex="006F"/>
  <anchor x="231" y="0" name="bottom"/>
  <anchor x="232" y="250" name="center"/>
  <anchor x="268" y="0" name="ogonek"/>
  <anchor x="231" y="500" name="top"/>
  <anchor x="439" y="500" name="topright"/>
  <outline>
    <contour>
      <point x="231" y="-6" type="curve" smooth="yes"/>
      <point x="332" y="-6"/>
      <point x="409" y="75"/>
      <point x="409" y="170" type="curve" smooth="yes"/>
      <point x="409" y="332" type="line" smooth="yes"/>
      <point x="409" y="431"/>
      <point x="332" y="506"/>
      <point x="231" y="506" type="curve" smooth="yes"/>
      <point x="128" y="506"/>
      <point x="54" y="428"/>
      <point x="54" y="332" type="curve" smooth="yes"/>
      <point x="54" y="170" type="line" smooth="yes"/>
      <point x="54" y="74"/>
      <point x="130" y="-6"/>
    </contour>
    <contour>
      <point x="231" y="29" type="curve" smooth="yes"/>
      <point x="146" y="29"/>
      <point x="89" y="95"/>
      <point x="89" y="170" type="curve" smooth="yes"/>
      <point x="89" y="332" type="line" smooth="yes"/>
      <point x="89" y="405"/>
      <point x="145" y="471"/>
      <point x="231" y="471" type="curve" smooth="yes"/>
      <point x="317" y="471"/>
      <point x="374" y="405"/>
      <point x="374" y="332" type="curve" smooth="yes"/>
      <point x="374" y="170" type="line" smooth="yes"/>
      <point x="374" y="95"/>
      <point x="316" y="29"/>
    </contour>
  </outline>
</glyph>
<glyph name="p" format="2">
  <advance width="484"/>
  <unicode hex="0070"/>
  <anchor x="243" y="0" name="bottom"/>
  <anchor x="243" y="500" name="top"/>
  <outline>
    <contour>
      <point x="92" y="-218" type="curve" smooth="yes"/>
      <point x="102" y="-218"/>
      <point x="110" y="-209"/>
      <point x="110" y="-200" type="curve" smooth="yes"/>
      <point x="110" y="72" type="line"/>
      <point x="140" y="25"/>
      <point x="193" y="-6"/>
      <point x="255" y="-6" type="curve" smooth="yes"/>
      <point x="354" y="-6"/>
      <point x="430" y="75"/>
      <point x="430" y="170" type="curve" smooth="yes"/>
      <point x="430" y="332" type="line" smooth="yes"/>
      <point x="430" y="431"/>
      <point x="354" y="506"/>
      <point x="255" y="506" type="curve" smooth="yes"/>
      <point x="192" y="506"/>
      <point x="140" y="476"/>
      <point x="110" y="430" type="curve"/>
      <point x="110" y="483" type="line" smooth="yes"/>
      <point x="110" y="493"/>
      <point x="102" y="500"/>
      <point x="92" y="500" type="curve" smooth="yes"/>
      <point x="82" y="500"/>
      <point x="75" y="493"/>
      <point x="75" y="483" type="curve" smooth="yes"/>
      <point x="75" y="-200" type="line" smooth="yes"/>
      <point x="75" y="-209"/>
      <point x="82" y="-218"/>
    </contour>
    <contour>
      <point x="252" y="29" type="curve" smooth="yes"/>
      <point x="167" y="29"/>
      <point x="110" y="95"/>
      <point x="110" y="170" type="curve" smooth="yes"/>
      <point x="110" y="332" type="line" smooth="yes"/>
      <point x="110" y="405"/>
      <point x="166" y="471"/>
      <point x="252" y="471" type="curve" smooth="yes"/>
      <point x="338" y="471"/>
      <point x="395" y="405"/>
      <point x="395" y="332" type="curve" smooth="yes"/>
      <point x="395" y="170" type="line" smooth="yes"/>
      <point x="395" y="95"/>
      <point x="337" y="29"/>
    </contour>
  </outline>
</glyph>
<glyph name="q" format="2">
  <advance width="484"/>
  <unicode hex="0071"/>
  <anchor x="241" y="0" name="bottom"/>
  <anchor x="241" y="500" name="top"/>
  <outline>
    <contour>
      <point x="392" y="-218" type="curve" smooth="yes"/>
      <point x="402" y="-218"/>
      <point x="409" y="-209"/>
      <point x="409" y="-200" type="curve" smooth="yes"/>
      <point x="409" y="483" type="line" smooth="yes"/>
      <point x="409" y="493"/>
      <point x="402" y="500"/>
      <point x="392" y="500" type="curve" smooth="yes"/>
      <point x="382" y="500"/>
      <point x="374" y="493"/>
      <point x="374" y="483" type="curve" smooth="yes"/>
      <point x="374" y="430" type="line"/>
      <point x="344" y="476"/>
      <point x="292" y="506"/>
      <point x="229" y="506" type="curve" smooth="yes"/>
      <point x="130" y="506"/>
      <point x="54" y="431"/>
      <point x="54" y="332" type="curve" smooth="yes"/>
      <point x="54" y="170" type="line" smooth="yes"/>
      <point x="54" y="75"/>
      <point x="130" y="-6"/>
      <point x="229" y="-6" type="curve" smooth="yes"/>
      <point x="291" y="-6"/>
      <point x="343" y="25"/>
      <point x="374" y="72" type="curve"/>
      <point x="374" y="-200" type="line" smooth="yes"/>
      <point x="374" y="-209"/>
      <point x="382" y="-218"/>
    </contour>
    <contour>
      <point x="232" y="29" type="curve" smooth="yes"/>
      <point x="147" y="29"/>
      <point x="89" y="95"/>
      <point x="89" y="170" type="curve" smooth="yes"/>
      <point x="89" y="332" type="line" smooth="yes"/>
      <point x="89" y="405"/>
      <point x="146" y="471"/>
      <point x="232" y="471" type="curve" smooth="yes"/>
      <point x="318" y="471"/>
      <point x="374" y="405"/>
      <point x="374" y="332" type="curve" smooth="yes"/>
      <point x="374" y="170" type="line" smooth="yes"/>
      <point x="374" y="95"/>
      <point x="317" y="29"/>
    </contour>
  </outline>
</glyph>
<glyph name="r" format="2">
  <advance width="314"/>
  <unicode hex="0072"/>
  <anchor x="159" y="0" name="bottom"/>
  <anchor x="159" y="500" name="top"/>
  <outline>
    <contour>
      <point x="90" y="0" type="curve" smooth="yes"/>
      <point x="100" y="0"/>
      <point x="108" y="9"/>
      <point x="108" y="18" type="curve" smooth="yes"/>
      <point x="108" y="344" type="line" smooth="yes"/>
      <point x="108" y="414"/>
      <point x="187" y="471"/>
      <point x="237" y="471" type="curve" smooth="yes"/>
      <point x="284" y="471" type="line" smooth="yes"/>
      <point x="293" y="471"/>
      <point x="301" y="479"/>
      <point x="301" y="488" type="curve" smooth="yes"/>
      <point x="301" y="498"/>
      <point x="293" y="506"/>
      <point x="284" y="506" type="curve" smooth="yes"/>
      <point x="237" y="506" type="line" smooth="yes"/>
      <point x="182" y="506"/>
      <point x="131" y="467"/>
      <point x="108" y="429" type="curve"/>
      <point x="108" y="483" type="line" smooth="yes"/>
      <point x="108" y="493"/>
      <point x="100" y="500"/>
      <point x="90" y="500" type="curve" smooth="yes"/>
      <point x="80" y="500"/>
      <point x="73" y="493"/>
      <point x="73" y="483" type="curve" smooth="yes"/>
      <point x="73" y="18" type="line" smooth="yes"/>
      <point x="73" y="9"/>
      <point x="80" y="0"/>
    </contour>
  </outline>
</glyph>
<glyph name="s" format="2">
  <advance width="379"/>
  <unicode hex="0073"/>
  <guideline x="73" y="345" angle="90"/>
  <guideline x="318" y="112" angle="90"/>
  <anchor x="187" y="0" name="bottom"/>
  <anchor x="200" y="500" name="top"/>
  <outline>
    <contour>
      <point x="185" y="-6" type="curve" smooth="yes"/>
      <point x="281" y="-6"/>
      <point x="338" y="45"/>
      <point x="338" y="133" type="curve" smooth="yes"/>
      <point x="338" y="318"/>
      <point x="88" y="236"/>
      <point x="88" y="369" type="curve" smooth="yes"/>
      <point x="88" y="419"/>
      <point x="123" y="471"/>
      <point x="208" y="471" type="curve" smooth="yes"/>
      <point x="270" y="471"/>
      <point x="294" y="442"/>
      <point x="307" y="442" type="curve" smooth="yes"/>
      <point x="316" y="442"/>
      <point x="323" y="455"/>
      <point x="323" y="463" type="curve" smooth="yes"/>
      <point x="323" y="482"/>
      <point x="267" y="506"/>
      <point x="207" y="506" type="curve" smooth="yes"/>
      <point x="104" y="506"/>
      <point x="53" y="438"/>
      <point x="53" y="365" type="curve" smooth="yes"/>
      <point x="53" y="205"/>
      <point x="303" y="283"/>
      <point x="303" y="131" type="curve" smooth="yes"/>
      <point x="303" y="74"/>
      <point x="269" y="29"/>
      <point x="183" y="29" type="curve" smooth="yes"/>
      <point x="91" y="29"/>
      <point x="74" y="79"/>
      <point x="56" y="79" type="curve" smooth="yes"/>
      <point x="48" y="79"/>
      <point x="41" y="70"/>
      <point x="41" y="62" type="curve" smooth="yes"/>
      <point x="41" y="37"/>
      <point x="98" y="-6"/>
    </contour>
  </outline>
</glyph>
<glyph name="t" format="2">
  <advance width="312"/>
  <unicode hex="0074"/>
  <anchor x="216" y="0" name="bottom"/>
  <anchor x="136" y="250" name="center"/>
  <anchor x="136" y="500" name="top"/>
  <anchor x="290" y="500" name="topright"/>
  <outline>
    <contour>
      <point x="250" y="0" type="curve" smooth="yes"/>
      <point x="273" y="0" type="line" smooth="yes"/>
      <point x="282" y="0"/>
      <point x="290" y="8"/>
      <point x="290" y="18" type="curve" smooth="yes"/>
      <point x="290" y="28"/>
      <point x="282" y="35"/>
      <point x="273" y="35" type="curve" smooth="yes"/>
      <point x="250" y="35" type="line" smooth="yes"/>
      <point x="179" y="35"/>
      <point x="154" y="63"/>
      <point x="154" y="139" type="curve" smooth="yes"/>
      <point x="154" y="676" type="line" smooth="yes"/>
      <point x="154" y="686"/>
      <point x="145" y="693"/>
      <point x="136" y="693" type="curve" smooth="yes"/>
      <point x="128" y="693"/>
      <point x="119" y="686"/>
      <point x="119" y="676" type="curve" smooth="yes"/>
      <point x="119" y="139" type="line" smooth="yes"/>
      <point x="119" y="42"/>
      <point x="165" y="0"/>
    </contour>
    <contour>
      <point x="38" y="467" type="curve" smooth="yes"/>
      <point x="274" y="467" type="line" smooth="yes"/>
      <point x="283" y="467"/>
      <point x="291" y="475"/>
      <point x="291" y="483" type="curve" smooth="yes"/>
      <point x="291" y="492"/>
      <point x="283" y="500"/>
      <point x="274" y="500" type="curve" smooth="yes"/>
      <point x="38" y="500" type="line" smooth="yes"/>
      <point x="29" y="500"/>
      <point x="21" y="492"/>
      <point x="21" y="483" type="curve" smooth="yes"/>
      <point x="21" y="475"/>
      <point x="29" y="467"/>
    </contour>
  </outline>
</glyph>
<glyph name="u" format="2">
  <advance width="491"/>
  <unicode hex="0075"/>
  <anchor x="246" y="0" name="bottom"/>
  <anchor x="418" y="0" name="ogonek"/>
  <anchor x="244" y="500" name="top"/>
  <anchor x="466" y="500" name="topright"/>
  <outline>
    <contour>
      <point x="228" y="-6" type="curve" smooth="yes"/>
      <point x="289" y="-6"/>
      <point x="354" y="25"/>
      <point x="383" y="76" type="curve"/>
      <point x="383" y="17" type="line" smooth="yes"/>
      <point x="383" y="7"/>
      <point x="391" y="0"/>
      <point x="401" y="0" type="curve" smooth="yes"/>
      <point x="411" y="0"/>
      <point x="418" y="7"/>
      <point x="418" y="17" type="curve" smooth="yes"/>
      <point x="418" y="482" type="line" smooth="yes"/>
      <point x="418" y="491"/>
      <point x="411" y="500"/>
      <point x="401" y="500" type="curve" smooth="yes"/>
      <point x="391" y="500"/>
      <point x="383" y="491"/>
      <point x="383" y="482" type="curve" smooth="yes"/>
      <point x="383" y="160" type="line" smooth="yes"/>
      <point x="383" y="83"/>
      <point x="307" y="29"/>
      <point x="234" y="29" type="curve" smooth="yes"/>
      <point x="157" y="29"/>
      <point x="104" y="88"/>
      <point x="104" y="168" type="curve" smooth="yes"/>
      <point x="104" y="482" type="line" smooth="yes"/>
      <point x="104" y="494"/>
      <point x="95" y="500"/>
      <point x="87" y="500" type="curve" smooth="yes"/>
      <point x="78" y="500"/>
      <point x="69" y="494"/>
      <point x="69" y="482" type="curve" smooth="yes"/>
      <point x="69" y="166" type="line" smooth="yes"/>
      <point x="69" y="73"/>
      <point x="131" y="-6"/>
    </contour>
  </outline>
</glyph>
<glyph name="v" format="2">
  <advance width="396"/>
  <unicode hex="0076"/>
  <anchor x="198" y="0" name="bottom"/>
  <anchor x="198" y="500" name="top"/>
  <outline>
    <contour>
      <point x="198" y="-6" type="curve" smooth="yes"/>
      <point x="206" y="-6"/>
      <point x="212" y="-1"/>
      <point x="215" y="6" type="curve"/>
      <point x="371" y="468" type="line" smooth="yes"/>
      <point x="372" y="471"/>
      <point x="375" y="478"/>
      <point x="375" y="483" type="curve" smooth="yes"/>
      <point x="375" y="493"/>
      <point x="365" y="500"/>
      <point x="356" y="500" type="curve" smooth="yes"/>
      <point x="345" y="500"/>
      <point x="342" y="491"/>
      <point x="339" y="483" type="curve" smooth="yes"/>
      <point x="198" y="68" type="line"/>
      <point x="56" y="489" type="line" smooth="yes"/>
      <point x="54" y="496"/>
      <point x="46" y="500"/>
      <point x="39" y="500" type="curve" smooth="yes"/>
      <point x="29" y="500"/>
      <point x="21" y="492"/>
      <point x="21" y="482" type="curve" smooth="yes"/>
      <point x="21" y="478"/>
      <point x="24" y="471"/>
      <point x="25" y="468" type="curve" smooth="yes"/>
      <point x="181" y="6" type="line" smooth="yes"/>
      <point x="184" y="-2"/>
      <point x="189" y="-6"/>
    </contour>
  </outline>
</glyph>
<glyph name="w" format="2">
  <advance width="658"/>
  <unicode hex="0077"/>
  <anchor x="329" y="0" name="bottom"/>
  <anchor x="329" y="500" name="top"/>
  <outline>
    <contour>
      <point x="198" y="-6" type="curve" smooth="yes"/>
      <point x="206" y="-6"/>
      <point x="211" y="-1"/>
      <point x="215" y="11" type="curve" smooth="yes"/>
      <point x="330" y="408" type="line"/>
      <point x="447" y="5" type="line"/>
      <point x="451" y="-3"/>
      <point x="453" y="-6"/>
      <point x="461" y="-6" type="curve" smooth="yes"/>
      <point x="468" y="-6"/>
      <point x="473" y="-3"/>
      <point x="476" y="6" type="curve" smooth="yes"/>
      <point x="633" y="469" type="line" smooth="yes"/>
      <point x="635" y="474"/>
      <point x="637" y="479"/>
      <point x="637" y="483" type="curve" smooth="yes"/>
      <point x="637" y="494"/>
      <point x="629" y="500"/>
      <point x="619" y="500" type="curve" smooth="yes"/>
      <point x="612" y="500"/>
      <point x="605" y="496"/>
      <point x="603" y="489" type="curve" smooth="yes"/>
      <point x="461" y="65" type="line"/>
      <point x="348" y="460" type="line"/>
      <point x="345" y="468"/>
      <point x="339" y="473"/>
      <point x="330" y="473" type="curve" smooth="yes"/>
      <point x="321" y="473"/>
      <point x="315" y="468"/>
      <point x="312" y="460" type="curve"/>
      <point x="196" y="70" type="line"/>
      <point x="56" y="489" type="line" smooth="yes"/>
      <point x="54" y="496"/>
      <point x="46" y="500"/>
      <point x="39" y="500" type="curve" smooth="yes"/>
      <point x="29" y="500"/>
      <point x="21" y="492"/>
      <point x="21" y="482" type="curve" smooth="yes"/>
      <point x="21" y="479"/>
      <point x="24" y="471"/>
      <point x="25" y="469" type="curve" smooth="yes"/>
      <point x="181" y="11" type="line" smooth="yes"/>
      <point x="186" y="-3"/>
      <point x="189" y="-6"/>
    </contour>
  </outline>
</glyph>
<glyph name="x" format="2">
  <advance width="385"/>
  <unicode hex="0078"/>
  <anchor x="193" y="0" name="bottom"/>
  <anchor x="193" y="500" name="top"/>
  <outline>
    <contour>
      <point x="47" y="0" type="curve" smooth="yes"/>
      <point x="53" y="0"/>
      <point x="59" y="3"/>
      <point x="62" y="8" type="curve" smooth="yes"/>
      <point x="193" y="220" type="line"/>
      <point x="325" y="8" type="line" smooth="yes"/>
      <point x="328" y="3"/>
      <point x="334" y="0"/>
      <point x="339" y="0" type="curve" smooth="yes"/>
      <point x="349" y="0"/>
      <point x="357" y="8"/>
      <point x="357" y="17" type="curve" smooth="yes"/>
      <point x="357" y="21"/>
      <point x="356" y="24"/>
      <point x="354" y="27" type="curve" smooth="yes"/>
      <point x="212" y="252" type="line"/>
      <point x="354" y="472" type="line" smooth="yes"/>
      <point x="356" y="475"/>
      <point x="357" y="478"/>
      <point x="357" y="482" type="curve" smooth="yes"/>
      <point x="357" y="493"/>
      <point x="348" y="500"/>
      <point x="339" y="500" type="curve" smooth="yes"/>
      <point x="334" y="500"/>
      <point x="328" y="497"/>
      <point x="325" y="492" type="curve" smooth="yes"/>
      <point x="193" y="282" type="line"/>
      <point x="62" y="492" type="line" smooth="yes"/>
      <point x="59" y="497"/>
      <point x="53" y="500"/>
      <point x="47" y="500" type="curve" smooth="yes"/>
      <point x="37" y="500"/>
      <point x="29" y="492"/>
      <point x="29" y="482" type="curve" smooth="yes"/>
      <point x="29" y="478"/>
      <point x="30" y="475"/>
      <point x="32" y="472" type="curve" smooth="yes"/>
      <point x="173" y="252" type="line"/>
      <point x="32" y="27" type="line" smooth="yes"/>
      <point x="30" y="24"/>
      <point x="29" y="21"/>
      <point x="29" y="17" type="curve" smooth="yes"/>
      <point x="29" y="8"/>
      <point x="37" y="0"/>
    </contour>
  </outline>
</glyph>
<glyph name="y" format="2">
  <advance width="398"/>
  <unicode hex="0079"/>
  <anchor x="279" y="0" name="bottom"/>
  <anchor x="199" y="500" name="top"/>
  <outline>
    <contour>
      <point x="44" y="-218" type="curve" smooth="yes"/>
      <point x="76" y="-218"/>
      <point x="103" y="-204"/>
      <point x="125" y="-175" type="curve" smooth="yes"/>
      <point x="161" y="-127"/>
      <point x="195" y="-26"/>
      <point x="216" y="32" type="curve" smooth="yes"/>
      <point x="375" y="474" type="line" smooth="yes"/>
      <point x="376" y="478"/>
      <point x="377" y="477"/>
      <point x="377" y="482" type="curve" smooth="yes"/>
      <point x="377" y="495"/>
      <point x="367" y="500"/>
      <point x="360" y="500" type="curve" smooth="yes"/>
      <point x="352" y="500"/>
      <point x="345" y="495"/>
      <point x="342" y="488" type="curve" smooth="yes"/>
      <point x="200" y="85" type="line"/>
      <point x="55" y="489" type="line" smooth="yes"/>
      <point x="53" y="496"/>
      <point x="45" y="500"/>
      <point x="38" y="500" type="curve" smooth="yes"/>
      <point x="29" y="500"/>
      <point x="19" y="493"/>
      <point x="19" y="484" type="curve" smooth="yes"/>
      <point x="19" y="481"/>
      <point x="20" y="478"/>
      <point x="22" y="473" type="curve" smooth="yes"/>
      <point x="181" y="34" type="line"/>
      <point x="151" y="-51"/>
      <point x="128" y="-118"/>
      <point x="101" y="-154" type="curve" smooth="yes"/>
      <point x="82" y="-180"/>
      <point x="63" y="-184"/>
      <point x="44" y="-185" type="curve" smooth="yes"/>
      <point x="29" y="-186"/>
      <point x="20" y="-187"/>
      <point x="20" y="-202" type="curve" smooth="yes"/>
      <point x="20" y="-212"/>
      <point x="24" y="-218"/>
    </contour>
  </outline>
</glyph>
<glyph name="z" format="2">
  <advance width="389"/>
  <unicode hex="007A"/>
  <anchor x="195" y="0" name="bottom"/>
  <anchor x="195" y="500" name="top"/>
  <outline>
    <contour>
      <point x="46" y="0" type="curve" smooth="yes"/>
      <point x="343" y="0" type="line" smooth="yes"/>
      <point x="353" y="0"/>
      <point x="361" y="8"/>
      <point x="361" y="17" type="curve" smooth="yes"/>
      <point x="361" y="27"/>
      <point x="353" y="35"/>
      <point x="343" y="35" type="curve" smooth="yes"/>
      <point x="80" y="35" type="line"/>
      <point x="343" y="465" type="line" smooth="yes"/>
      <point x="347" y="472"/>
      <point x="351" y="477"/>
      <point x="351" y="483" type="curve" smooth="yes"/>
      <point x="351" y="492"/>
      <point x="343" y="500"/>
      <point x="333" y="500" type="curve" smooth="yes"/>
      <point x="56" y="500" type="line" smooth="yes"/>
      <point x="46" y="500"/>
      <point x="38" y="492"/>
      <point x="38" y="482" type="curve" smooth="yes"/>
      <point x="38" y="473"/>
      <point x="46" y="465"/>
      <point x="56" y="465" type="curve" smooth="yes"/>
      <point x="299" y="465" type="line"/>
      <point x="38" y="38" type="line" smooth="yes"/>
      <point x="32" y="28"/>
      <point x="28" y="20"/>
      <point x="28" y="14" type="curve" smooth="yes"/>
      <point x="28" y="5"/>
      <point x="36" y="0"/>
    </contour>
  </outline>
</glyph>
<glyph name="braceleft" format="2">
  <advance width="290"/>
  <unicode hex="007B"/>
  <outline>
    <contour>
      <point x="251" y="-80" type="curve" smooth="yes"/>
      <point x="259" y="-80"/>
      <point x="268" y="-73"/>
      <point x="268" y="-62" type="curve" smooth="yes"/>
      <point x="268" y="-55"/>
      <point x="264" y="-45"/>
      <point x="251" y="-45" type="curve" smooth="yes"/>
      <point x="206" y="-45"/>
      <point x="112" y="-18"/>
      <point x="112" y="78" type="curve" smooth="yes"/>
      <point x="112" y="119"/>
      <point x="133" y="291"/>
      <point x="133" y="316" type="curve" smooth="yes"/>
      <point x="133" y="338"/>
      <point x="111" y="351"/>
      <point x="99" y="355" type="curve"/>
      <point x="111" y="358"/>
      <point x="133" y="372"/>
      <point x="133" y="395" type="curve" smooth="yes"/>
      <point x="133" y="416"/>
      <point x="112" y="559"/>
      <point x="112" y="592" type="curve" smooth="yes"/>
      <point x="112" y="663"/>
      <point x="169" y="733"/>
      <point x="251" y="733" type="curve" smooth="yes"/>
      <point x="260" y="733"/>
      <point x="268" y="741"/>
      <point x="268" y="751" type="curve" smooth="yes"/>
      <point x="268" y="760"/>
      <point x="260" y="768"/>
      <point x="251" y="768" type="curve" smooth="yes"/>
      <point x="154" y="768"/>
      <point x="76" y="688"/>
      <point x="76" y="595" type="curve" smooth="yes"/>
      <point x="76" y="563"/>
      <point x="97" y="414"/>
      <point x="97" y="395" type="curve" smooth="yes"/>
      <point x="97" y="362"/>
      <point x="37" y="389"/>
      <point x="37" y="355" type="curve" smooth="yes"/>
      <point x="37" y="320"/>
      <point x="97" y="349"/>
      <point x="97" y="316" type="curve" smooth="yes"/>
      <point x="97" y="296"/>
      <point x="76" y="116"/>
      <point x="76" y="81" type="curve" smooth="yes"/>
      <point x="76" y="-15"/>
      <point x="153" y="-80"/>
    </contour>
  </outline>
</glyph>
<glyph name="bar" format="2">
  <advance width="196"/>
  <unicode hex="007C"/>
  <outline>
    <contour>
      <point x="98" y="-21" type="curve" smooth="yes"/>
      <point x="107" y="-21"/>
      <point x="116" y="-13"/>
      <point x="116" y="-4" type="curve" smooth="yes"/>
      <point x="116" y="751" type="line" smooth="yes"/>
      <point x="116" y="760"/>
      <point x="107" y="768"/>
      <point x="98" y="768" type="curve" smooth="yes"/>
      <point x="88" y="768"/>
      <point x="80" y="760"/>
      <point x="80" y="751" type="curve" smooth="yes"/>
      <point x="80" y="-4" type="line" smooth="yes"/>
      <point x="80" y="-13"/>
      <point x="88" y="-21"/>
    </contour>
  </outline>
</glyph>
<glyph name="braceright" format="2">
  <advance width="290"/>
  <unicode hex="007D"/>
  <outline>
    <contour>
      <point x="39" y="-80" type="curve" smooth="yes"/>
      <point x="137" y="-80"/>
      <point x="214" y="-15"/>
      <point x="214" y="81" type="curve" smooth="yes"/>
      <point x="214" y="116"/>
      <point x="193" y="296"/>
      <point x="193" y="316" type="curve" smooth="yes"/>
      <point x="193" y="349"/>
      <point x="253" y="320"/>
      <point x="253" y="355" type="curve" smooth="yes"/>
      <point x="253" y="389"/>
      <point x="193" y="362"/>
      <point x="193" y="395" type="curve" smooth="yes"/>
      <point x="193" y="414"/>
      <point x="214" y="563"/>
      <point x="214" y="595" type="curve" smooth="yes"/>
      <point x="214" y="688"/>
      <point x="136" y="768"/>
      <point x="39" y="768" type="curve" smooth="yes"/>
      <point x="30" y="768"/>
      <point x="22" y="760"/>
      <point x="22" y="751" type="curve" smooth="yes"/>
      <point x="22" y="741"/>
      <point x="30" y="733"/>
      <point x="39" y="733" type="curve" smooth="yes"/>
      <point x="121" y="733"/>
      <point x="178" y="663"/>
      <point x="178" y="592" type="curve" smooth="yes"/>
      <point x="178" y="559"/>
      <point x="157" y="416"/>
      <point x="157" y="395" type="curve" smooth="yes"/>
      <point x="157" y="372"/>
      <point x="178" y="358"/>
      <point x="191" y="355" type="curve"/>
      <point x="178" y="351"/>
      <point x="157" y="338"/>
      <point x="157" y="316" type="curve" smooth="yes"/>
      <point x="157" y="291"/>
      <point x="178" y="119"/>
      <point x="178" y="78" type="curve" smooth="yes"/>
      <point x="178" y="-18"/>
      <point x="84" y="-45"/>
      <point x="39" y="-45" type="curve" smooth="yes"/>
      <point x="26" y="-45"/>
      <point x="22" y="-55"/>
      <point x="22" y="-62" type="curve" smooth="yes"/>
      <point x="22" y="-73"/>
      <point x="31" y="-80"/>
    </contour>
  </outline>
</glyph>
<glyph name="asciitilde" format="2">
  <advance width="408"/>
  <unicode hex="007E"/>
  <outline>
    <contour>
      <point x="268" y="223" type="curve" smooth="yes"/>
      <point x="300" y="223"/>
      <point x="352" y="243"/>
      <point x="352" y="274" type="curve" smooth="yes"/>
      <point x="352" y="283"/>
      <point x="345" y="289"/>
      <point x="338" y="289" type="curve" smooth="yes"/>
      <point x="322" y="289"/>
      <point x="319" y="257"/>
      <point x="273" y="257" type="curve" smooth="yes"/>
      <point x="222" y="257"/>
      <point x="195" y="294"/>
      <point x="146" y="294" type="curve" smooth="yes"/>
      <point x="110" y="294"/>
      <point x="57" y="268"/>
      <point x="57" y="242" type="curve" smooth="yes"/>
      <point x="57" y="231"/>
      <point x="63" y="225"/>
      <point x="70" y="225" type="curve" smooth="yes"/>
      <point x="84" y="225"/>
      <point x="96" y="260"/>
      <point x="139" y="260" type="curve" smooth="yes"/>
      <point x="195" y="260"/>
      <point x="220" y="223"/>
    </contour>
  </outline>
</glyph>
<glyph name="exclamdown" format="2">
  <advance width="203"/>
  <unicode hex="00A1"/>
  <outline>
    <contour>
      <point x="101" y="-224" type="curve" smooth="yes"/>
      <point x="116" y="-224"/>
      <point x="128" y="-213"/>
      <point x="128" y="-193" type="curve" smooth="yes"/>
      <point x="128" y="-13"/>
      <point x="117" y="181"/>
      <point x="117" y="361" type="curve" smooth="yes"/>
      <point x="117" y="371"/>
      <point x="107" y="377"/>
      <point x="101" y="377" type="curve" smooth="yes"/>
      <point x="94" y="377"/>
      <point x="86" y="371"/>
      <point x="86" y="361" type="curve" smooth="yes"/>
      <point x="86" y="181"/>
      <point x="75" y="-13"/>
      <point x="75" y="-193" type="curve" smooth="yes"/>
      <point x="75" y="-213"/>
      <point x="86" y="-224"/>
    </contour>
    <contour>
      <point x="102" y="464" type="curve" smooth="yes"/>
      <point x="121" y="464"/>
      <point x="137" y="480"/>
      <point x="137" y="500" type="curve" smooth="yes"/>
      <point x="137" y="519"/>
      <point x="121" y="536"/>
      <point x="102" y="536" type="curve" smooth="yes"/>
      <point x="81" y="536"/>
      <point x="66" y="519"/>
      <point x="66" y="500" type="curve" smooth="yes"/>
      <point x="66" y="480"/>
      <point x="81" y="464"/>
    </contour>
  </outline>
</glyph>
<glyph name="cent" format="2">
  <advance width="413"/>
  <unicode hex="00A2"/>
  <outline>
    <contour>
      <point x="204" y="40" type="curve" smooth="yes"/>
      <point x="213" y="40"/>
      <point x="222" y="48"/>
      <point x="222" y="57" type="curve" smooth="yes"/>
      <point x="222" y="174" type="line"/>
      <point x="291" y="174"/>
      <point x="364" y="201"/>
      <point x="364" y="232" type="curve" smooth="yes"/>
      <point x="364" y="243"/>
      <point x="354" y="250"/>
      <point x="345" y="250" type="curve" smooth="yes"/>
      <point x="326" y="250"/>
      <point x="311" y="209"/>
      <point x="222" y="209" type="curve"/>
      <point x="222" y="523" type="line"/>
      <point x="310" y="523"/>
      <point x="327" y="482"/>
      <point x="345" y="482" type="curve" smooth="yes"/>
      <point x="354" y="482"/>
      <point x="364" y="489"/>
      <point x="364" y="500" type="curve" smooth="yes"/>
      <point x="364" y="529"/>
      <point x="298" y="558"/>
      <point x="222" y="558" type="curve"/>
      <point x="222" y="677" type="line" smooth="yes"/>
      <point x="222" y="686"/>
      <point x="213" y="694"/>
      <point x="204" y="694" type="curve" smooth="yes"/>
      <point x="194" y="694"/>
      <point x="186" y="686"/>
      <point x="186" y="677" type="curve" smooth="yes"/>
      <point x="186" y="555" type="line"/>
      <point x="88" y="539"/>
      <point x="44" y="466"/>
      <point x="44" y="376" type="curve" smooth="yes"/>
      <point x="44" y="356" type="line" smooth="yes"/>
      <point x="44" y="264"/>
      <point x="91" y="192"/>
      <point x="186" y="177" type="curve"/>
      <point x="186" y="57" type="line" smooth="yes"/>
      <point x="186" y="48"/>
      <point x="194" y="40"/>
    </contour>
    <contour>
      <point x="186" y="213" type="line"/>
      <point x="114" y="227"/>
      <point x="79" y="279"/>
      <point x="79" y="356" type="curve" smooth="yes"/>
      <point x="79" y="376" type="line" smooth="yes"/>
      <point x="79" y="452"/>
      <point x="114" y="504"/>
      <point x="186" y="519" type="curve"/>
    </contour>
  </outline>
</glyph>
<glyph name="sterling" format="2">
  <advance width="466"/>
  <unicode hex="00A3"/>
  <outline>
    <contour>
      <point x="45" y="0" type="curve" smooth="yes"/>
      <point x="405" y="0" type="line" smooth="yes"/>
      <point x="415" y="0"/>
      <point x="421" y="9"/>
      <point x="421" y="18" type="curve" smooth="yes"/>
      <point x="421" y="27"/>
      <point x="415" y="36"/>
      <point x="405" y="36" type="curve" smooth="yes"/>
      <point x="142" y="36" type="line"/>
      <point x="189" y="367" type="line"/>
      <point x="357" y="367" type="line" smooth="yes"/>
      <point x="368" y="367"/>
      <point x="373" y="376"/>
      <point x="373" y="384" type="curve" smooth="yes"/>
      <point x="373" y="393"/>
      <point x="368" y="402"/>
      <point x="357" y="402" type="curve" smooth="yes"/>
      <point x="194" y="402" type="line"/>
      <point x="221" y="590" type="line" smooth="yes"/>
      <point x="232" y="664"/>
      <point x="303" y="733"/>
      <point x="384" y="733" type="curve" smooth="yes"/>
      <point x="401" y="733" type="line" smooth="yes"/>
      <point x="414" y="733"/>
      <point x="421" y="742"/>
      <point x="421" y="750" type="curve" smooth="yes"/>
      <point x="421" y="759"/>
      <point x="414" y="768"/>
      <point x="401" y="768" type="curve" smooth="yes"/>
      <point x="389" y="768" type="line" smooth="yes"/>
      <point x="290" y="768"/>
      <point x="200" y="686"/>
      <point x="186" y="590" type="curve" smooth="yes"/>
      <point x="159" y="402" type="line"/>
      <point x="68" y="402" type="line" smooth="yes"/>
      <point x="58" y="402"/>
      <point x="51" y="394"/>
      <point x="51" y="384" type="curve" smooth="yes"/>
      <point x="51" y="374"/>
      <point x="58" y="367"/>
      <point x="68" y="367" type="curve" smooth="yes"/>
      <point x="154" y="367" type="line"/>
      <point x="108" y="36" type="line"/>
      <point x="45" y="36" type="line" smooth="yes"/>
      <point x="33" y="36"/>
      <point x="27" y="27"/>
      <point x="27" y="18" type="curve" smooth="yes"/>
      <point x="27" y="9"/>
      <point x="33" y="0"/>
    </contour>
  </outline>
</glyph>
<glyph name="yen" format="2">
  <advance width="483"/>
  <unicode hex="00A5"/>
  <outline>
    <contour>
      <point x="238" y="0" type="curve" smooth="yes"/>
      <point x="248" y="0"/>
      <point x="255" y="8"/>
      <point x="255" y="17" type="curve" smooth="yes"/>
      <point x="255" y="197" type="line"/>
      <point x="386" y="197" type="line" smooth="yes"/>
      <point x="395" y="197"/>
      <point x="404" y="204"/>
      <point x="404" y="214" type="curve" smooth="yes"/>
      <point x="404" y="224"/>
      <point x="395" y="232"/>
      <point x="386" y="232" type="curve" smooth="yes"/>
      <point x="255" y="232" type="line"/>
      <point x="255" y="310" type="line"/>
      <point x="386" y="310" type="line" smooth="yes"/>
      <point x="395" y="310"/>
      <point x="404" y="317"/>
      <point x="404" y="327" type="curve" smooth="yes"/>
      <point x="404" y="337"/>
      <point x="395" y="345"/>
      <point x="386" y="345" type="curve" smooth="yes"/>
      <point x="264" y="345" type="line"/>
      <point x="454" y="707" type="line" smooth="yes"/>
      <point x="455" y="709"/>
      <point x="455" y="711"/>
      <point x="455" y="714" type="curve" smooth="yes"/>
      <point x="455" y="724"/>
      <point x="448" y="731"/>
      <point x="439" y="731" type="curve" smooth="yes"/>
      <point x="432" y="731"/>
      <point x="426" y="728"/>
      <point x="422" y="721" type="curve" smooth="yes"/>
      <point x="238" y="375" type="line"/>
      <point x="64" y="721" type="line"/>
      <point x="60" y="728"/>
      <point x="54" y="731"/>
      <point x="47" y="731" type="curve" smooth="yes"/>
      <point x="36" y="731"/>
      <point x="29" y="722"/>
      <point x="29" y="714" type="curve" smooth="yes"/>
      <point x="29" y="711"/>
      <point x="30" y="709"/>
      <point x="31" y="707" type="curve" smooth="yes"/>
      <point x="211" y="345" type="line"/>
      <point x="96" y="345" type="line" smooth="yes"/>
      <point x="86" y="345"/>
      <point x="79" y="337"/>
      <point x="79" y="327" type="curve" smooth="yes"/>
      <point x="79" y="317"/>
      <point x="86" y="310"/>
      <point x="96" y="310" type="curve" smooth="yes"/>
      <point x="220" y="310" type="line"/>
      <point x="220" y="232" type="line"/>
      <point x="96" y="232" type="line" smooth="yes"/>
      <point x="86" y="232"/>
      <point x="79" y="224"/>
      <point x="79" y="214" type="curve" smooth="yes"/>
      <point x="79" y="204"/>
      <point x="86" y="197"/>
      <point x="96" y="197" type="curve" smooth="yes"/>
      <point x="220" y="197" type="line"/>
      <point x="220" y="17" type="line" smooth="yes"/>
      <point x="220" y="8"/>
      <point x="228" y="0"/>
    </contour>
  </outline>
</glyph>
<glyph name="brokenbar" format="2">
  <advance width="198"/>
  <unicode hex="00A6"/>
  <outline>
    <contour>
      <point x="99" y="452" type="curve" smooth="yes"/>
      <point x="108" y="452"/>
      <point x="117" y="460"/>
      <point x="117" y="469" type="curve" smooth="yes"/>
      <point x="117" y="751" type="line" smooth="yes"/>
      <point x="117" y="760"/>
      <point x="108" y="768"/>
      <point x="99" y="768" type="curve" smooth="yes"/>
      <point x="89" y="768"/>
      <point x="81" y="760"/>
      <point x="81" y="751" type="curve" smooth="yes"/>
      <point x="81" y="469" type="line" smooth="yes"/>
      <point x="81" y="460"/>
      <point x="89" y="452"/>
    </contour>
    <contour>
      <point x="99" y="-21" type="curve" smooth="yes"/>
      <point x="108" y="-21"/>
      <point x="117" y="-13"/>
      <point x="117" y="-4" type="curve" smooth="yes"/>
      <point x="117" y="278" type="line" smooth="yes"/>
      <point x="117" y="287"/>
      <point x="108" y="295"/>
      <point x="99" y="295" type="curve" smooth="yes"/>
      <point x="89" y="295"/>
      <point x="81" y="287"/>
      <point x="81" y="278" type="curve" smooth="yes"/>
      <point x="81" y="-4" type="line" smooth="yes"/>
      <point x="81" y="-13"/>
      <point x="89" y="-21"/>
    </contour>
  </outline>
</glyph>
<glyph name="section" format="2">
  <advance width="470"/>
  <unicode hex="00A7"/>
  <outline>
    <contour>
      <point x="234" y="-61" type="curve" smooth="yes"/>
      <point x="331" y="-61"/>
      <point x="407" y="-6"/>
      <point x="407" y="120" type="curve" smooth="yes"/>
      <point x="407" y="250" type="line" smooth="yes"/>
      <point x="407" y="476"/>
      <point x="110" y="366"/>
      <point x="110" y="552" type="curve" smooth="yes"/>
      <point x="110" y="667"/>
      <point x="181" y="700"/>
      <point x="239" y="700" type="curve" smooth="yes"/>
      <point x="331" y="700"/>
      <point x="351" y="623"/>
      <point x="351" y="581" type="curve" smooth="yes"/>
      <point x="351" y="561"/>
      <point x="360" y="556"/>
      <point x="370" y="556" type="curve" smooth="yes"/>
      <point x="379" y="556"/>
      <point x="389" y="561"/>
      <point x="389" y="578" type="curve" smooth="yes"/>
      <point x="389" y="672"/>
      <point x="337" y="736"/>
      <point x="237" y="736" type="curve" smooth="yes"/>
      <point x="168" y="736"/>
      <point x="74" y="701"/>
      <point x="74" y="552" type="curve" smooth="yes"/>
      <point x="74" y="420" type="line" smooth="yes"/>
      <point x="74" y="193"/>
      <point x="371" y="304"/>
      <point x="371" y="118" type="curve" smooth="yes"/>
      <point x="371" y="25"/>
      <point x="318" y="-25"/>
      <point x="228" y="-25" type="curve" smooth="yes"/>
      <point x="117" y="-25"/>
      <point x="92" y="62"/>
      <point x="92" y="106" type="curve" smooth="yes"/>
      <point x="92" y="115"/>
      <point x="87" y="124"/>
      <point x="75" y="124" type="curve" smooth="yes"/>
      <point x="65" y="124"/>
      <point x="56" y="118"/>
      <point x="56" y="104" type="curve" smooth="yes"/>
      <point x="56" y="12"/>
      <point x="127" y="-61"/>
    </contour>
    <contour>
      <point x="371" y="215" type="line"/>
      <point x="296" y="303"/>
      <point x="110" y="264"/>
      <point x="110" y="422" type="curve" smooth="yes"/>
      <point x="110" y="454" type="line"/>
      <point x="185" y="366"/>
      <point x="371" y="406"/>
      <point x="371" y="248" type="curve" smooth="yes"/>
    </contour>
  </outline>
</glyph>
<glyph name="copyright" format="2">
  <advance width="738"/>
  <unicode hex="00A9"/>
  <outline>
    <contour>
      <point x="366" y="35" type="curve" smooth="yes"/>
      <point x="505" y="35"/>
      <point x="676" y="139"/>
      <point x="676" y="362" type="curve" smooth="yes"/>
      <point x="676" y="579"/>
      <point x="513" y="685"/>
      <point x="372" y="685" type="curve" smooth="yes"/>
      <point x="233" y="685"/>
      <point x="62" y="581"/>
      <point x="62" y="358" type="curve" smooth="yes"/>
      <point x="62" y="141"/>
      <point x="225" y="35"/>
    </contour>
    <contour>
      <point x="366" y="70" type="curve" smooth="yes"/>
      <point x="205" y="70"/>
      <point x="97" y="191"/>
      <point x="97" y="358" type="curve" smooth="yes"/>
      <point x="97" y="531"/>
      <point x="213" y="650"/>
      <point x="372" y="650" type="curve" smooth="yes"/>
      <point x="533" y="650"/>
      <point x="641" y="529"/>
      <point x="641" y="362" type="curve" smooth="yes"/>
      <point x="641" y="189"/>
      <point x="525" y="70"/>
    </contour>
    <contour>
      <point x="369" y="168" type="curve" smooth="yes"/>
      <point x="431" y="168"/>
      <point x="468" y="210"/>
      <point x="468" y="260" type="curve" smooth="yes"/>
      <point x="468" y="277"/>
      <point x="463" y="282"/>
      <point x="450" y="282" type="curve" smooth="yes"/>
      <point x="439" y="282"/>
      <point x="433" y="277"/>
      <point x="432" y="268" type="curve" smooth="yes"/>
      <point x="429" y="242"/>
      <point x="424" y="201"/>
      <point x="372" y="201" type="curve" smooth="yes"/>
      <point x="331" y="201"/>
      <point x="308" y="227"/>
      <point x="308" y="283" type="curve" smooth="yes"/>
      <point x="308" y="450" type="line" smooth="yes"/>
      <point x="308" y="506"/>
      <point x="331" y="532"/>
      <point x="371" y="532" type="curve" smooth="yes"/>
      <point x="423" y="532"/>
      <point x="431" y="490"/>
      <point x="432" y="467" type="curve"/>
      <point x="432" y="459"/>
      <point x="438" y="453"/>
      <point x="450" y="453" type="curve" smooth="yes"/>
      <point x="463" y="453"/>
      <point x="468" y="457"/>
      <point x="468" y="475" type="curve" smooth="yes"/>
      <point x="468" y="524"/>
      <point x="432" y="566"/>
      <point x="370" y="566" type="curve" smooth="yes"/>
      <point x="317" y="566"/>
      <point x="272" y="534"/>
      <point x="272" y="450" type="curve" smooth="yes"/>
      <point x="272" y="283" type="line" smooth="yes"/>
      <point x="272" y="199"/>
      <point x="316" y="168"/>
    </contour>
  </outline>
</glyph>
<glyph name="ordfeminine" format="2">
  <advance width="313"/>
  <unicode hex="00AA"/>
  <outline>
    <contour>
      <point x="133" y="435" type="curve"/>
      <point x="171" y="437"/>
      <point x="200" y="459"/>
      <point x="220" y="482" type="curve"/>
      <point x="220" y="454" type="line" smooth="yes"/>
      <point x="220" y="446"/>
      <point x="228" y="439"/>
      <point x="237" y="439" type="curve" smooth="yes"/>
      <point x="248" y="439"/>
      <point x="255" y="446"/>
      <point x="255" y="454" type="curve" smooth="yes"/>
      <point x="255" y="616" type="line" smooth="yes"/>
      <point x="255" y="678"/>
      <point x="226" y="736"/>
      <point x="145" y="736" type="curve" smooth="yes"/>
      <point x="106" y="736"/>
      <point x="63" y="720"/>
      <point x="63" y="705" type="curve" smooth="yes"/>
      <point x="63" y="697"/>
      <point x="68" y="686"/>
      <point x="78" y="686" type="curve" smooth="yes"/>
      <point x="87" y="686"/>
      <point x="103" y="704"/>
      <point x="144" y="704" type="curve" smooth="yes"/>
      <point x="198" y="704"/>
      <point x="219" y="658"/>
      <point x="219" y="616" type="curve" smooth="yes"/>
      <point x="219" y="601" type="line"/>
      <point x="187" y="601" type="line" smooth="yes"/>
      <point x="101" y="601"/>
      <point x="42" y="584"/>
      <point x="42" y="517" type="curve" smooth="yes"/>
      <point x="42" y="459"/>
      <point x="76" y="435"/>
    </contour>
    <contour>
      <point x="134" y="466" type="curve" smooth="yes"/>
      <point x="103" y="466"/>
      <point x="78" y="482"/>
      <point x="78" y="519" type="curve" smooth="yes"/>
      <point x="78" y="568"/>
      <point x="131" y="574"/>
      <point x="188" y="574" type="curve" smooth="yes"/>
      <point x="219" y="574" type="line"/>
      <point x="219" y="532" type="line" smooth="yes"/>
      <point x="219" y="504"/>
      <point x="176" y="466"/>
    </contour>
  </outline>
</glyph>
<glyph name="logicalnot" format="2">
  <advance width="490"/>
  <unicode hex="00AC"/>
  <outline>
    <contour>
      <point x="394" y="63" type="curve" smooth="yes"/>
      <point x="404" y="63"/>
      <point x="411" y="70"/>
      <point x="411" y="80" type="curve" smooth="yes"/>
      <point x="411" y="240" type="line" smooth="yes"/>
      <point x="411" y="250"/>
      <point x="402" y="258"/>
      <point x="393" y="258" type="curve" smooth="yes"/>
      <point x="83" y="258" type="line" smooth="yes"/>
      <point x="73" y="258"/>
      <point x="66" y="250"/>
      <point x="66" y="240" type="curve" smooth="yes"/>
      <point x="66" y="230"/>
      <point x="73" y="223"/>
      <point x="83" y="223" type="curve" smooth="yes"/>
      <point x="376" y="223" type="line"/>
      <point x="376" y="80" type="line" smooth="yes"/>
      <point x="376" y="70"/>
      <point x="384" y="63"/>
    </contour>
  </outline>
</glyph>
<glyph name="registered" format="2">
  <advance width="738"/>
  <unicode hex="00AE"/>
  <outline>
    <contour>
      <point x="366" y="35" type="curve" smooth="yes"/>
      <point x="505" y="35"/>
      <point x="676" y="139"/>
      <point x="676" y="362" type="curve" smooth="yes"/>
      <point x="676" y="579"/>
      <point x="513" y="685"/>
      <point x="372" y="685" type="curve" smooth="yes"/>
      <point x="233" y="685"/>
      <point x="62" y="581"/>
      <point x="62" y="358" type="curve" smooth="yes"/>
      <point x="62" y="141"/>
      <point x="225" y="35"/>
    </contour>
    <contour>
      <point x="366" y="70" type="curve" smooth="yes"/>
      <point x="205" y="70"/>
      <point x="97" y="191"/>
      <point x="97" y="358" type="curve" smooth="yes"/>
      <point x="97" y="531"/>
      <point x="213" y="650"/>
      <point x="372" y="650" type="curve" smooth="yes"/>
      <point x="533" y="650"/>
      <point x="641" y="529"/>
      <point x="641" y="362" type="curve" smooth="yes"/>
      <point x="641" y="189"/>
      <point x="525" y="70"/>
    </contour>
    <contour>
      <point x="458" y="168" type="curve" smooth="yes"/>
      <point x="468" y="168"/>
      <point x="479" y="177"/>
      <point x="479" y="187" type="curve" smooth="yes"/>
      <point x="479" y="189"/>
      <point x="478" y="191"/>
      <point x="477" y="194" type="curve"/>
      <point x="408" y="353" type="line"/>
      <point x="448" y="361"/>
      <point x="478" y="390"/>
      <point x="478" y="457" type="curve" smooth="yes"/>
      <point x="478" y="538"/>
      <point x="432" y="564"/>
      <point x="377" y="564" type="curve" smooth="yes"/>
      <point x="293" y="564" type="line"/>
      <point x="285" y="563"/>
      <point x="280" y="557"/>
      <point x="280" y="550" type="curve" smooth="yes"/>
      <point x="280" y="183" type="line" smooth="yes"/>
      <point x="280" y="174"/>
      <point x="289" y="169"/>
      <point x="298" y="169" type="curve" smooth="yes"/>
      <point x="307" y="169"/>
      <point x="316" y="174"/>
      <point x="316" y="183" type="curve" smooth="yes"/>
      <point x="316" y="349" type="line"/>
      <point x="368" y="349" type="line"/>
      <point x="441" y="187" type="line" smooth="yes"/>
      <point x="445" y="178"/>
      <point x="450" y="168"/>
    </contour>
    <contour>
      <point x="316" y="380" type="line"/>
      <point x="316" y="530" type="line"/>
      <point x="377" y="530" type="line" smooth="yes"/>
      <point x="415" y="530"/>
      <point x="442" y="509"/>
      <point x="442" y="455" type="curve" smooth="yes"/>
      <point x="442" y="401"/>
      <point x="415" y="380"/>
      <point x="377" y="380" type="curve" smooth="yes"/>
    </contour>
  </outline>
</glyph>
<glyph name="degree" format="2">
  <advance width="435"/>
  <unicode hex="00B0"/>
  <outline>
    <contour>
      <point x="217" y="406" type="curve" smooth="yes"/>
      <point x="312" y="406"/>
      <point x="395" y="493"/>
      <point x="395" y="588" type="curve" smooth="yes"/>
      <point x="395" y="687"/>
      <point x="312" y="768"/>
      <point x="217" y="768" type="curve" smooth="yes"/>
      <point x="120" y="768"/>
      <point x="40" y="684"/>
      <point x="40" y="588" type="curve" smooth="yes"/>
      <point x="40" y="492"/>
      <point x="122" y="406"/>
    </contour>
    <contour>
      <point x="217" y="444" type="curve" smooth="yes"/>
      <point x="140" y="444"/>
      <point x="78" y="514"/>
      <point x="78" y="588" type="curve" smooth="yes"/>
      <point x="78" y="660"/>
      <point x="139" y="730"/>
      <point x="217" y="730" type="curve" smooth="yes"/>
      <point x="295" y="730"/>
      <point x="357" y="660"/>
      <point x="357" y="588" type="curve" smooth="yes"/>
      <point x="357" y="514"/>
      <point x="294" y="444"/>
    </contour>
  </outline>
</glyph>
<glyph name="twosuperior" format="2">
  <advance width="305"/>
  <unicode hex="00B2"/>
  <outline>
    <contour>
      <point x="56" y="365" type="curve" smooth="yes"/>
      <point x="255" y="365" type="line" smooth="yes"/>
      <point x="262" y="365"/>
      <point x="268" y="373"/>
      <point x="268" y="381" type="curve" smooth="yes"/>
      <point x="268" y="389"/>
      <point x="262" y="396"/>
      <point x="255" y="396" type="curve" smooth="yes"/>
      <point x="74" y="396" type="line"/>
      <point x="74" y="426" type="line" smooth="yes"/>
      <point x="74" y="493"/>
      <point x="263" y="527"/>
      <point x="263" y="634" type="curve" smooth="yes"/>
      <point x="263" y="688"/>
      <point x="218" y="731"/>
      <point x="153" y="731" type="curve" smooth="yes"/>
      <point x="94" y="731"/>
      <point x="49" y="696"/>
      <point x="49" y="647" type="curve" smooth="yes"/>
      <point x="49" y="632"/>
      <point x="55" y="627"/>
      <point x="65" y="627" type="curve" smooth="yes"/>
      <point x="76" y="627"/>
      <point x="83" y="634"/>
      <point x="83" y="640" type="curve" smooth="yes"/>
      <point x="83" y="680"/>
      <point x="112" y="699"/>
      <point x="152" y="699" type="curve" smooth="yes"/>
      <point x="205" y="699"/>
      <point x="230" y="665"/>
      <point x="230" y="633" type="curve" smooth="yes"/>
      <point x="230" y="546"/>
      <point x="40" y="509"/>
      <point x="40" y="426" type="curve" smooth="yes"/>
      <point x="40" y="378" type="line" smooth="yes"/>
      <point x="40" y="370"/>
      <point x="49" y="365"/>
    </contour>
  </outline>
</glyph>
<glyph name="threesuperior" format="2">
  <advance width="312"/>
  <unicode hex="00B3"/>
  <outline>
    <contour>
      <point x="152" y="362" type="curve" smooth="yes"/>
      <point x="216" y="362"/>
      <point x="267" y="391"/>
      <point x="267" y="468" type="curve" smooth="yes"/>
      <point x="267" y="477" type="line" smooth="yes"/>
      <point x="267" y="521"/>
      <point x="243" y="546"/>
      <point x="210" y="558" type="curve"/>
      <point x="236" y="569"/>
      <point x="256" y="597"/>
      <point x="256" y="643" type="curve" smooth="yes"/>
      <point x="256" y="707"/>
      <point x="215" y="731"/>
      <point x="155" y="731" type="curve" smooth="yes"/>
      <point x="66" y="731"/>
      <point x="47" y="677"/>
      <point x="47" y="650" type="curve" smooth="yes"/>
      <point x="47" y="635"/>
      <point x="51" y="631"/>
      <point x="64" y="631" type="curve" smooth="yes"/>
      <point x="75" y="631"/>
      <point x="80" y="637"/>
      <point x="80" y="647" type="curve" smooth="yes"/>
      <point x="80" y="668"/>
      <point x="93" y="700"/>
      <point x="154" y="700" type="curve" smooth="yes"/>
      <point x="202" y="700"/>
      <point x="223" y="679"/>
      <point x="223" y="636" type="curve" smooth="yes"/>
      <point x="223" y="587"/>
      <point x="198" y="572"/>
      <point x="152" y="572" type="curve" smooth="yes"/>
      <point x="142" y="572"/>
      <point x="138" y="565"/>
      <point x="138" y="557" type="curve" smooth="yes"/>
      <point x="138" y="550"/>
      <point x="142" y="543"/>
      <point x="152" y="543" type="curve" smooth="yes"/>
      <point x="202" y="543"/>
      <point x="234" y="523"/>
      <point x="234" y="477" type="curve" smooth="yes"/>
      <point x="234" y="468" type="line" smooth="yes"/>
      <point x="234" y="416"/>
      <point x="204" y="393"/>
      <point x="151" y="393" type="curve" smooth="yes"/>
      <point x="87" y="393"/>
      <point x="70" y="427"/>
      <point x="70" y="448" type="curve" smooth="yes"/>
      <point x="70" y="456"/>
      <point x="66" y="462"/>
      <point x="52" y="462" type="curve" smooth="yes"/>
      <point x="42" y="462"/>
      <point x="37" y="459"/>
      <point x="37" y="445" type="curve" smooth="yes"/>
      <point x="37" y="407"/>
      <point x="74" y="362"/>
    </contour>
  </outline>
</glyph>
<glyph name="micro" format="2">
  <advance width="487"/>
  <unicode hex="00B5"/>
  <outline>
    <contour>
      <point x="100" y="-237" type="curve" smooth="yes"/>
      <point x="110" y="-237"/>
      <point x="118" y="-230"/>
      <point x="118" y="-220" type="curve" smooth="yes"/>
      <point x="118" y="70" type="line"/>
      <point x="140" y="31"/>
      <point x="193" y="-6"/>
      <point x="260" y="-6" type="curve" smooth="yes"/>
      <point x="358" y="-6"/>
      <point x="432" y="75"/>
      <point x="432" y="174" type="curve" smooth="yes"/>
      <point x="432" y="454" type="line" smooth="yes"/>
      <point x="432" y="466"/>
      <point x="423" y="472"/>
      <point x="414" y="472" type="curve" smooth="yes"/>
      <point x="406" y="472"/>
      <point x="397" y="466"/>
      <point x="397" y="454" type="curve" smooth="yes"/>
      <point x="397" y="174" type="line" smooth="yes"/>
      <point x="397" y="101"/>
      <point x="334" y="29"/>
      <point x="262" y="29" type="curve" smooth="yes"/>
      <point x="188" y="29"/>
      <point x="118" y="106"/>
      <point x="118" y="150" type="curve" smooth="yes"/>
      <point x="118" y="454" type="line" smooth="yes"/>
      <point x="118" y="463"/>
      <point x="110" y="472"/>
      <point x="100" y="472" type="curve" smooth="yes"/>
      <point x="90" y="472"/>
      <point x="83" y="463"/>
      <point x="83" y="454" type="curve" smooth="yes"/>
      <point x="83" y="-220" type="line" smooth="yes"/>
      <point x="83" y="-230"/>
      <point x="90" y="-237"/>
    </contour>
  </outline>
</glyph>
<glyph name="paragraph" format="2">
  <advance width="522"/>
  <unicode hex="00B6"/>
  <outline>
    <contour>
      <point x="303" y="0" type="curve" smooth="yes"/>
      <point x="312" y="0"/>
      <point x="321" y="6"/>
      <point x="321" y="18" type="curve" smooth="yes"/>
      <point x="321" y="694" type="line"/>
      <point x="396" y="694" type="line"/>
      <point x="396" y="17" type="line" smooth="yes"/>
      <point x="396" y="5"/>
      <point x="405" y="0"/>
      <point x="414" y="0" type="curve" smooth="yes"/>
      <point x="423" y="0"/>
      <point x="432" y="5"/>
      <point x="432" y="17" type="curve" smooth="yes"/>
      <point x="432" y="712" type="line" smooth="yes"/>
      <point x="432" y="724"/>
      <point x="423" y="730"/>
      <point x="414" y="730" type="curve" smooth="yes"/>
      <point x="237" y="730" type="line" smooth="yes"/>
      <point x="127" y="730"/>
      <point x="41" y="674"/>
      <point x="41" y="524" type="curve" smooth="yes"/>
      <point x="41" y="512" type="line" smooth="yes"/>
      <point x="41" y="362"/>
      <point x="127" y="305"/>
      <point x="237" y="305" type="curve" smooth="yes"/>
      <point x="285" y="305" type="line"/>
      <point x="285" y="18" type="line" smooth="yes"/>
      <point x="285" y="6"/>
      <point x="294" y="0"/>
    </contour>
  </outline>
</glyph>
<glyph name="onesuperior" format="2">
  <advance width="164"/>
  <unicode hex="00B9"/>
  <outline>
    <contour>
      <point x="89" y="365" type="curve" smooth="yes"/>
      <point x="97" y="365"/>
      <point x="105" y="369"/>
      <point x="105" y="378" type="curve" smooth="yes"/>
      <point x="105" y="718" type="line" smooth="yes"/>
      <point x="105" y="726"/>
      <point x="98" y="731"/>
      <point x="91" y="731" type="curve" smooth="yes"/>
      <point x="84" y="731"/>
      <point x="80" y="728"/>
      <point x="77" y="724" type="curve" smooth="yes"/>
      <point x="32" y="665" type="line"/>
      <point x="30" y="663"/>
      <point x="25" y="655"/>
      <point x="25" y="650" type="curve" smooth="yes"/>
      <point x="25" y="643"/>
      <point x="31" y="636"/>
      <point x="39" y="636" type="curve" smooth="yes"/>
      <point x="42" y="636"/>
      <point x="46" y="637"/>
      <point x="49" y="642" type="curve"/>
      <point x="72" y="674" type="line"/>
      <point x="72" y="378" type="line" smooth="yes"/>
      <point x="72" y="369"/>
      <point x="80" y="365"/>
    </contour>
  </outline>
</glyph>
<glyph name="ordmasculine" format="2">
  <advance width="328"/>
  <unicode hex="00BA"/>
  <outline>
    <contour>
      <point x="164" y="435" type="curve" smooth="yes"/>
      <point x="226" y="435"/>
      <point x="280" y="490"/>
      <point x="280" y="551" type="curve" smooth="yes"/>
      <point x="280" y="621" type="line" smooth="yes"/>
      <point x="280" y="684"/>
      <point x="226" y="736"/>
      <point x="164" y="736" type="curve" smooth="yes"/>
      <point x="100" y="736"/>
      <point x="48" y="682"/>
      <point x="48" y="621" type="curve" smooth="yes"/>
      <point x="48" y="551" type="line" smooth="yes"/>
      <point x="48" y="490"/>
      <point x="102" y="435"/>
    </contour>
    <contour>
      <point x="164" y="468" type="curve" smooth="yes"/>
      <point x="119" y="468"/>
      <point x="84" y="509"/>
      <point x="84" y="551" type="curve" smooth="yes"/>
      <point x="84" y="621" type="line" smooth="yes"/>
      <point x="84" y="662"/>
      <point x="119" y="702"/>
      <point x="164" y="702" type="curve" smooth="yes"/>
      <point x="209" y="702"/>
      <point x="244" y="662"/>
      <point x="244" y="621" type="curve" smooth="yes"/>
      <point x="244" y="551" type="line" smooth="yes"/>
      <point x="244" y="509"/>
      <point x="208" y="468"/>
    </contour>
  </outline>
</glyph>
<glyph name="guillemetright" format="2">
  <advance width="367"/>
  <unicode hex="00BB"/>
  <outline>
    <contour>
      <point x="208" y="74" type="curve" smooth="yes"/>
      <point x="214" y="74"/>
      <point x="219" y="76"/>
      <point x="223" y="83" type="curve" smooth="yes"/>
      <point x="319" y="260" type="line"/>
      <point x="322" y="265"/>
      <point x="324" y="271"/>
      <point x="324" y="277" type="curve" smooth="yes"/>
      <point x="324" y="283"/>
      <point x="322" y="289"/>
      <point x="319" y="294" type="curve"/>
      <point x="223" y="472" type="line" smooth="yes"/>
      <point x="220" y="478"/>
      <point x="213" y="481"/>
      <point x="206" y="481" type="curve" smooth="yes"/>
      <point x="197" y="481"/>
      <point x="190" y="473"/>
      <point x="190" y="464" type="curve" smooth="yes"/>
      <point x="190" y="461"/>
      <point x="191" y="458"/>
      <point x="193" y="455" type="curve"/>
      <point x="289" y="277" type="line"/>
      <point x="193" y="100" type="line"/>
      <point x="191" y="97"/>
      <point x="190" y="94"/>
      <point x="190" y="91" type="curve" smooth="yes"/>
      <point x="190" y="81"/>
      <point x="199" y="74"/>
    </contour>
    <contour>
      <point x="62" y="74" type="curve" smooth="yes"/>
      <point x="68" y="74"/>
      <point x="73" y="76"/>
      <point x="77" y="83" type="curve" smooth="yes"/>
      <point x="173" y="260" type="line"/>
      <point x="176" y="265"/>
      <point x="178" y="271"/>
      <point x="178" y="277" type="curve" smooth="yes"/>
      <point x="178" y="283"/>
      <point x="176" y="289"/>
      <point x="173" y="294" type="curve"/>
      <point x="77" y="472" type="line" smooth="yes"/>
      <point x="74" y="478"/>
      <point x="67" y="481"/>
      <point x="60" y="481" type="curve" smooth="yes"/>
      <point x="51" y="481"/>
      <point x="44" y="473"/>
      <point x="44" y="464" type="curve" smooth="yes"/>
      <point x="44" y="461"/>
      <point x="45" y="458"/>
      <point x="47" y="455" type="curve"/>
      <point x="143" y="277" type="line"/>
      <point x="47" y="100" type="line"/>
      <point x="45" y="97"/>
      <point x="44" y="94"/>
      <point x="44" y="91" type="curve" smooth="yes"/>
      <point x="44" y="81"/>
      <point x="53" y="74"/>
    </contour>
  </outline>
</glyph>
<glyph name="onequarter" format="2">
  <advance width="584"/>
  <unicode hex="00BC"/>
  <outline>
    <contour>
      <point x="88" y="-20" type="curve" smooth="yes"/>
      <point x="95" y="-20"/>
      <point x="101" y="-17"/>
      <point x="105" y="-9" type="curve" smooth="yes"/>
      <point x="493" y="738" type="line" smooth="yes"/>
      <point x="495" y="742"/>
      <point x="496" y="745"/>
      <point x="496" y="749" type="curve" smooth="yes"/>
      <point x="496" y="760"/>
      <point x="486" y="768"/>
      <point x="478" y="768" type="curve" smooth="yes"/>
      <point x="473" y="768"/>
      <point x="468" y="766"/>
      <point x="465" y="760" type="curve" smooth="yes"/>
      <point x="74" y="4" type="line"/>
      <point x="72" y="1"/>
      <point x="72" y="-2"/>
      <point x="72" y="-5" type="curve" smooth="yes"/>
      <point x="72" y="-14"/>
      <point x="80" y="-20"/>
    </contour>
    <contour>
      <point x="492" y="0" type="curve" smooth="yes"/>
      <point x="501" y="0"/>
      <point x="509" y="4"/>
      <point x="509" y="13" type="curve" smooth="yes"/>
      <point x="509" y="86" type="line"/>
      <point x="540" y="86" type="line" smooth="yes"/>
      <point x="548" y="86"/>
      <point x="554" y="94"/>
      <point x="554" y="102" type="curve" smooth="yes"/>
      <point x="554" y="110"/>
      <point x="549" y="118"/>
      <point x="540" y="118" type="curve" smooth="yes"/>
      <point x="509" y="118" type="line"/>
      <point x="509" y="214" type="line" smooth="yes"/>
      <point x="509" y="222"/>
      <point x="501" y="226"/>
      <point x="492" y="226" type="curve" smooth="yes"/>
      <point x="484" y="226"/>
      <point x="476" y="222"/>
      <point x="476" y="214" type="curve" smooth="yes"/>
      <point x="476" y="118" type="line"/>
      <point x="362" y="118" type="line"/>
      <point x="493" y="345" type="line"/>
      <point x="494" y="347"/>
      <point x="495" y="350"/>
      <point x="495" y="352" type="curve" smooth="yes"/>
      <point x="495" y="360"/>
      <point x="486" y="366"/>
      <point x="478" y="366" type="curve" smooth="yes"/>
      <point x="473" y="366"/>
      <point x="466" y="362"/>
      <point x="462" y="355" type="curve" smooth="yes"/>
      <point x="321" y="108" type="line"/>
      <point x="320" y="105"/>
      <point x="319" y="102"/>
      <point x="319" y="100" type="curve" smooth="yes"/>
      <point x="319" y="92"/>
      <point x="324" y="86"/>
      <point x="332" y="86" type="curve" smooth="yes"/>
      <point x="476" y="86" type="line"/>
      <point x="476" y="13" type="line" smooth="yes"/>
      <point x="476" y="4"/>
      <point x="484" y="0"/>
    </contour>
    <contour>
      <point x="102" y="365" type="curve" smooth="yes"/>
      <point x="110" y="365"/>
      <point x="118" y="369"/>
      <point x="118" y="378" type="curve" smooth="yes"/>
      <point x="118" y="718" type="line" smooth="yes"/>
      <point x="118" y="726"/>
      <point x="111" y="731"/>
      <point x="104" y="731" type="curve" smooth="yes"/>
      <point x="97" y="731"/>
      <point x="93" y="728"/>
      <point x="90" y="724" type="curve" smooth="yes"/>
      <point x="45" y="665" type="line"/>
      <point x="43" y="663"/>
      <point x="38" y="655"/>
      <point x="38" y="650" type="curve" smooth="yes"/>
      <point x="38" y="643"/>
      <point x="44" y="636"/>
      <point x="52" y="636" type="curve" smooth="yes"/>
      <point x="55" y="636"/>
      <point x="59" y="637"/>
      <point x="62" y="642" type="curve"/>
      <point x="85" y="674" type="line"/>
      <point x="85" y="378" type="line" smooth="yes"/>
      <point x="85" y="369"/>
      <point x="93" y="365"/>
    </contour>
  </outline>
</glyph>
<glyph name="threequarters" format="2">
  <advance width="712"/>
  <unicode hex="00BE"/>
  <outline>
    <contour>
      <point x="211" y="-20" type="curve" smooth="yes"/>
      <point x="218" y="-20"/>
      <point x="224" y="-17"/>
      <point x="228" y="-9" type="curve" smooth="yes"/>
      <point x="616" y="738" type="line" smooth="yes"/>
      <point x="618" y="742"/>
      <point x="619" y="745"/>
      <point x="619" y="749" type="curve" smooth="yes"/>
      <point x="619" y="760"/>
      <point x="609" y="768"/>
      <point x="601" y="768" type="curve" smooth="yes"/>
      <point x="596" y="768"/>
      <point x="591" y="766"/>
      <point x="588" y="760" type="curve" smooth="yes"/>
      <point x="197" y="4" type="line"/>
      <point x="195" y="1"/>
      <point x="195" y="-2"/>
      <point x="195" y="-5" type="curve" smooth="yes"/>
      <point x="195" y="-14"/>
      <point x="203" y="-20"/>
    </contour>
    <contour>
      <point x="154" y="362" type="curve" smooth="yes"/>
      <point x="218" y="362"/>
      <point x="269" y="391"/>
      <point x="269" y="468" type="curve" smooth="yes"/>
      <point x="269" y="477" type="line" smooth="yes"/>
      <point x="269" y="521"/>
      <point x="245" y="546"/>
      <point x="212" y="558" type="curve"/>
      <point x="238" y="569"/>
      <point x="258" y="597"/>
      <point x="258" y="643" type="curve" smooth="yes"/>
      <point x="258" y="707"/>
      <point x="217" y="731"/>
      <point x="157" y="731" type="curve" smooth="yes"/>
      <point x="68" y="731"/>
      <point x="49" y="677"/>
      <point x="49" y="650" type="curve" smooth="yes"/>
      <point x="49" y="635"/>
      <point x="53" y="631"/>
      <point x="66" y="631" type="curve" smooth="yes"/>
      <point x="77" y="631"/>
      <point x="82" y="637"/>
      <point x="82" y="647" type="curve" smooth="yes"/>
      <point x="82" y="668"/>
      <point x="95" y="700"/>
      <point x="156" y="700" type="curve" smooth="yes"/>
      <point x="204" y="700"/>
      <point x="225" y="679"/>
      <point x="225" y="636" type="curve" smooth="yes"/>
      <point x="225" y="587"/>
      <point x="200" y="572"/>
      <point x="154" y="572" type="curve" smooth="yes"/>
      <point x="144" y="572"/>
      <point x="140" y="565"/>
      <point x="140" y="557" type="curve" smooth="yes"/>
      <point x="140" y="550"/>
      <point x="144" y="543"/>
      <point x="154" y="543" type="curve" smooth="yes"/>
      <point x="204" y="543"/>
      <point x="236" y="523"/>
      <point x="236" y="477" type="curve" smooth="yes"/>
      <point x="236" y="468" type="line" smooth="yes"/>
      <point x="236" y="416"/>
      <point x="206" y="393"/>
      <point x="153" y="393" type="curve" smooth="yes"/>
      <point x="89" y="393"/>
      <point x="72" y="427"/>
      <point x="72" y="448" type="curve" smooth="yes"/>
      <point x="72" y="456"/>
      <point x="68" y="462"/>
      <point x="54" y="462" type="curve" smooth="yes"/>
      <point x="44" y="462"/>
      <point x="39" y="459"/>
      <point x="39" y="445" type="curve" smooth="yes"/>
      <point x="39" y="407"/>
      <point x="76" y="362"/>
    </contour>
    <contour>
      <point x="621" y="0" type="curve" smooth="yes"/>
      <point x="630" y="0"/>
      <point x="638" y="4"/>
      <point x="638" y="13" type="curve" smooth="yes"/>
      <point x="638" y="86" type="line"/>
      <point x="669" y="86" type="line" smooth="yes"/>
      <point x="677" y="86"/>
      <point x="683" y="94"/>
      <point x="683" y="102" type="curve" smooth="yes"/>
      <point x="683" y="110"/>
      <point x="678" y="118"/>
      <point x="669" y="118" type="curve" smooth="yes"/>
      <point x="638" y="118" type="line"/>
      <point x="638" y="214" type="line" smooth="yes"/>
      <point x="638" y="222"/>
      <point x="630" y="226"/>
      <point x="621" y="226" type="curve" smooth="yes"/>
      <point x="613" y="226"/>
      <point x="605" y="222"/>
      <point x="605" y="214" type="curve" smooth="yes"/>
      <point x="605" y="118" type="line"/>
      <point x="491" y="118" type="line"/>
      <point x="622" y="345" type="line"/>
      <point x="623" y="347"/>
      <point x="624" y="350"/>
      <point x="624" y="352" type="curve" smooth="yes"/>
      <point x="624" y="360"/>
      <point x="615" y="366"/>
      <point x="607" y="366" type="curve" smooth="yes"/>
      <point x="602" y="366"/>
      <point x="595" y="362"/>
      <point x="591" y="355" type="curve" smooth="yes"/>
      <point x="450" y="108" type="line"/>
      <point x="449" y="105"/>
      <point x="448" y="102"/>
      <point x="448" y="100" type="curve" smooth="yes"/>
      <point x="448" y="92"/>
      <point x="453" y="86"/>
      <point x="461" y="86" type="curve" smooth="yes"/>
      <point x="605" y="86" type="line"/>
      <point x="605" y="13" type="line" smooth="yes"/>
      <point x="605" y="4"/>
      <point x="613" y="0"/>
    </contour>
  </outline>
</glyph>
<glyph name="questiondown" format="2">
  <advance width="388"/>
  <unicode hex="00BF"/>
  <outline>
    <contour>
      <point x="222" y="-224" type="curve" smooth="yes"/>
      <point x="294" y="-224"/>
      <point x="361" y="-191"/>
      <point x="361" y="-166" type="curve" smooth="yes"/>
      <point x="361" y="-156"/>
      <point x="353" y="-149"/>
      <point x="347" y="-149" type="curve" smooth="yes"/>
      <point x="331" y="-149"/>
      <point x="310" y="-189"/>
      <point x="226" y="-189" type="curve" smooth="yes"/>
      <point x="126" y="-189"/>
      <point x="76" y="-132"/>
      <point x="76" y="-41" type="curve" smooth="yes"/>
      <point x="76" y="79"/>
      <point x="165" y="126"/>
      <point x="208" y="179" type="curve" smooth="yes"/>
      <point x="231" y="207"/>
      <point x="243" y="240"/>
      <point x="243" y="360" type="curve" smooth="yes"/>
      <point x="243" y="372"/>
      <point x="234" y="377"/>
      <point x="226" y="377" type="curve" smooth="yes"/>
      <point x="218" y="377"/>
      <point x="209" y="372"/>
      <point x="209" y="360" type="curve" smooth="yes"/>
      <point x="209" y="277"/>
      <point x="208" y="232"/>
      <point x="182" y="199" type="curve" smooth="yes"/>
      <point x="141" y="147"/>
      <point x="41" y="93"/>
      <point x="41" y="-42" type="curve" smooth="yes"/>
      <point x="41" y="-143"/>
      <point x="98" y="-224"/>
    </contour>
    <contour>
      <point x="226" y="464" type="curve" smooth="yes"/>
      <point x="246" y="464"/>
      <point x="262" y="480"/>
      <point x="262" y="500" type="curve" smooth="yes"/>
      <point x="262" y="519"/>
      <point x="247" y="536"/>
      <point x="226" y="536" type="curve" smooth="yes"/>
      <point x="206" y="536"/>
      <point x="191" y="519"/>
      <point x="191" y="500" type="curve" smooth="yes"/>
      <point x="191" y="480"/>
      <point x="207" y="464"/>
    </contour>
  </outline>
</glyph>
<glyph name="AE" format="2">
  <advance width="683"/>
  <unicode hex="00C6"/>
  <anchor x="342" y="0" name="bottom"/>
  <anchor x="412" y="730" name="top"/>
  <outline>
    <contour>
      <point x="27" y="16" type="curve" smooth="yes"/>
      <point x="27" y="6"/>
      <point x="36" y="0"/>
      <point x="45" y="0" type="curve" smooth="yes"/>
      <point x="53" y="0"/>
      <point x="59" y="4"/>
      <point x="63" y="13" type="curve" smooth="yes"/>
      <point x="345" y="660" type="line"/>
      <point x="349" y="660" type="line"/>
      <point x="349" y="18" type="line" smooth="yes"/>
      <point x="349" y="6"/>
      <point x="358" y="0"/>
      <point x="367" y="0" type="curve" smooth="yes"/>
      <point x="641" y="0" type="line" smooth="yes"/>
      <point x="652" y="0"/>
      <point x="657" y="9"/>
      <point x="657" y="17" type="curve" smooth="yes"/>
      <point x="657" y="27"/>
      <point x="651" y="36"/>
      <point x="641" y="36" type="curve" smooth="yes"/>
      <point x="385" y="36" type="line"/>
      <point x="385" y="348" type="line"/>
      <point x="529" y="348" type="line" smooth="yes"/>
      <point x="541" y="348"/>
      <point x="545" y="357"/>
      <point x="545" y="365" type="curve" smooth="yes"/>
      <point x="545" y="375"/>
      <point x="540" y="384"/>
      <point x="529" y="384" type="curve" smooth="yes"/>
      <point x="385" y="384" type="line"/>
      <point x="385" y="694" type="line"/>
      <point x="641" y="694" type="line" smooth="yes"/>
      <point x="651" y="694"/>
      <point x="657" y="703"/>
      <point x="657" y="713" type="curve" smooth="yes"/>
      <point x="657" y="721"/>
      <point x="652" y="730"/>
      <point x="641" y="730" type="curve" smooth="yes"/>
      <point x="348" y="730" type="line" smooth="yes"/>
      <point x="340" y="730"/>
      <point x="334" y="726"/>
      <point x="330" y="716" type="curve" smooth="yes"/>
      <point x="28" y="22" type="line"/>
      <point x="27" y="20"/>
      <point x="27" y="18"/>
    </contour>
    <contour>
      <point x="135" y="210" type="line"/>
      <point x="376" y="210" type="line"/>
      <point x="365" y="246" type="line"/>
      <point x="146" y="246" type="line"/>
    </contour>
  </outline>
</glyph>
<glyph name="Eth" format="2">
  <advance width="573"/>
  <unicode hex="00D0"/>
  <outline>
    <contour>
      <point x="20" y="367" type="curve" smooth="yes"/>
      <point x="260" y="367" type="line" smooth="yes"/>
      <point x="269" y="367"/>
      <point x="278" y="374"/>
      <point x="278" y="384" type="curve" smooth="yes"/>
      <point x="278" y="394"/>
      <point x="269" y="402"/>
      <point x="260" y="402" type="curve" smooth="yes"/>
      <point x="20" y="402" type="line" smooth="yes"/>
      <point x="10" y="402"/>
      <point x="3" y="394"/>
      <point x="3" y="384" type="curve" smooth="yes"/>
      <point x="3" y="374"/>
      <point x="10" y="367"/>
    </contour>
    <component base="D"/>
  </outline>
</glyph>
<glyph name="Thorn" format="2">
  <advance width="493"/>
  <unicode hex="00DE"/>
  <outline>
    <contour>
      <point x="90" y="18" type="line" smooth="yes"/>
      <point x="90" y="6"/>
      <point x="99" y="0"/>
      <point x="108" y="0" type="curve" smooth="yes"/>
      <point x="117" y="0"/>
      <point x="126" y="6"/>
      <point x="126" y="18" type="curve" smooth="yes"/>
      <point x="126" y="153" type="line"/>
      <point x="269" y="153" type="line" smooth="yes"/>
      <point x="372" y="153"/>
      <point x="451" y="210"/>
      <point x="451" y="360" type="curve" smooth="yes"/>
      <point x="451" y="372" type="line" smooth="yes"/>
      <point x="451" y="521"/>
      <point x="372" y="577"/>
      <point x="270" y="577" type="curve" smooth="yes"/>
      <point x="126" y="577" type="line"/>
      <point x="126" y="713" type="line" smooth="yes"/>
      <point x="126" y="725"/>
      <point x="117" y="730"/>
      <point x="108" y="730" type="curve" smooth="yes"/>
      <point x="99" y="730"/>
      <point x="90" y="725"/>
      <point x="90" y="713" type="curve" smooth="yes"/>
    </contour>
    <contour>
      <point x="126" y="189" type="line"/>
      <point x="126" y="541" type="line"/>
      <point x="269" y="541" type="line" smooth="yes"/>
      <point x="361" y="541"/>
      <point x="415" y="487"/>
      <point x="415" y="372" type="curve" smooth="yes"/>
      <point x="415" y="360" type="line" smooth="yes"/>
      <point x="415" y="244"/>
      <point x="361" y="189"/>
      <point x="269" y="189" type="curve" smooth="yes"/>
    </contour>
  </outline>
</glyph>
<glyph name="germandbls" format="2">
  <advance width="502"/>
  <unicode hex="00DF"/>
  <outline>
    <contour>
      <point x="296" y="-6" type="curve" smooth="yes"/>
      <point x="378" y="-6"/>
      <point x="461" y="60"/>
      <point x="461" y="210" type="curve" smooth="yes"/>
      <point x="461" y="259" type="line" smooth="yes"/>
      <point x="461" y="353"/>
      <point x="386" y="431"/>
      <point x="321" y="443" type="curve"/>
      <point x="369" y="466"/>
      <point x="394" y="526"/>
      <point x="394" y="595" type="curve" smooth="yes"/>
      <point x="394" y="703"/>
      <point x="332" y="754"/>
      <point x="240" y="754" type="curve" smooth="yes"/>
      <point x="133" y="754"/>
      <point x="83" y="686"/>
      <point x="83" y="576" type="curve" smooth="yes"/>
      <point x="83" y="17" type="line"/>
      <point x="83" y="7"/>
      <point x="90" y="0"/>
      <point x="99" y="0" type="curve" smooth="yes"/>
      <point x="109" y="0"/>
      <point x="118" y="7"/>
      <point x="118" y="17" type="curve" smooth="yes"/>
      <point x="118" y="576" type="line" smooth="yes"/>
      <point x="118" y="661"/>
      <point x="149" y="719"/>
      <point x="242" y="719" type="curve" smooth="yes"/>
      <point x="324" y="719"/>
      <point x="359" y="673"/>
      <point x="359" y="592" type="curve" smooth="yes"/>
      <point x="359" y="545"/>
      <point x="347" y="464"/>
      <point x="262" y="457" type="curve" smooth="yes"/>
      <point x="245" y="456"/>
      <point x="230" y="454"/>
      <point x="230" y="438" type="curve" smooth="yes"/>
      <point x="230" y="424"/>
      <point x="242" y="423"/>
      <point x="261" y="422" type="curve" smooth="yes"/>
      <point x="397" y="411"/>
      <point x="429" y="319"/>
      <point x="429" y="259" type="curve" smooth="yes"/>
      <point x="429" y="210" type="line" smooth="yes"/>
      <point x="429" y="88"/>
      <point x="372" y="25"/>
      <point x="286" y="25" type="curve" smooth="yes"/>
      <point x="235" y="25"/>
      <point x="215" y="47"/>
      <point x="202" y="47" type="curve" smooth="yes"/>
      <point x="194" y="47"/>
      <point x="187" y="39"/>
      <point x="187" y="30" type="curve" smooth="yes"/>
      <point x="187" y="0"/>
      <point x="271" y="-6"/>
    </contour>
  </outline>
</glyph>
<glyph name="ae" format="2">
  <advance width="724"/>
  <unicode hex="00E6"/>
  <anchor x="362" y="0" name="bottom"/>
  <anchor x="362" y="500" name="top"/>
  <outline>
    <contour>
      <point x="38" y="130" type="curve" smooth="yes"/>
      <point x="38" y="36"/>
      <point x="101" y="-6"/>
      <point x="174" y="-6" type="curve" smooth="yes"/>
      <point x="245" y="-6"/>
      <point x="297" y="25"/>
      <point x="344.115" y="96.983" type="curve"/>
      <point x="372.383" y="32.009"/>
      <point x="434.148" y="-6"/>
      <point x="518" y="-6" type="curve" smooth="yes"/>
      <point x="609" y="-6"/>
      <point x="665" y="39"/>
      <point x="665" y="58" type="curve" smooth="yes"/>
      <point x="665" y="65"/>
      <point x="658" y="73"/>
      <point x="649" y="73" type="curve" smooth="yes"/>
      <point x="629" y="73"/>
      <point x="610" y="29"/>
      <point x="519" y="29" type="curve" smooth="yes"/>
      <point x="424" y="29"/>
      <point x="362" y="86"/>
      <point x="362" y="186" type="curve" smooth="yes"/>
      <point x="362" y="241" type="line"/>
      <point x="599" y="241" type="line" smooth="yes"/>
      <point x="643" y="241"/>
      <point x="682" y="243"/>
      <point x="682" y="317" type="curve" smooth="yes"/>
      <point x="682" y="426"/>
      <point x="607" y="506"/>
      <point x="506" y="506" type="curve" smooth="yes"/>
      <point x="436.511" y="506"/>
      <point x="379.311" y="468.677"/>
      <point x="349.446" y="412.149" type="curve"/>
      <point x="330.266" y="466.875"/>
      <point x="286.627" y="506"/>
      <point x="202" y="506" type="curve" smooth="yes"/>
      <point x="131" y="506"/>
      <point x="69" y="479"/>
      <point x="69" y="460" type="curve" smooth="yes"/>
      <point x="69" y="453"/>
      <point x="77" y="439"/>
      <point x="86" y="439" type="curve" smooth="yes"/>
      <point x="100" y="439"/>
      <point x="134" y="471"/>
      <point x="199" y="471" type="curve" smooth="yes"/>
      <point x="300" y="471"/>
      <point x="327" y="395"/>
      <point x="327" y="322" type="curve" smooth="yes"/>
      <point x="327" y="276" type="line"/>
      <point x="271" y="276" type="line" smooth="yes"/>
      <point x="132" y="276"/>
      <point x="38" y="247"/>
    </contour>
    <contour>
      <point x="73" y="130" type="curve" smooth="yes"/>
      <point x="73" y="227"/>
      <point x="153" y="241"/>
      <point x="272" y="241" type="curve" smooth="yes"/>
      <point x="327" y="241" type="line"/>
      <point x="327" y="147" type="line" smooth="yes"/>
      <point x="327" y="101"/>
      <point x="258" y="29"/>
      <point x="180" y="29" type="curve" smooth="yes"/>
      <point x="122" y="29"/>
      <point x="73" y="58"/>
    </contour>
    <contour>
      <point x="362" y="276" type="line"/>
      <point x="362" y="319" type="line" smooth="yes"/>
      <point x="362" y="402"/>
      <point x="420" y="471"/>
      <point x="506" y="471" type="curve" smooth="yes"/>
      <point x="599" y="471"/>
      <point x="647" y="389"/>
      <point x="647" y="313" type="curve" smooth="yes"/>
      <point x="647" y="282"/>
      <point x="637" y="276"/>
      <point x="587" y="276" type="curve" smooth="yes"/>
    </contour>
  </outline>
</glyph>
<glyph name="eth" format="2">
  <advance width="477"/>
  <unicode hex="00F0"/>
  <outline>
    <contour>
      <point x="231" y="-6" type="curve" smooth="yes"/>
      <point x="326" y="-6"/>
      <point x="409" y="81"/>
      <point x="409" y="176" type="curve" smooth="yes"/>
      <point x="409" y="365" type="line" smooth="yes"/>
      <point x="409" y="492"/>
      <point x="372" y="589"/>
      <point x="322" y="656" type="curve"/>
      <point x="396" y="699" type="line"/>
      <point x="402" y="702"/>
      <point x="405" y="708"/>
      <point x="405" y="714" type="curve" smooth="yes"/>
      <point x="405" y="723"/>
      <point x="396" y="731"/>
      <point x="387" y="731" type="curve" smooth="yes"/>
      <point x="384" y="731"/>
      <point x="382" y="730"/>
      <point x="380" y="729" type="curve"/>
      <point x="300" y="683" type="line"/>
      <point x="265" y="731"/>
      <point x="224" y="754"/>
      <point x="194" y="754" type="curve" smooth="yes"/>
      <point x="177" y="754"/>
      <point x="173" y="747"/>
      <point x="173" y="738" type="curve" smooth="yes"/>
      <point x="173" y="729"/>
      <point x="185" y="723"/>
      <point x="200" y="719" type="curve" smooth="yes"/>
      <point x="218" y="714"/>
      <point x="242" y="700"/>
      <point x="268" y="665" type="curve"/>
      <point x="176" y="612" type="line"/>
      <point x="170" y="609"/>
      <point x="167" y="603"/>
      <point x="167" y="598" type="curve" smooth="yes"/>
      <point x="167" y="589"/>
      <point x="175" y="579"/>
      <point x="184" y="579" type="curve" smooth="yes"/>
      <point x="187" y="579"/>
      <point x="190" y="580"/>
      <point x="193" y="582" type="curve"/>
      <point x="291" y="638" type="line"/>
      <point x="332" y="584"/>
      <point x="364" y="505"/>
      <point x="374" y="397" type="curve"/>
      <point x="357" y="449"/>
      <point x="288" y="478"/>
      <point x="230" y="478" type="curve" smooth="yes"/>
      <point x="134" y="478"/>
      <point x="54" y="394"/>
      <point x="54" y="298" type="curve" smooth="yes"/>
      <point x="54" y="176" type="line" smooth="yes"/>
      <point x="54" y="80"/>
      <point x="136" y="-6"/>
    </contour>
    <contour>
      <point x="231" y="29" type="curve" smooth="yes"/>
      <point x="152" y="29"/>
      <point x="89" y="101"/>
      <point x="89" y="176" type="curve" smooth="yes"/>
      <point x="89" y="298" type="line" smooth="yes"/>
      <point x="89" y="371"/>
      <point x="151" y="443"/>
      <point x="231" y="443" type="curve" smooth="yes"/>
      <point x="309" y="443"/>
      <point x="374" y="374"/>
      <point x="374" y="303" type="curve" smooth="yes"/>
      <point x="374" y="176" type="line" smooth="yes"/>
      <point x="374" y="101"/>
      <point x="310" y="29"/>
    </contour>
  </outline>
</glyph>
<glyph name="divide" format="2">
  <advance width="469"/>
  <unicode hex="00F7"/>
  <outline>
    <contour>
      <point x="74" y="223" type="curve" smooth="yes"/>
      <point x="394" y="223" type="line" smooth="yes"/>
      <point x="403" y="223"/>
      <point x="412" y="230"/>
      <point x="412" y="240" type="curve" smooth="yes"/>
      <point x="412" y="250"/>
      <point x="403" y="258"/>
      <point x="394" y="258" type="curve" smooth="yes"/>
      <point x="74" y="258" type="line" smooth="yes"/>
      <point x="64" y="258"/>
      <point x="57" y="250"/>
      <point x="57" y="240" type="curve" smooth="yes"/>
      <point x="57" y="230"/>
      <point x="64" y="223"/>
    </contour>
    <contour>
      <point x="231" y="37" type="curve" smooth="yes"/>
      <point x="254" y="37"/>
      <point x="274" y="57"/>
      <point x="274" y="80" type="curve" smooth="yes"/>
      <point x="274" y="103"/>
      <point x="254" y="123"/>
      <point x="231" y="123" type="curve" smooth="yes"/>
      <point x="207" y="123"/>
      <point x="187" y="103"/>
      <point x="187" y="80" type="curve" smooth="yes"/>
      <point x="187" y="57"/>
      <point x="207" y="37"/>
    </contour>
    <contour>
      <point x="231" y="358" type="curve" smooth="yes"/>
      <point x="254" y="358"/>
      <point x="274" y="378"/>
      <point x="274" y="401" type="curve" smooth="yes"/>
      <point x="274" y="424"/>
      <point x="254" y="444"/>
      <point x="231" y="444" type="curve" smooth="yes"/>
      <point x="207" y="444"/>
      <point x="187" y="424"/>
      <point x="187" y="401" type="curve" smooth="yes"/>
      <point x="187" y="378"/>
      <point x="207" y="358"/>
    </contour>
  </outline>
</glyph>
<glyph name="oslash" format="2">
  <advance width="463"/>
  <unicode hex="00F8"/>
  <anchor x="232" y="500" name="top"/>
  <outline>
    <contour>
      <point x="104" y="-32" type="curve" smooth="yes"/>
      <point x="111" y="-32"/>
      <point x="117" y="-29"/>
      <point x="121" y="-21" type="curve" smooth="yes"/>
      <point x="144" y="23" type="line"/>
      <point x="354" y="432" type="line"/>
      <point x="379" y="479" type="line" smooth="yes"/>
      <point x="381" y="483"/>
      <point x="382" y="486"/>
      <point x="382" y="490" type="curve" smooth="yes"/>
      <point x="382" y="501"/>
      <point x="372" y="509"/>
      <point x="364" y="509" type="curve" smooth="yes"/>
      <point x="359" y="509"/>
      <point x="354" y="507"/>
      <point x="351" y="501" type="curve" smooth="yes"/>
      <point x="326" y="453" type="line"/>
      <point x="117" y="45" type="line"/>
      <point x="90" y="-8" type="line"/>
      <point x="88" y="-11"/>
      <point x="88" y="-14"/>
      <point x="88" y="-17" type="curve" smooth="yes"/>
      <point x="88" y="-26"/>
      <point x="96" y="-32"/>
    </contour>
    <component base="o"/>
  </outline>
</glyph>
<glyph name="thorn" format="2">
  <advance width="484"/>
  <unicode hex="00FE"/>
  <guideline x="110" y="-64" angle="90"/>
  <outline>
    <contour>
      <point x="92" y="-218" type="curve" smooth="yes"/>
      <point x="102" y="-218"/>
      <point x="110" y="-209"/>
      <point x="110" y="-200" type="curve" smooth="yes"/>
      <point x="110" y="72" type="line"/>
      <point x="140" y="25"/>
      <point x="193" y="-6"/>
      <point x="255" y="-6" type="curve" smooth="yes"/>
      <point x="354" y="-6"/>
      <point x="430" y="75"/>
      <point x="430" y="170" type="curve" smooth="yes"/>
      <point x="430" y="332" type="line" smooth="yes"/>
      <point x="430" y="431"/>
      <point x="354" y="506"/>
      <point x="255" y="506" type="curve" smooth="yes"/>
      <point x="192" y="506"/>
      <point x="140" y="476"/>
      <point x="110" y="430" type="curve"/>
      <point x="110" y="731" type="line" smooth="yes"/>
      <point x="110" y="741"/>
      <point x="102" y="748"/>
      <point x="92" y="748" type="curve" smooth="yes"/>
      <point x="82" y="748"/>
      <point x="75" y="741"/>
      <point x="75" y="731" type="curve" smooth="yes"/>
      <point x="75" y="-200" type="line" smooth="yes"/>
      <point x="75" y="-209"/>
      <point x="82" y="-218"/>
    </contour>
    <contour>
      <point x="252" y="29" type="curve" smooth="yes"/>
      <point x="167" y="29"/>
      <point x="110" y="95"/>
      <point x="110" y="170" type="curve" smooth="yes"/>
      <point x="110" y="332" type="line" smooth="yes"/>
      <point x="110" y="405"/>
      <point x="166" y="471"/>
      <point x="252" y="471" type="curve" smooth="yes"/>
      <point x="338" y="471"/>
      <point x="395" y="405"/>
      <point x="395" y="332" type="curve" smooth="yes"/>
      <point x="395" y="170" type="line" smooth="yes"/>
      <point x="395" y="95"/>
      <point x="337" y="29"/>
    </contour>
  </outline>
</glyph>
<glyph name="Aogonek" format="2">
  <advance width="535"/>
  <unicode hex="0104"/>
  <anchor x="508" y="0" name="_ogonek"/>
  <anchor x="268" y="0" name="bottom"/>
  <anchor x="508" y="0" name="ogonek"/>
  <anchor x="268" y="730" name="top"/>
  <outline>
    <contour>
      <point x="45" y="0" type="curve" smooth="yes"/>
      <point x="53" y="0"/>
      <point x="60" y="4"/>
      <point x="63" y="13" type="curve" smooth="yes"/>
      <point x="125.419" y="210" type="line"/>
      <point x="409.886" y="210" type="line"/>
      <point x="471" y="19" type="line" smooth="yes"/>
      <point x="472" y="15"/>
      <point x="473" y="12"/>
      <point x="473.748" y="8.899" type="curve"/>
      <point x="446.836" y="-41.693"/>
      <point x="400" y="-68.793"/>
      <point x="400" y="-129" type="curve" smooth="yes"/>
      <point x="400" y="-168"/>
      <point x="420" y="-188"/>
      <point x="477" y="-188" type="curve" smooth="yes"/>
      <point x="505" y="-188"/>
      <point x="514" y="-183"/>
      <point x="514" y="-172" type="curve" smooth="yes"/>
      <point x="514" y="-161"/>
      <point x="504" y="-159"/>
      <point x="477" y="-158" type="curve" smooth="yes"/>
      <point x="449" y="-157"/>
      <point x="430" y="-157"/>
      <point x="430" y="-127" type="curve" smooth="yes"/>
      <point x="430" y="-65"/>
      <point x="508" y="-21"/>
      <point x="508" y="12" type="curve"/>
      <point x="508" y="17" type="line"/>
      <point x="508" y="20"/>
      <point x="506" y="28"/>
      <point x="503" y="36" type="curve" smooth="yes"/>
      <point x="287" y="722" type="line" smooth="yes"/>
      <point x="284" y="731"/>
      <point x="276" y="736"/>
      <point x="268" y="736" type="curve" smooth="yes"/>
      <point x="260" y="736"/>
      <point x="253" y="732"/>
      <point x="250" y="722" type="curve" smooth="yes"/>
      <point x="28" y="22" type="line" smooth="yes"/>
      <point x="27" y="20"/>
      <point x="27" y="18"/>
      <point x="27" y="16" type="curve" smooth="yes"/>
      <point x="27" y="6"/>
      <point x="36" y="0"/>
    </contour>
    <contour>
      <point x="136.825" y="246" type="line"/>
      <point x="268" y="660" type="line"/>
      <point x="398.535" y="246" type="line"/>
    </contour>
  </outline>
</glyph>
<glyph name="dcaron" format="2">
  <advance width="467"/>
  <unicode hex="010F"/>
  <outline>
    <contour>
      <point x="232" y="-6" type="curve" smooth="yes"/>
      <point x="293" y="-6"/>
      <point x="346" y="29"/>
      <point x="368" y="70" type="curve"/>
      <point x="368" y="18" type="line" smooth="yes"/>
      <point x="368" y="9"/>
      <point x="376" y="0"/>
      <point x="386" y="0" type="curve" smooth="yes"/>
      <point x="396" y="0"/>
      <point x="403" y="9"/>
      <point x="403" y="18" type="curve" smooth="yes"/>
      <point x="403" y="751" type="line" smooth="yes"/>
      <point x="403" y="761"/>
      <point x="396" y="768"/>
      <point x="386" y="768" type="curve" smooth="yes"/>
      <point x="376" y="768"/>
      <point x="368" y="761"/>
      <point x="368" y="751" type="curve" smooth="yes"/>
      <point x="368" y="402" type="line"/>
      <point x="346" y="441"/>
      <point x="301" y="478"/>
      <point x="234" y="478" type="curve" smooth="yes"/>
      <point x="136" y="478"/>
      <point x="54" y="397"/>
      <point x="54" y="298" type="curve" smooth="yes"/>
      <point x="54" y="176" type="line" smooth="yes"/>
      <point x="54" y="81"/>
      <point x="137" y="-6"/>
    </contour>
    <contour>
      <point x="230" y="29" type="curve" smooth="yes"/>
      <point x="154" y="29"/>
      <point x="89" y="101"/>
      <point x="89" y="176" type="curve" smooth="yes"/>
      <point x="89" y="298" type="line" smooth="yes"/>
      <point x="89" y="371"/>
      <point x="153" y="443"/>
      <point x="231" y="443" type="curve" smooth="yes"/>
      <point x="299" y="443"/>
      <point x="368" y="389"/>
      <point x="368" y="298" type="curve" smooth="yes"/>
      <point x="368" y="139" type="line" smooth="yes"/>
      <point x="368" y="105"/>
      <point x="309" y="29"/>
    </contour>
    <contour>
      <point x="490" y="598" type="curve" smooth="yes"/>
      <point x="495" y="598"/>
      <point x="501" y="602"/>
      <point x="504" y="608" type="curve" smooth="yes"/>
      <point x="520" y="640"/>
      <point x="537" y="689"/>
      <point x="537" y="705" type="curve" smooth="yes"/>
      <point x="537" y="725"/>
      <point x="521" y="741"/>
      <point x="502" y="741" type="curve" smooth="yes"/>
      <point x="481" y="741"/>
      <point x="466" y="725"/>
      <point x="466" y="705" type="curve" smooth="yes"/>
      <point x="466" y="689"/>
      <point x="477" y="674"/>
      <point x="493" y="670" type="curve"/>
      <point x="475" y="619" type="line"/>
      <point x="474" y="617"/>
      <point x="474" y="615"/>
      <point x="474" y="613" type="curve" smooth="yes"/>
      <point x="474" y="604"/>
      <point x="482" y="598"/>
    </contour>
  </outline>
</glyph>
